<svg width="1346" height="831" viewBox="0 0 1346 831" fill="none" xmlns="http://www.w3.org/2000/svg">
<path d="M114.5 0L131.039 73.7889L195.286 33.7139L154.575 97.9611L229 114.5L154.575 131.039L195.286 195.286L131.039 154.575L114.5 229L97.9611 154.575L33.7139 195.286L73.7889 131.039L0 114.5L73.7889 97.9611L33.7139 33.7139L97.9611 73.7889L114.5 0Z" fill="#FF7F00"/>
<path d="M1300 739L1306.64 768.644L1332.46 752.544L1316.1 778.356L1346 785L1316.1 791.644L1332.46 817.456L1306.64 801.1L1300 831L1293.36 801.1L1267.54 817.456L1283.64 791.644L1254 785L1283.64 778.356L1267.54 752.544L1293.36 768.644L1300 739Z" fill="#FF7F00"/>
</svg>
