<svg width="1412" height="517" viewBox="0 0 1412 517" fill="none" xmlns="http://www.w3.org/2000/svg">
<path d="M1278 0L1297.36 86.3556L1372.54 39.4556L1324.9 114.644L1412 134L1324.9 153.356L1372.54 228.544L1297.36 180.9L1278 268L1258.64 180.9L1183.46 228.544L1230.36 153.356L1144 134L1230.36 114.644L1183.46 39.4556L1258.64 86.3556L1278 0Z" fill="#FF7F00"/>
<path d="M59.5 398L68.0944 436.344L101.481 415.519L80.325 448.906L119 457.5L80.325 466.094L101.481 499.481L68.0944 478.325L59.5 517L50.9056 478.325L17.5194 499.481L38.3444 466.094L0 457.5L38.3444 448.906L17.5194 415.519L50.9056 436.344L59.5 398Z" fill="#FF7F00"/>
</svg>
