<svg width="115" height="106" viewBox="0 0 115 106" fill="none" xmlns="http://www.w3.org/2000/svg">
<path d="M14.3086 33.0675C32.6419 29.9008 77.7086 26.8675 111.309 40.0675" stroke="white" stroke-width="7" stroke-linecap="round"/>
<path d="M54.3086 19.0664C58.9753 18.2331 69.9086 17.4664 76.3086 21.0664M7.80847 89.0664C-4.69226 61.5664 16.7767 20.2896 26.3081 14.0657C50.8082 -1.93245 104.027 1.32094 109.435 22.5324C114.842 43.7439 108.083 95.6422 95.0147 98.8013C81.9466 101.96 23.1297 107.572 7.80847 89.0664Z" stroke="white" stroke-width="7" stroke-linecap="round"/>
<path d="M42.6392 58.4817C42.6392 59.2634 42.0056 59.897 41.2239 59.897C40.4423 59.897 39.8086 59.2634 39.8086 58.4817C39.8086 57.7001 40.4423 57.0664 41.2239 57.0664C42.0056 57.0664 42.6392 57.7001 42.6392 58.4817Z" fill="white" stroke="#FFFBEA" stroke-width="7"/>
<path d="M74.8228 58.4817C74.8228 59.2634 74.1892 59.897 73.4075 59.897C72.6258 59.897 71.9922 59.2634 71.9922 58.4817C71.9922 57.7001 72.6258 57.0664 73.4075 57.0664C74.1892 57.0664 74.8228 57.7001 74.8228 58.4817Z" fill="white" stroke="#FFFBEA" stroke-width="7"/>
<path d="M48.1836 69.7852C48.1836 69.7852 52.0179 72.2938 57.3208 72.2938C62.6236 72.2938 66.458 69.7852 66.458 69.7852" stroke="#FFFBEA" stroke-width="7" stroke-miterlimit="10" stroke-linecap="round" stroke-linejoin="round"/>
</svg>
