<svg width="350" height="412" viewBox="0 0 350 412" fill="none" xmlns="http://www.w3.org/2000/svg">
<rect x="0.25" y="0.25" width="349.5" height="411.5" rx="15.75" fill="white" stroke="#D8D9DE" stroke-width="0.5"/>
<rect y="212" width="350" height="200" rx="16" fill="#F2F2F2"/>
<g filter="url(#filter0_d_369_6869)">
<path d="M20 128C20 120.82 25.8203 115 33 115H313C320.18 115 326 120.82 326 128V128C326 135.18 320.18 141 313 141H33C25.8203 141 20 135.18 20 128V128Z" fill="#D9D9D9"/>
</g>
<rect x="207" y="115" width="122" height="26" rx="13" fill="#D1EDAD"/>
<rect x="20" y="115" width="65" height="26" rx="13" fill="#FFAFB1"/>
<rect x="22" y="115" width="82" height="26" rx="13" fill="#EF3E41"/>
<path d="M25.7969 161.371V169.855H24.7305V162.473H24.6836L22.6211 163.844V162.777L24.7305 161.371H25.7969ZM30.6367 160.773C32.1953 160.785 33.332 161.723 33.332 163.082C33.332 164.441 32.1953 165.379 30.6367 165.379C29.0547 165.379 27.9297 164.441 27.9297 163.082C27.9297 161.723 29.0547 160.785 30.6367 160.773ZM30.6367 161.547C29.5938 161.547 28.8203 162.18 28.832 163.082C28.8203 163.996 29.5938 164.629 30.6367 164.629C31.668 164.629 32.4414 163.996 32.4414 163.082C32.4414 162.18 31.668 161.547 30.6367 161.547ZM36.2852 160.387V165.742H35.3711V160.387H36.2852ZM36.2852 166.246V168.754H30.4375V169.926H36.6602V170.664H29.5352V168.062H35.3711V166.984H29.5117V166.246H36.2852Z" fill="#ABABAB"/>
<path d="M306.727 169.973C305.039 169.973 303.832 169.07 303.773 167.723H304.84C304.898 168.531 305.707 169.035 306.715 169.035C307.828 169.035 308.648 168.426 308.648 167.547C308.648 166.621 307.91 165.965 306.586 165.965H305.895V165.039H306.586C307.617 165.039 308.332 164.465 308.332 163.586C308.332 162.742 307.711 162.168 306.75 162.168C305.848 162.168 305.016 162.672 304.969 163.504H303.949C304.008 162.156 305.25 161.254 306.762 161.254C308.379 161.254 309.363 162.309 309.352 163.527C309.363 164.488 308.801 165.203 307.91 165.449V165.508C309.012 165.684 309.691 166.469 309.68 167.547C309.691 168.941 308.414 169.973 306.727 169.973ZM313.98 169.973C312.094 169.973 311.016 168.391 311.016 165.613C311.016 162.859 312.117 161.254 313.98 161.254C315.844 161.254 316.945 162.859 316.945 165.613C316.945 168.391 315.855 169.973 313.98 169.973ZM313.98 169.035C315.199 169.035 315.914 167.805 315.914 165.613C315.914 163.422 315.199 162.168 313.98 162.168C312.762 162.168 312.035 163.422 312.035 165.613C312.035 167.805 312.75 169.035 313.98 169.035ZM320.93 160.773C322.488 160.785 323.625 161.723 323.625 163.082C323.625 164.441 322.488 165.379 320.93 165.379C319.348 165.379 318.223 164.441 318.223 163.082C318.223 161.723 319.348 160.785 320.93 160.773ZM320.93 161.547C319.887 161.547 319.113 162.18 319.125 163.082C319.113 163.996 319.887 164.629 320.93 164.629C321.961 164.629 322.734 163.996 322.734 163.082C322.734 162.18 321.961 161.547 320.93 161.547ZM326.578 160.387V165.742H325.664V160.387H326.578ZM326.578 166.246V168.754H320.73V169.926H326.953V170.664H319.828V168.062H325.664V166.984H319.805V166.246H326.578Z" fill="#ABABAB"/>
<path d="M238.797 169.855L238.785 169.082L241.68 166.035C242.688 164.969 243.168 164.395 243.168 163.609C243.168 162.742 242.43 162.168 241.48 162.168C240.473 162.168 239.828 162.812 239.828 163.762H238.832C238.82 162.262 239.98 161.254 241.516 161.254C243.051 161.254 244.152 162.285 244.152 163.609C244.152 164.559 243.707 165.297 242.207 166.844L240.262 168.848V168.918H244.305V169.855H238.797ZM245.84 169.855L245.828 169.082L248.723 166.035C249.73 164.969 250.211 164.395 250.211 163.609C250.211 162.742 249.473 162.168 248.523 162.168C247.516 162.168 246.871 162.812 246.871 163.762H245.875C245.863 162.262 247.023 161.254 248.559 161.254C250.094 161.254 251.195 162.285 251.195 163.609C251.195 164.559 250.75 165.297 249.25 166.844L247.305 168.848V168.918H251.348V169.855H245.84ZM255.461 160.773C257.02 160.785 258.156 161.723 258.156 163.082C258.156 164.441 257.02 165.379 255.461 165.379C253.879 165.379 252.754 164.441 252.754 163.082C252.754 161.723 253.879 160.785 255.461 160.773ZM255.461 161.547C254.418 161.547 253.645 162.18 253.656 163.082C253.645 163.996 254.418 164.629 255.461 164.629C256.492 164.629 257.266 163.996 257.266 163.082C257.266 162.18 256.492 161.547 255.461 161.547ZM261.109 160.387V165.742H260.195V160.387H261.109ZM261.109 166.246V168.754H255.262V169.926H261.484V170.664H254.359V168.062H260.195V166.984H254.336V166.246H261.109Z" fill="#ABABAB"/>
<path d="M89.0664 169.855L92.957 162.367V162.309H88.4688V161.371H94.0469V162.355L90.168 169.855H89.0664ZM97.9961 160.773C99.5547 160.785 100.691 161.723 100.691 163.082C100.691 164.441 99.5547 165.379 97.9961 165.379C96.4141 165.379 95.2891 164.441 95.2891 163.082C95.2891 161.723 96.4141 160.785 97.9961 160.773ZM97.9961 161.547C96.9531 161.547 96.1797 162.18 96.1914 163.082C96.1797 163.996 96.9531 164.629 97.9961 164.629C99.0273 164.629 99.8008 163.996 99.8008 163.082C99.8008 162.18 99.0273 161.547 97.9961 161.547ZM103.645 160.387V165.742H102.73V160.387H103.645ZM103.645 166.246V168.754H97.7969V169.926H104.02V170.664H96.8945V168.062H102.73V166.984H96.8711V166.246H103.645Z" fill="#ABABAB"/>
<path d="M163.797 161.371V169.855H162.73V162.473H162.684L160.621 163.844V162.777L162.73 161.371H163.797ZM168.824 169.973C167.289 169.973 166.129 169.023 166.07 167.723H167.09C167.172 168.484 167.91 169.047 168.824 169.047C169.926 169.047 170.723 168.238 170.723 167.172C170.723 166.07 169.891 165.262 168.754 165.25C168.039 165.238 167.488 165.461 167.172 166.012H166.152L166.75 161.371H171.344V162.309H167.629L167.312 164.793H167.395C167.77 164.5 168.344 164.301 168.941 164.301C170.559 164.301 171.754 165.496 171.754 167.148C171.754 168.789 170.512 169.973 168.824 169.973ZM175.797 160.773C177.355 160.785 178.492 161.723 178.492 163.082C178.492 164.441 177.355 165.379 175.797 165.379C174.215 165.379 173.09 164.441 173.09 163.082C173.09 161.723 174.215 160.785 175.797 160.773ZM175.797 161.547C174.754 161.547 173.98 162.18 173.992 163.082C173.98 163.996 174.754 164.629 175.797 164.629C176.828 164.629 177.602 163.996 177.602 163.082C177.602 162.18 176.828 161.547 175.797 161.547ZM181.445 160.387V165.742H180.531V160.387H181.445ZM181.445 166.246V168.754H175.598V169.926H181.82V170.664H174.695V168.062H180.531V166.984H174.672V166.246H181.445Z" fill="#ABABAB"/>
<rect x="179" y="80" width="10" height="10" rx="4" fill="#89CA35"/>
<rect x="100" y="80" width="10" height="10" rx="4" fill="#D1EDAD"/>
<rect x="20" y="80" width="10" height="10" rx="4" fill="#EF3E41"/>
<path d="M195.688 80.5273V83.0703H197.949V80.5273H198.805V87.3477H194.809V80.5273H195.688ZM195.688 86.5859H197.949V83.8203H195.688V86.5859ZM203.352 79.5312V89.9492H202.461V84.4297H201.008V89.4219H200.129V79.7539H201.008V83.668H202.461V79.5312H203.352ZM212.938 79.543V82.7422H214.52V83.5273H212.938V87.207H212.023V79.543H212.938ZM213.43 88.9531V89.7266H206.48V86.6211H207.418V88.9531H213.43ZM209.961 80.2227V83.1992H206.164V84.8281C208.016 84.8398 209.357 84.7637 210.98 84.4883L211.074 85.25C209.398 85.5312 208.004 85.5898 206.07 85.5898H205.262V82.4727H209.059V80.9961H205.238V80.2227H209.961ZM218.117 79.918C219.676 79.9297 220.812 80.8672 220.812 82.2266C220.812 83.5859 219.676 84.5234 218.117 84.5234C216.535 84.5234 215.41 83.5859 215.41 82.2266C215.41 80.8672 216.535 79.9297 218.117 79.918ZM218.117 80.6914C217.074 80.6914 216.301 81.3242 216.312 82.2266C216.301 83.1406 217.074 83.7734 218.117 83.7734C219.148 83.7734 219.922 83.1406 219.922 82.2266C219.922 81.3242 219.148 80.6914 218.117 80.6914ZM223.766 79.5312V84.8867H222.852V79.5312H223.766ZM223.766 85.3906V87.8984H217.918V89.0703H224.141V89.8086H217.016V87.207H222.852V86.1289H216.992V85.3906H223.766Z" fill="#ABABAB"/>
<path d="M124.484 79.5312V83.7734H126.172V84.5469H124.484V89.9492H123.57V79.5312H124.484ZM121.789 80.6562C121.789 83.6094 120.406 86.293 117.008 87.9688L116.492 87.2422C119.188 85.9004 120.652 83.8965 120.863 81.4297H116.973V80.6562H121.789ZM135.395 79.543V85.4961H134.48V79.543H135.395ZM135.395 86.0586V89.8086H128.621V86.0586H135.395ZM129.523 86.8086V89.0586H134.492V86.8086H129.523ZM129.77 80.0938C131.352 80.0938 132.5 81.0781 132.5 82.5312C132.5 83.9609 131.352 84.957 129.77 84.957C128.188 84.957 127.039 83.9609 127.039 82.5312C127.039 81.0781 128.188 80.0938 129.77 80.0938ZM129.77 80.8789C128.703 80.8672 127.93 81.5586 127.941 82.5312C127.93 83.4922 128.703 84.1719 129.77 84.1719C130.824 84.1719 131.598 83.4922 131.598 82.5312C131.598 81.5586 130.824 80.8672 129.77 80.8789ZM145.777 79.5312V89.9492H144.852V79.5312H145.777ZM142.695 80.668C142.684 83.668 141.289 86.3164 137.797 87.9922L137.293 87.2422C140.111 85.9062 141.547 83.9082 141.758 81.418H137.773V80.668H142.695Z" fill="#ABABAB"/>
<path d="M38.5273 81.6055C38.5273 82.7539 39.3359 83.9258 40.6719 84.4297L40.1914 85.1328C39.1895 84.7461 38.4688 84.002 38.0938 83.1055C37.707 84.1016 36.9629 84.9863 35.9375 85.4258L35.4336 84.7109C36.8047 84.1133 37.6484 82.7656 37.6484 81.6055V80.1875H38.5273V81.6055ZM44.2695 79.543V85.9766H43.3906V83.1055H42.0078V85.6484H41.1406V79.7422H42.0078V82.3438H43.3906V79.543H44.2695ZM40.8242 86.2109C42.9805 86.2109 44.3281 86.8906 44.3281 88.0742C44.3281 89.2461 42.9805 89.9258 40.8242 89.9258C38.6562 89.9258 37.3203 89.2461 37.332 88.0742C37.3203 86.8906 38.6562 86.2109 40.8242 86.2109ZM40.8242 86.9141C39.2305 86.9141 38.2344 87.3477 38.2461 88.0742C38.2344 88.7891 39.2305 89.2109 40.8242 89.2109C42.4062 89.2109 43.4023 88.7891 43.4141 88.0742C43.4023 87.3477 42.4062 86.9141 40.8242 86.9141ZM54.3945 79.5312V89.9727H53.4805V79.5312H54.3945ZM51.2305 80.5039V84.207H47.3398V86.668C49.0684 86.668 50.6094 86.5918 52.4727 86.293L52.5664 87.0664C50.6445 87.3711 49.0625 87.4414 47.2695 87.4414H46.4023V83.457H50.3047V81.2656H46.3789V80.5039H51.2305ZM59.1172 79.918C60.6758 79.9297 61.8125 80.8672 61.8125 82.2266C61.8125 83.5859 60.6758 84.5234 59.1172 84.5234C57.5352 84.5234 56.4102 83.5859 56.4102 82.2266C56.4102 80.8672 57.5352 79.9297 59.1172 79.918ZM59.1172 80.6914C58.0742 80.6914 57.3008 81.3242 57.3125 82.2266C57.3008 83.1406 58.0742 83.7734 59.1172 83.7734C60.1484 83.7734 60.9219 83.1406 60.9219 82.2266C60.9219 81.3242 60.1484 80.6914 59.1172 80.6914ZM64.7656 79.5312V84.8867H63.8516V79.5312H64.7656ZM64.7656 85.3906V87.8984H58.918V89.0703H65.1406V89.8086H58.0156V87.207H63.8516V86.1289H57.9922V85.3906H64.7656Z" fill="#ABABAB"/>
<path d="M60.7461 27.6738V43.582H58.7773V27.6738H60.7461ZM52.1855 28.834C54.5762 28.834 56.3164 31.0137 56.334 34.4414C56.3164 37.9043 54.5762 40.0664 52.1855 40.0664C49.7773 40.0664 48.0371 37.9043 48.0371 34.4414C48.0371 31.0137 49.7773 28.834 52.1855 28.834ZM52.1855 30.5918C50.832 30.5918 49.918 32.0156 49.918 34.4414C49.918 36.8848 50.832 38.3086 52.1855 38.3086C53.5215 38.3086 54.4355 36.8848 54.4355 34.4414C54.4355 32.0156 53.5215 30.5918 52.1855 30.5918ZM76.3906 27.6914V39.416H74.4395V33.5625H71.2402V36.832H63.8047V28.7285H65.7559V31.2949H69.3066V28.7285H71.2402V31.9805H74.4395V27.6914H76.3906ZM76.7422 41.666V43.248H65.9141V38.2559H67.9004V41.666H76.7422ZM65.7559 35.2852H69.3066V32.8066H65.7559V35.2852ZM86.375 28.5352V30.0996H81.1895V33.6328C84.0811 33.6152 85.8125 33.501 87.7812 33.1055L87.9922 34.6172C85.8652 35.1094 83.9141 35.1621 80.5391 35.1621H79.2559V28.5352H86.375ZM91.1738 27.6738V30.8027H93.3887V32.4023H91.1738V35.6191H89.2227V27.6738H91.1738ZM91.1738 36.3047V40.5234H82.7363V41.7891H91.666V43.3711H80.8027V39.0469H89.2227V37.8691H80.7852V36.3047H91.1738ZM112.953 36.5332V38.1152H106.643V43.5469H104.709V38.1152H98.4688V36.5332H112.953ZM111.617 28.5703V30.1172H106.854C106.968 31.8574 109.06 33.5273 112.197 33.9316L111.494 35.4609C108.787 35.083 106.678 33.8438 105.711 32.1211C104.744 33.8438 102.635 35.083 99.9629 35.4609L99.2246 33.9316C102.345 33.5273 104.437 31.8574 104.586 30.1172H99.8047V28.5703H111.617ZM127.297 27.6738V43.5645H125.328V27.6738H127.297ZM122.551 29.3613C122.551 34.0898 120.723 38.1152 115.15 40.752L114.131 39.1875C118.288 37.21 120.222 34.5205 120.564 30.9082H114.939V29.3613H122.551ZM144.084 34.8809V36.3574H129.564V34.8809H144.084ZM142.326 37.3066V40.9277H133.221V42.0352H142.801V43.3887H131.27V39.6621H140.393V38.6777H131.252V37.3066H142.326ZM142.291 28.0254V31.6113H133.344V32.6484H142.572V33.9844H131.41V30.3457H140.34V29.3789H131.357V28.0254H142.291ZM163.121 27.6738V43.5645H161.24V27.6738H163.121ZM159.904 27.9551V42.791H158.059V37.7812H155.984C155.396 39.3457 154.341 40.2334 152.996 40.2246C150.922 40.2422 149.568 38.0449 149.568 34.5469C149.568 31.0488 150.922 28.8867 152.996 28.8867C154.341 28.8867 155.387 29.7656 155.984 31.3125H158.059V27.9551H159.904ZM152.996 30.7324C151.959 30.7148 151.344 32.0684 151.361 34.5469C151.344 37.0254 151.959 38.3789 152.996 38.3613C154.051 38.3789 154.701 37.0254 154.701 34.5469C154.701 32.0684 154.051 30.7148 152.996 30.7324ZM156.371 32.8945C156.45 33.4043 156.494 33.958 156.494 34.5469C156.494 35.127 156.45 35.6719 156.389 36.1816H158.059V32.8945H156.371ZM179.451 35.6016V37.166H164.967V35.6016H179.451ZM177.676 38.5371V43.5645H175.725V40.084H166.566V38.5371H177.676ZM173.158 27.709V29.2031H178.027V30.7324H173.299C173.51 32.0859 175.373 33.1934 178.73 33.4219L178.115 34.916C175.285 34.6787 173.185 33.791 172.191 32.4023C171.198 33.791 169.089 34.6787 166.268 34.916L165.652 33.4219C168.975 33.1934 170.855 32.0859 171.084 30.7324H166.391V29.2031H171.225V27.709H173.158ZM188.275 30.2051V31.7695H180.488V30.2051H183.441V28.1309H185.375V30.2051H188.275ZM184.408 32.6133C186.43 32.6133 187.871 34.1426 187.871 36.3047C187.871 38.502 186.43 40.0488 184.408 40.0488C182.404 40.0488 180.928 38.502 180.945 36.3047C180.928 34.1426 182.404 32.6133 184.408 32.6133ZM184.408 34.2305C183.371 34.2305 182.65 35.0566 182.668 36.3047C182.65 37.5879 183.371 38.3965 184.408 38.3789C185.428 38.3965 186.148 37.5879 186.148 36.3047C186.148 35.0566 185.428 34.2305 184.408 34.2305ZM194.182 27.6738V43.5645H192.318V35.7949H190.771V42.8438H188.943V28.0078H190.771V34.2129H192.318V27.6738H194.182ZM213.254 35.127V36.6914H202.109V29.0625H213.131V30.6445H204.043V35.127H213.254ZM214.871 39.9258V41.543H200.352V39.9258H214.871ZM229.215 27.6738V43.582H227.264V37.0605H224.363V35.4609H227.264V32.7363H224.416V31.1367H227.264V27.6738H229.215ZM223.52 29.0449V34.9863H218.422V38.3613C220.522 38.3438 222.351 38.2559 224.486 37.9395L224.645 39.5391C222.201 39.9258 220.18 39.9785 217.719 39.9785H216.488V33.457H221.604V30.6094H216.436V29.0449H223.52ZM245.984 40.0312V41.6309H231.465V40.0312H234.822V36.0059C233.557 35.2852 232.792 34.1514 232.801 32.7363C232.783 30.2051 235.279 28.5352 238.689 28.5352C242.117 28.5352 244.613 30.2051 244.613 32.7363C244.613 34.125 243.875 35.2412 242.645 35.9707V40.0312H245.984ZM238.689 30.082C236.316 30.082 234.699 31.084 234.717 32.7363C234.699 34.3711 236.316 35.3906 238.689 35.3906C241.062 35.3906 242.697 34.3711 242.697 32.7363C242.697 31.084 241.062 30.082 238.689 30.082ZM236.756 40.0312H240.658V36.709C240.052 36.8496 239.393 36.9199 238.689 36.9199C238.004 36.9199 237.354 36.8496 236.756 36.7266V40.0312Z" fill="#222222"/>
<path d="M29.4219 246.328V251.75H31.6719V252.969H29.4219V260.359H27.9375V246.328H29.4219ZM25.6562 247.672V248.875H20.5938V255.641C22.9453 255.633 24.7109 255.531 26.7031 255.172L26.8906 256.422C24.7031 256.812 22.8438 256.891 20.2344 256.875H19.1094V247.672H25.6562ZM38.7188 246.625C41.7969 246.625 43.7188 247.625 43.7188 249.312C43.7188 250.969 41.7969 251.953 38.7188 251.953C35.6562 251.953 33.7188 250.969 33.7188 249.312C33.7188 247.625 35.6562 246.625 38.7188 246.625ZM38.7188 247.797C36.5625 247.797 35.2344 248.344 35.25 249.312C35.2344 250.25 36.5625 250.781 38.7188 250.797C40.8594 250.781 42.1875 250.25 42.1875 249.312C42.1875 248.344 40.8594 247.797 38.7188 247.797ZM43.5469 255.484V260.156H33.875V255.484H43.5469ZM35.3438 256.672V258.953H42.1094V256.672H35.3438ZM45.1094 253.031V254.234H32.3438V253.031H45.1094ZM53.0156 247.109V248.297H48.2344V251.703C50.875 251.711 52.4688 251.594 54.2812 251.234L54.4531 252.406C52.5156 252.828 50.8125 252.891 47.875 252.891H46.7656V247.109H53.0156ZM57.1719 246.328V249.188H59.2031V250.406H57.1719V253.359H55.6875V246.328H57.1719ZM57.1719 254.016V257.594H49.6094V258.953H57.6562V260.156H48.1562V256.453H55.7031V255.203H48.125V254.016H57.1719ZM76.6719 254.219V255.422H70.9844V260.312H69.5312V255.422H63.9062V254.219H76.6719ZM75.4688 247.156V248.344H71.1406C71.1641 250.078 73.3203 251.625 75.9688 251.984L75.4219 253.156C73.125 252.797 71.1406 251.664 70.2969 250.062C69.4297 251.664 67.4531 252.797 65.1875 253.156L64.625 251.984C67.2422 251.625 69.3984 250.078 69.4531 248.344H65.0938V247.156H75.4688ZM89.375 246.328V260.328H87.875V246.328H89.375ZM85.2031 247.828C85.2031 251.922 83.4531 255.484 78.6562 257.781L77.875 256.578C81.6016 254.805 83.4141 252.281 83.7031 249.016H78.5469V247.828H85.2031ZM102.906 252.781V253.969H98.6719V257.391H104.375V258.609H91.5625V257.391H97.2031V253.969H93.1562V247.406H102.781V248.609H94.6406V252.781H102.906ZM120.312 246.344V250.5H122.312V251.719H120.312V255.766H118.828V246.344H120.312ZM109.203 254.203C110.289 254.203 111.547 254.203 112.859 254.156V253.219C111.266 253.055 110.25 252.305 110.266 251.172C110.25 249.891 111.578 249.094 113.594 249.109C115.594 249.094 116.922 249.891 116.922 251.172C116.922 252.297 115.922 253.047 114.344 253.219V254.109C115.594 254.047 116.859 253.945 118.031 253.781L118.156 254.844C115.141 255.375 111.828 255.391 109.359 255.391L109.203 254.203ZM120.312 256.422V260.328H118.828V257.578H110.953V256.422H120.312ZM117.641 247.531V248.641H109.562V247.531H112.859V246.219H114.344V247.531H117.641ZM113.594 250.125C112.391 250.109 111.672 250.5 111.672 251.172C111.672 251.828 112.391 252.25 113.594 252.25C114.781 252.25 115.5 251.828 115.5 251.172C115.5 250.5 114.781 250.109 113.594 250.125ZM134.734 246.344V256.516H133.25V246.344H134.734ZM135.156 258.828V260.031H125.578V255.484H127.078V258.828H135.156ZM127.141 247.281C129.25 247.281 130.859 248.719 130.859 250.75C130.859 252.812 129.25 254.234 127.141 254.234C125.031 254.234 123.406 252.812 123.406 250.75C123.406 248.719 125.031 247.281 127.141 247.281ZM127.141 248.578C125.828 248.578 124.859 249.469 124.859 250.75C124.859 252.062 125.828 252.938 127.141 252.938C128.422 252.938 129.406 252.062 129.406 250.75C129.406 249.469 128.422 248.578 127.141 248.578ZM143.875 248.641V249.844H136.922V248.641H139.672V246.734H141.141V248.641H143.875ZM140.406 250.688C142.188 250.688 143.438 252.016 143.453 253.906C143.438 255.812 142.188 257.156 140.406 257.156C138.656 257.156 137.359 255.812 137.375 253.906C137.359 252.016 138.656 250.688 140.406 250.688ZM140.406 251.922C139.391 251.922 138.688 252.75 138.688 253.906C138.688 255.094 139.391 255.891 140.406 255.891C141.406 255.891 142.141 255.094 142.141 253.906C142.141 252.75 141.406 251.922 140.406 251.922ZM148.938 246.328V260.328H147.531V253.375H145.922V259.672H144.516V246.641H145.922V252.156H147.531V246.328H148.938ZM167.5 257.359V258.594H154.688V257.359H160.328V254.484H156.156V247.281H157.641V249.688H164.516V247.281H165.984V254.484H161.797V257.359H167.5ZM157.641 253.281H164.516V250.891H157.641V253.281ZM172.781 250.156C172.781 252.391 173.719 254.781 175.594 255.922L174.766 257.062C173.453 256.273 172.562 254.875 172.094 253.25C171.57 255.031 170.609 256.547 169.25 257.375L168.328 256.266C170.312 255.078 171.344 252.609 171.344 250.219V247.609H172.781V250.156ZM180.562 246.328V260.328H179.141V246.328H180.562ZM177.656 246.594V259.641H176.25V252.484H174.078V251.25H176.25V246.594H177.656ZM195.156 257.344V258.578H182.344V257.344H185.406V253.688C184.258 253.055 183.562 252.047 183.562 250.797C183.562 248.594 185.719 247.141 188.719 247.141C191.734 247.141 193.891 248.594 193.891 250.797C193.891 252.031 193.219 253.023 192.094 253.656V257.344H195.156ZM188.719 248.328C186.516 248.328 185 249.281 185 250.797C185 252.297 186.516 253.281 188.719 253.281C190.906 253.281 192.453 252.297 192.453 250.797C192.453 249.281 190.906 248.328 188.719 248.328ZM186.875 257.344H190.594V254.219C190.023 254.367 189.391 254.438 188.719 254.438C188.062 254.438 187.438 254.367 186.875 254.234V257.344Z" fill="#656565"/>
<rect x="238" y="115" width="74" height="26" rx="13" fill="#89CA35"/>
<path d="M22.9727 318.516V327H21.6719V319.805H21.625L19.5977 321.129V319.898L21.707 318.516H22.9727ZM28.082 327.117C26.1133 327.117 24.9648 325.535 24.9648 322.758C24.9648 320.004 26.1367 318.398 28.082 318.398C30.0273 318.398 31.1992 320.004 31.1992 322.758C31.1992 325.535 30.0391 327.117 28.082 327.117ZM28.082 326.004C29.2305 326.004 29.9102 324.879 29.9102 322.758C29.9102 320.648 29.2188 319.488 28.082 319.488C26.9453 319.488 26.2539 320.648 26.2539 322.758C26.2539 324.879 26.9336 326.004 28.082 326.004ZM40.9023 317.508V323.66H39.7891V323.156H37.7383V322.453H39.7891V317.508H40.9023ZM32.1484 321.375C34.1758 321.387 36.7539 321.363 39.0156 321.117L39.0742 321.832C38.084 321.967 37.0586 322.049 36.0508 322.102V323.684H34.9492V322.148C34 322.172 33.0977 322.178 32.2773 322.172L32.1484 321.375ZM40.9023 324.012V326.273H34.8555V327.082H41.2188V327.891H33.7656V325.535H39.8008V324.785H33.7188V324.012H40.9023ZM35.5586 317.684C37.1172 317.684 38.1719 318.305 38.1836 319.266C38.1719 320.25 37.1172 320.836 35.5586 320.836C33.9648 320.836 32.9219 320.25 32.9336 319.266C32.9219 318.305 33.9648 317.684 35.5586 317.684ZM35.5586 318.434C34.5859 318.434 33.9766 318.762 33.9766 319.266C33.9766 319.77 34.5859 320.086 35.5586 320.086C36.5078 320.086 37.1289 319.77 37.1289 319.266C37.1289 318.762 36.5078 318.434 35.5586 318.434ZM49.0586 318.516V327H47.7578V319.805H47.7109L45.6836 321.129V319.898L47.793 318.516H49.0586ZM54.2852 327.117C52.7148 327.105 51.0742 326.18 51.0742 323.039C51.0742 320.086 52.3516 318.398 54.3906 318.398C55.9492 318.398 57.0391 319.371 57.2383 320.719H55.9609C55.7969 320.027 55.2461 319.523 54.3906 319.523C53.0781 319.523 52.3164 320.672 52.3164 322.582H52.4102C52.8672 321.867 53.6641 321.434 54.5898 321.434C56.1016 321.434 57.3203 322.594 57.3203 324.223C57.3203 325.863 56.1133 327.129 54.2852 327.117ZM54.2734 326.039C55.3047 326.039 56.0664 325.242 56.0664 324.246C56.0664 323.273 55.3281 322.488 54.3086 322.488C53.2656 322.488 52.4805 323.309 52.4688 324.258C52.4805 325.195 53.2305 326.039 54.2734 326.039ZM61.3047 317.848C62.8867 317.859 64.0469 318.832 64.0586 320.203C64.0469 321.586 62.8867 322.547 61.3047 322.547C59.7109 322.547 58.5391 321.586 58.5391 320.203C58.5391 318.832 59.7109 317.859 61.3047 317.848ZM61.3047 318.785C60.332 318.773 59.6172 319.348 59.6289 320.203C59.6172 321.07 60.332 321.645 61.3047 321.645C62.2656 321.645 62.9805 321.07 62.9805 320.203C62.9805 319.348 62.2656 318.773 61.3047 318.785ZM67.0352 317.496V322.84H65.9219V317.496H67.0352ZM67.0352 323.32V325.969H61.2461V326.977H67.3867V327.867H60.168V325.137H65.9336V324.211H60.1328V323.32H67.0352Z" fill="#ABABAB"/>
<path d="M133.973 318.516V327H132.672V319.805H132.625L130.598 321.129V319.898L132.707 318.516H133.973ZM139.082 327.117C137.113 327.117 135.965 325.535 135.965 322.758C135.965 320.004 137.137 318.398 139.082 318.398C141.027 318.398 142.199 320.004 142.199 322.758C142.199 325.535 141.039 327.117 139.082 327.117ZM139.082 326.004C140.23 326.004 140.91 324.879 140.91 322.758C140.91 320.648 140.219 319.488 139.082 319.488C137.945 319.488 137.254 320.648 137.254 322.758C137.254 324.879 137.934 326.004 139.082 326.004ZM151.902 317.508V323.66H150.789V323.156H148.738V322.453H150.789V317.508H151.902ZM143.148 321.375C145.176 321.387 147.754 321.363 150.016 321.117L150.074 321.832C149.084 321.967 148.059 322.049 147.051 322.102V323.684H145.949V322.148C145 322.172 144.098 322.178 143.277 322.172L143.148 321.375ZM151.902 324.012V326.273H145.855V327.082H152.219V327.891H144.766V325.535H150.801V324.785H144.719V324.012H151.902ZM146.559 317.684C148.117 317.684 149.172 318.305 149.184 319.266C149.172 320.25 148.117 320.836 146.559 320.836C144.965 320.836 143.922 320.25 143.934 319.266C143.922 318.305 144.965 317.684 146.559 317.684ZM146.559 318.434C145.586 318.434 144.977 318.762 144.977 319.266C144.977 319.77 145.586 320.086 146.559 320.086C147.508 320.086 148.129 319.77 148.129 319.266C148.129 318.762 147.508 318.434 146.559 318.434ZM156.836 327V326.062L159.777 323.098C160.703 322.125 161.172 321.586 161.172 320.848C161.172 320.016 160.492 319.477 159.602 319.477C158.664 319.477 158.055 320.074 158.055 320.977H156.836C156.824 319.43 158.008 318.398 159.625 318.398C161.266 318.398 162.391 319.43 162.402 320.812C162.391 321.762 161.945 322.512 160.352 324.082L158.629 325.828V325.898H162.543V327H156.836ZM166.926 327.117C164.957 327.117 163.809 325.535 163.809 322.758C163.809 320.004 164.98 318.398 166.926 318.398C168.871 318.398 170.043 320.004 170.043 322.758C170.043 325.535 168.883 327.117 166.926 327.117ZM166.926 326.004C168.074 326.004 168.754 324.879 168.754 322.758C168.754 320.648 168.062 319.488 166.926 319.488C165.789 319.488 165.098 320.648 165.098 322.758C165.098 324.879 165.777 326.004 166.926 326.004ZM176.922 317.848C178.504 317.859 179.664 318.832 179.676 320.203C179.664 321.586 178.504 322.547 176.922 322.547C175.328 322.547 174.156 321.586 174.156 320.203C174.156 318.832 175.328 317.859 176.922 317.848ZM176.922 318.785C175.949 318.773 175.234 319.348 175.246 320.203C175.234 321.07 175.949 321.645 176.922 321.645C177.883 321.645 178.598 321.07 178.598 320.203C178.598 319.348 177.883 318.773 176.922 318.785ZM182.652 317.496V322.84H181.539V317.496H182.652ZM182.652 323.32V325.969H176.863V326.977H183.004V327.867H175.785V325.137H181.551V324.211H175.75V323.32H182.652Z" fill="#ABABAB"/>
<path d="M252.973 317.516V326H251.672V318.805H251.625L249.598 320.129V318.898L251.707 317.516H252.973ZM258.082 326.117C256.113 326.117 254.965 324.535 254.965 321.758C254.965 319.004 256.137 317.398 258.082 317.398C260.027 317.398 261.199 319.004 261.199 321.758C261.199 324.535 260.039 326.117 258.082 326.117ZM258.082 325.004C259.23 325.004 259.91 323.879 259.91 321.758C259.91 319.648 259.219 318.488 258.082 318.488C256.945 318.488 256.254 319.648 256.254 321.758C256.254 323.879 256.934 325.004 258.082 325.004ZM270.902 316.508V322.66H269.789V322.156H267.738V321.453H269.789V316.508H270.902ZM262.148 320.375C264.176 320.387 266.754 320.363 269.016 320.117L269.074 320.832C268.084 320.967 267.059 321.049 266.051 321.102V322.684H264.949V321.148C264 321.172 263.098 321.178 262.277 321.172L262.148 320.375ZM270.902 323.012V325.273H264.855V326.082H271.219V326.891H263.766V324.535H269.801V323.785H263.719V323.012H270.902ZM265.559 316.684C267.117 316.684 268.172 317.305 268.184 318.266C268.172 319.25 267.117 319.836 265.559 319.836C263.965 319.836 262.922 319.25 262.934 318.266C262.922 317.305 263.965 316.684 265.559 316.684ZM265.559 317.434C264.586 317.434 263.977 317.762 263.977 318.266C263.977 318.77 264.586 319.086 265.559 319.086C266.508 319.086 267.129 318.77 267.129 318.266C267.129 317.762 266.508 317.434 265.559 317.434ZM278.848 326.117C277.09 326.117 275.836 325.168 275.789 323.785H277.102C277.148 324.535 277.887 325.004 278.836 325.004C279.855 325.004 280.605 324.441 280.605 323.621C280.605 322.789 279.902 322.18 278.695 322.18H277.969V321.125H278.695C279.656 321.125 280.336 320.586 280.336 319.777C280.336 319.004 279.762 318.477 278.859 318.477C278.004 318.477 277.254 318.945 277.219 319.719H275.977C276.012 318.336 277.289 317.398 278.871 317.398C280.535 317.398 281.59 318.453 281.578 319.707C281.59 320.668 280.992 321.371 280.078 321.594V321.652C281.238 321.816 281.906 322.59 281.906 323.668C281.906 325.086 280.605 326.117 278.848 326.117ZM286.277 326.117C284.309 326.117 283.16 324.535 283.16 321.758C283.16 319.004 284.332 317.398 286.277 317.398C288.223 317.398 289.395 319.004 289.395 321.758C289.395 324.535 288.234 326.117 286.277 326.117ZM286.277 325.004C287.426 325.004 288.105 323.879 288.105 321.758C288.105 319.648 287.414 318.488 286.277 318.488C285.141 318.488 284.449 319.648 284.449 321.758C284.449 323.879 285.129 325.004 286.277 325.004ZM293.344 316.848C294.926 316.859 296.086 317.832 296.098 319.203C296.086 320.586 294.926 321.547 293.344 321.547C291.75 321.547 290.578 320.586 290.578 319.203C290.578 317.832 291.75 316.859 293.344 316.848ZM293.344 317.785C292.371 317.773 291.656 318.348 291.668 319.203C291.656 320.07 292.371 320.645 293.344 320.645C294.305 320.645 295.02 320.07 295.02 319.203C295.02 318.348 294.305 317.773 293.344 317.785ZM299.074 316.496V321.84H297.961V316.496H299.074ZM299.074 322.32V324.969H293.285V325.977H299.426V326.867H292.207V324.137H297.973V323.211H292.172V322.32H299.074Z" fill="#ABABAB"/>
<path d="M30.5312 293.266V298.781H32.625V300.234H30.5312V307.359H28.7969V293.266H30.5312ZM26.7969 294.734C26.7969 298.891 25.0781 302.531 20.375 304.844L19.3906 303.5C22.8281 301.789 24.6875 299.383 25.0469 296.172H20.1562V294.734H26.7969ZM45.0625 293.281V301.281H43.3125V293.281H45.0625ZM45.0625 301.969V307.219H35.6875V301.969H45.0625ZM37.4062 303.344V305.812H43.3594V303.344H37.4062ZM37.3594 293.953C39.5312 293.953 41.1562 295.328 41.1562 297.328C41.1562 299.266 39.5312 300.672 37.3594 300.672C35.1719 300.672 33.5469 299.266 33.5469 297.328C33.5469 295.328 35.1719 293.953 37.3594 293.953ZM37.3594 295.422C36.125 295.422 35.2344 296.156 35.25 297.328C35.2344 298.469 36.125 299.203 37.3594 299.203C38.5781 299.203 39.4531 298.469 39.4531 297.328C39.4531 296.156 38.5781 295.422 37.3594 295.422ZM63.1094 293.266V307.391H61.4375V293.266H63.1094ZM60.25 293.516V306.703H58.6094V302.25H56.7656C56.2422 303.641 55.3047 304.43 54.1094 304.422C52.2656 304.438 51.0625 302.484 51.0625 299.375C51.0625 296.266 52.2656 294.344 54.1094 294.344C55.3047 294.344 56.2344 295.125 56.7656 296.5H58.6094V293.516H60.25ZM54.1094 295.984C53.1875 295.969 52.6406 297.172 52.6562 299.375C52.6406 301.578 53.1875 302.781 54.1094 302.766C55.0469 302.781 55.625 301.578 55.625 299.375C55.625 297.172 55.0469 295.969 54.1094 295.984ZM57.1094 297.906C57.1797 298.359 57.2188 298.852 57.2188 299.375C57.2188 299.891 57.1797 300.375 57.125 300.828H58.6094V297.906H57.1094ZM76.5781 293.266V301.656H74.8438V298.203H72.4375V296.781H74.8438V293.266H76.5781ZM71.7969 302.016C74.7969 302.016 76.625 303 76.625 304.703C76.625 306.406 74.7969 307.391 71.7969 307.391C68.8125 307.391 66.9844 306.406 67 304.703C66.9844 303 68.8125 302.016 71.7969 302.016ZM71.7969 303.344C69.8281 303.344 68.7188 303.812 68.7188 304.703C68.7188 305.578 69.8281 306.047 71.7969 306.047C73.7656 306.047 74.8906 305.578 74.8906 304.703C74.8906 303.812 73.7656 303.344 71.7969 303.344ZM69.9375 295.688C69.9375 297.406 71.0781 299.141 73.2656 299.875L72.3906 301.25C70.8203 300.719 69.7031 299.641 69.0938 298.312C68.4688 299.82 67.2891 301.023 65.6094 301.625L64.7031 300.25C66.9688 299.469 68.1719 297.562 68.1719 295.703V295.594H65.2344V294.188H72.8594V295.594H69.9375V295.688ZM82.5781 293.719C84.7188 293.719 86.3125 295.047 86.3281 296.906C86.3125 298.781 84.7188 300.094 82.5781 300.094C80.4219 300.094 78.8281 298.781 78.8281 296.906C78.8281 295.047 80.4219 293.719 82.5781 293.719ZM82.5781 295.156C81.3906 295.156 80.5156 295.828 80.5156 296.906C80.5156 298 81.3906 298.688 82.5781 298.688C83.7656 298.688 84.6406 298 84.6406 296.906C84.6406 295.828 83.7656 295.156 82.5781 295.156ZM90.3438 293.266V300.406H88.5938V293.266H90.3438ZM90.3438 301.016V304.703H82.7031V305.844H90.7656V307.219H81V303.422H88.6094V302.375H80.9688V301.016H90.3438Z" fill="#656565"/>
<path d="M132.547 294.562V297.828H134.844V294.562H136.453V303.969H130.906V294.562H132.547ZM132.547 302.562H134.844V299.203H132.547V302.562ZM142.656 293.266V307.391H140.984V300.156H139.484V306.703H137.844V293.516H139.484V298.719H140.984V293.266H142.656ZM155.438 293.281V297.438H157.422V298.891H155.438V303.672H153.703V293.281H155.438ZM156.016 305.703V307.109H146.453V302.844H148.219V305.703H156.016ZM151.281 294.156V298.453H146.578V300.188C148.977 300.172 150.617 300.07 152.547 299.734L152.734 301.156C150.625 301.531 148.797 301.594 146 301.594H144.844V297.141H149.578V295.578H144.828V294.156H151.281ZM174.109 293.266V307.391H172.438V293.266H174.109ZM171.25 293.516V306.703H169.609V302.25H167.766C167.242 303.641 166.305 304.43 165.109 304.422C163.266 304.438 162.062 302.484 162.062 299.375C162.062 296.266 163.266 294.344 165.109 294.344C166.305 294.344 167.234 295.125 167.766 296.5H169.609V293.516H171.25ZM165.109 295.984C164.188 295.969 163.641 297.172 163.656 299.375C163.641 301.578 164.188 302.781 165.109 302.766C166.047 302.781 166.625 301.578 166.625 299.375C166.625 297.172 166.047 295.969 165.109 295.984ZM168.109 297.906C168.18 298.359 168.219 298.852 168.219 299.375C168.219 299.891 168.18 300.375 168.125 300.828H169.609V297.906H168.109ZM187.578 293.266V301.656H185.844V298.203H183.438V296.781H185.844V293.266H187.578ZM182.797 302.016C185.797 302.016 187.625 303 187.625 304.703C187.625 306.406 185.797 307.391 182.797 307.391C179.812 307.391 177.984 306.406 178 304.703C177.984 303 179.812 302.016 182.797 302.016ZM182.797 303.344C180.828 303.344 179.719 303.812 179.719 304.703C179.719 305.578 180.828 306.047 182.797 306.047C184.766 306.047 185.891 305.578 185.891 304.703C185.891 303.812 184.766 303.344 182.797 303.344ZM180.938 295.688C180.938 297.406 182.078 299.141 184.266 299.875L183.391 301.25C181.82 300.719 180.703 299.641 180.094 298.312C179.469 299.82 178.289 301.023 176.609 301.625L175.703 300.25C177.969 299.469 179.172 297.562 179.172 295.703V295.594H176.234V294.188H183.859V295.594H180.938V295.688ZM193.578 293.719C195.719 293.719 197.312 295.047 197.328 296.906C197.312 298.781 195.719 300.094 193.578 300.094C191.422 300.094 189.828 298.781 189.828 296.906C189.828 295.047 191.422 293.719 193.578 293.719ZM193.578 295.156C192.391 295.156 191.516 295.828 191.516 296.906C191.516 298 192.391 298.688 193.578 298.688C194.766 298.688 195.641 298 195.641 296.906C195.641 295.828 194.766 295.156 193.578 295.156ZM201.344 293.266V300.406H199.594V293.266H201.344ZM201.344 301.016V304.703H193.703V305.844H201.766V307.219H192V303.422H199.609V302.375H191.969V301.016H201.344Z" fill="#656565"/>
<path d="M253.875 295.891C253.875 297.422 254.766 298.953 256.625 299.656L255.703 300.984C254.445 300.5 253.57 299.602 253.062 298.5C252.547 299.766 251.625 300.844 250.281 301.406L249.344 300.078C251.281 299.219 252.188 297.453 252.203 295.891V294.141H253.875V295.891ZM261.547 293.281V301.938H259.891V298.266H258.484V301.5H256.859V293.547H258.484V296.844H259.891V293.281H261.547ZM256.781 302.172C259.734 302.172 261.609 303.141 261.625 304.766C261.609 306.391 259.734 307.375 256.781 307.375C253.797 307.375 251.938 306.391 251.938 304.766C251.938 303.141 253.797 302.172 256.781 302.172ZM256.781 303.484C254.828 303.484 253.672 303.938 253.672 304.766C253.672 305.609 254.828 306.047 256.781 306.047C258.719 306.047 259.875 305.609 259.875 304.766C259.875 303.938 258.719 303.484 256.781 303.484ZM275.062 293.266V307.406H273.344V293.266H275.062ZM270.719 294.5V299.797H265.859V302.641C268.086 302.625 270.008 302.516 272.203 302.141L272.359 303.562C269.953 303.984 267.844 304.062 265.312 304.062H264.078V298.422H268.953V295.906H264.062V294.5H270.719ZM293.109 293.266V307.391H291.438V293.266H293.109ZM290.25 293.516V306.703H288.609V302.25H286.766C286.242 303.641 285.305 304.43 284.109 304.422C282.266 304.438 281.062 302.484 281.062 299.375C281.062 296.266 282.266 294.344 284.109 294.344C285.305 294.344 286.234 295.125 286.766 296.5H288.609V293.516H290.25ZM284.109 295.984C283.188 295.969 282.641 297.172 282.656 299.375C282.641 301.578 283.188 302.781 284.109 302.766C285.047 302.781 285.625 301.578 285.625 299.375C285.625 297.172 285.047 295.969 284.109 295.984ZM287.109 297.906C287.18 298.359 287.219 298.852 287.219 299.375C287.219 299.891 287.18 300.375 287.125 300.828H288.609V297.906H287.109ZM306.578 293.266V301.656H304.844V298.203H302.438V296.781H304.844V293.266H306.578ZM301.797 302.016C304.797 302.016 306.625 303 306.625 304.703C306.625 306.406 304.797 307.391 301.797 307.391C298.812 307.391 296.984 306.406 297 304.703C296.984 303 298.812 302.016 301.797 302.016ZM301.797 303.344C299.828 303.344 298.719 303.812 298.719 304.703C298.719 305.578 299.828 306.047 301.797 306.047C303.766 306.047 304.891 305.578 304.891 304.703C304.891 303.812 303.766 303.344 301.797 303.344ZM299.938 295.688C299.938 297.406 301.078 299.141 303.266 299.875L302.391 301.25C300.82 300.719 299.703 299.641 299.094 298.312C298.469 299.82 297.289 301.023 295.609 301.625L294.703 300.25C296.969 299.469 298.172 297.562 298.172 295.703V295.594H295.234V294.188H302.859V295.594H299.938V295.688ZM312.578 293.719C314.719 293.719 316.312 295.047 316.328 296.906C316.312 298.781 314.719 300.094 312.578 300.094C310.422 300.094 308.828 298.781 308.828 296.906C308.828 295.047 310.422 293.719 312.578 293.719ZM312.578 295.156C311.391 295.156 310.516 295.828 310.516 296.906C310.516 298 311.391 298.688 312.578 298.688C313.766 298.688 314.641 298 314.641 296.906C314.641 295.828 313.766 295.156 312.578 295.156ZM320.344 293.266V300.406H318.594V293.266H320.344ZM320.344 301.016V304.703H312.703V305.844H320.766V307.219H311V303.422H318.609V302.375H310.969V301.016H320.344Z" fill="#656565"/>
<path d="M40.1445 371V362.516H42.9805C43.8086 362.516 44.5215 362.686 45.1191 363.025C45.7207 363.361 46.1797 363.848 46.4961 364.484C46.8164 365.117 46.9766 365.871 46.9766 366.746C46.9766 367.625 46.8145 368.385 46.4902 369.025C46.1699 369.662 45.7031 370.15 45.0898 370.49C44.4805 370.83 43.75 371 42.8984 371H40.1445ZM42.8281 369.875C43.7773 369.875 44.4922 369.607 44.9727 369.072C45.457 368.533 45.6992 367.758 45.6992 366.746C45.6992 365.742 45.4609 364.975 44.9844 364.443C44.5117 363.908 43.8164 363.641 42.8984 363.641H41.4336V369.875H42.8281ZM52.0742 367.953H48.3125V366.875H52.0742V367.953ZM55.9648 371.129C55.4531 371.129 54.9961 370.996 54.5938 370.73C54.1914 370.465 53.875 370.084 53.6445 369.588C53.418 369.088 53.3047 368.504 53.3047 367.836C53.3047 367.16 53.418 366.576 53.6445 366.084C53.875 365.588 54.1914 365.209 54.5938 364.947C55 364.686 55.4609 364.555 55.9766 364.555C56.3398 364.555 56.6426 364.615 56.8848 364.736C57.1309 364.854 57.3203 364.99 57.4531 365.146C57.5898 365.303 57.7109 365.477 57.8164 365.668H57.875V362.516H59.1289V371H57.9102V370.004H57.8164C57.6445 370.316 57.4199 370.582 57.1426 370.801C56.8652 371.02 56.4727 371.129 55.9648 371.129ZM56.2461 370.062C56.5938 370.062 56.8926 369.969 57.1426 369.781C57.3926 369.594 57.582 369.33 57.7109 368.99C57.8438 368.65 57.9102 368.258 57.9102 367.812C57.9102 367.367 57.8457 366.98 57.7168 366.652C57.5879 366.324 57.3984 366.07 57.1484 365.891C56.8984 365.711 56.5977 365.621 56.2461 365.621C55.8867 365.621 55.582 365.715 55.332 365.902C55.082 366.09 54.8945 366.35 54.7695 366.682C54.6445 367.01 54.582 367.387 54.582 367.812C54.582 368.246 54.6445 368.633 54.7695 368.973C54.8984 369.312 55.0879 369.58 55.3379 369.775C55.5918 369.967 55.8945 370.062 56.2461 370.062ZM60.4648 369.207C60.4648 368.547 60.6875 368.076 61.1328 367.795C61.5781 367.514 62.1484 367.348 62.8438 367.297C63.1094 367.277 63.3984 367.26 63.7109 367.244C64.0273 367.225 64.2949 367.211 64.5137 367.203L64.5078 366.699C64.5078 366.336 64.3984 366.057 64.1797 365.861C63.9609 365.662 63.6406 365.562 63.2188 365.562C62.8633 365.562 62.5723 365.637 62.3457 365.785C62.1191 365.93 61.9727 366.125 61.9062 366.371H60.6641C60.7031 366.02 60.834 365.707 61.0566 365.434C61.2793 365.156 61.5801 364.941 61.959 364.789C62.3418 364.633 62.7773 364.555 63.2656 364.555C63.668 364.555 64.0547 364.617 64.4258 364.742C64.8008 364.867 65.1172 365.094 65.375 365.422C65.6328 365.75 65.7617 366.199 65.7617 366.77V371H64.543V370.133H64.4961C64.3516 370.414 64.1211 370.652 63.8047 370.848C63.4922 371.043 63.0938 371.141 62.6094 371.141C62.2031 371.141 61.8379 371.064 61.5137 370.912C61.1895 370.76 60.9336 370.539 60.7461 370.25C60.5586 369.957 60.4648 369.609 60.4648 369.207ZM61.6836 369.219C61.6836 369.516 61.793 369.744 62.0117 369.904C62.2344 370.064 62.5273 370.145 62.8906 370.145C63.2188 370.145 63.5059 370.08 63.752 369.951C63.998 369.818 64.1875 369.643 64.3203 369.424C64.4531 369.201 64.5195 368.961 64.5195 368.703L64.5137 368.123L63.0195 368.223C62.5938 368.254 62.2637 368.352 62.0293 368.516C61.7988 368.676 61.6836 368.91 61.6836 369.219ZM67.8125 373.391C67.5312 373.391 67.3086 373.379 67.1445 373.355V372.312C67.332 372.328 67.5195 372.336 67.707 372.336C67.8672 372.336 68 372.32 68.1055 372.289C68.2109 372.258 68.3145 372.182 68.416 372.061C68.5215 371.939 68.6211 371.754 68.7148 371.504L68.8672 371.082L66.5352 364.637H67.8711L69.4766 369.57H69.5469L71.1523 364.637H72.5L69.875 371.844C69.6914 372.355 69.4297 372.74 69.0898 372.998C68.7539 373.26 68.3281 373.391 67.8125 373.391Z" fill="#ABABAB"/>
<path d="M77.3477 369.164L82.3477 364.34C82.888 363.799 83.3047 363.357 83.5977 363.012C83.8971 362.66 84.125 362.315 84.2812 361.977C84.4375 361.632 84.5156 361.267 84.5156 360.883C84.5156 360.453 84.4115 360.076 84.2031 359.75C83.9948 359.424 83.7051 359.174 83.334 358.998C82.9694 358.822 82.556 358.734 82.0938 358.734C81.612 358.734 81.1888 358.832 80.8242 359.027C80.4661 359.216 80.1895 359.49 79.9941 359.848C79.7988 360.199 79.7044 360.609 79.7109 361.078H77.2891C77.2826 360.199 77.4844 359.428 77.8945 358.764C78.3047 358.093 78.8743 357.576 79.6035 357.211C80.3392 356.846 81.1758 356.664 82.1133 356.664C83.0638 356.664 83.9036 356.84 84.6328 357.191C85.3685 357.543 85.9382 358.031 86.3418 358.656C86.752 359.275 86.957 359.978 86.957 360.766C86.957 361.312 86.8496 361.84 86.6348 362.348C86.4264 362.855 86.0684 363.419 85.5605 364.037C85.0527 364.649 84.3333 365.395 83.4023 366.273L80.8828 368.773V368.871H87.1719V371H77.3477V369.164ZM94.6133 371.195C93.4805 371.195 92.5072 370.912 91.6934 370.346C90.8861 369.773 90.2643 368.943 89.8281 367.855C89.3984 366.768 89.1836 365.46 89.1836 363.93C89.1836 362.406 89.3984 361.101 89.8281 360.014C90.2643 358.92 90.8893 358.09 91.7031 357.523C92.5169 356.951 93.487 356.664 94.6133 356.664C95.7331 356.664 96.6999 356.951 97.5137 357.523C98.334 358.09 98.959 358.92 99.3887 360.014C99.8249 361.101 100.043 362.406 100.043 363.93C100.043 365.46 99.8249 366.768 99.3887 367.855C98.959 368.943 98.3372 369.773 97.5234 370.346C96.7161 370.912 95.7461 371.195 94.6133 371.195ZM94.6133 369.066C95.2122 369.066 95.7233 368.874 96.1465 368.49C96.5762 368.1 96.9049 367.523 97.1328 366.762C97.3672 365.993 97.4844 365.049 97.4844 363.93C97.4844 362.823 97.3672 361.885 97.1328 361.117C96.9049 360.342 96.5762 359.76 96.1465 359.369C95.7168 358.972 95.2057 358.773 94.6133 358.773C94.0208 358.773 93.5098 358.972 93.0801 359.369C92.6504 359.76 92.3184 360.342 92.084 361.117C91.8561 361.885 91.7422 362.823 91.7422 363.93C91.7422 365.049 91.8561 365.993 92.084 366.762C92.3184 367.523 92.6471 368.1 93.0703 368.49C93.5 368.874 94.0143 369.066 94.6133 369.066Z" fill="#FF7F00"/>
<path d="M156.574 371V362.516H159.41C160.238 362.516 160.951 362.686 161.549 363.025C162.15 363.361 162.609 363.848 162.926 364.484C163.246 365.117 163.406 365.871 163.406 366.746C163.406 367.625 163.244 368.385 162.92 369.025C162.6 369.662 162.133 370.15 161.52 370.49C160.91 370.83 160.18 371 159.328 371H156.574ZM159.258 369.875C160.207 369.875 160.922 369.607 161.402 369.072C161.887 368.533 162.129 367.758 162.129 366.746C162.129 365.742 161.891 364.975 161.414 364.443C160.941 363.908 160.246 363.641 159.328 363.641H157.863V369.875H159.258ZM168.504 367.953H164.742V366.875H168.504V367.953ZM172.395 371.129C171.883 371.129 171.426 370.996 171.023 370.73C170.621 370.465 170.305 370.084 170.074 369.588C169.848 369.088 169.734 368.504 169.734 367.836C169.734 367.16 169.848 366.576 170.074 366.084C170.305 365.588 170.621 365.209 171.023 364.947C171.43 364.686 171.891 364.555 172.406 364.555C172.77 364.555 173.072 364.615 173.314 364.736C173.561 364.854 173.75 364.99 173.883 365.146C174.02 365.303 174.141 365.477 174.246 365.668H174.305V362.516H175.559V371H174.34V370.004H174.246C174.074 370.316 173.85 370.582 173.572 370.801C173.295 371.02 172.902 371.129 172.395 371.129ZM172.676 370.062C173.023 370.062 173.322 369.969 173.572 369.781C173.822 369.594 174.012 369.33 174.141 368.99C174.273 368.65 174.34 368.258 174.34 367.812C174.34 367.367 174.275 366.98 174.146 366.652C174.018 366.324 173.828 366.07 173.578 365.891C173.328 365.711 173.027 365.621 172.676 365.621C172.316 365.621 172.012 365.715 171.762 365.902C171.512 366.09 171.324 366.35 171.199 366.682C171.074 367.01 171.012 367.387 171.012 367.812C171.012 368.246 171.074 368.633 171.199 368.973C171.328 369.312 171.518 369.58 171.768 369.775C172.021 369.967 172.324 370.062 172.676 370.062ZM176.895 369.207C176.895 368.547 177.117 368.076 177.562 367.795C178.008 367.514 178.578 367.348 179.273 367.297C179.539 367.277 179.828 367.26 180.141 367.244C180.457 367.225 180.725 367.211 180.943 367.203L180.938 366.699C180.938 366.336 180.828 366.057 180.609 365.861C180.391 365.662 180.07 365.562 179.648 365.562C179.293 365.562 179.002 365.637 178.775 365.785C178.549 365.93 178.402 366.125 178.336 366.371H177.094C177.133 366.02 177.264 365.707 177.486 365.434C177.709 365.156 178.01 364.941 178.389 364.789C178.771 364.633 179.207 364.555 179.695 364.555C180.098 364.555 180.484 364.617 180.855 364.742C181.23 364.867 181.547 365.094 181.805 365.422C182.062 365.75 182.191 366.199 182.191 366.77V371H180.973V370.133H180.926C180.781 370.414 180.551 370.652 180.234 370.848C179.922 371.043 179.523 371.141 179.039 371.141C178.633 371.141 178.268 371.064 177.943 370.912C177.619 370.76 177.363 370.539 177.176 370.25C176.988 369.957 176.895 369.609 176.895 369.207ZM178.113 369.219C178.113 369.516 178.223 369.744 178.441 369.904C178.664 370.064 178.957 370.145 179.32 370.145C179.648 370.145 179.936 370.08 180.182 369.951C180.428 369.818 180.617 369.643 180.75 369.424C180.883 369.201 180.949 368.961 180.949 368.703L180.943 368.123L179.449 368.223C179.023 368.254 178.693 368.352 178.459 368.516C178.229 368.676 178.113 368.91 178.113 369.219ZM184.242 373.391C183.961 373.391 183.738 373.379 183.574 373.355V372.312C183.762 372.328 183.949 372.336 184.137 372.336C184.297 372.336 184.43 372.32 184.535 372.289C184.641 372.258 184.744 372.182 184.846 372.061C184.951 371.939 185.051 371.754 185.145 371.504L185.297 371.082L182.965 364.637H184.301L185.906 369.57H185.977L187.582 364.637H188.93L186.305 371.844C186.121 372.355 185.859 372.74 185.52 372.998C185.184 373.26 184.758 373.391 184.242 373.391Z" fill="#ABABAB"/>
<path d="M193.777 369.164L198.777 364.34C199.318 363.799 199.734 363.357 200.027 363.012C200.327 362.66 200.555 362.315 200.711 361.977C200.867 361.632 200.945 361.267 200.945 360.883C200.945 360.453 200.841 360.076 200.633 359.75C200.424 359.424 200.135 359.174 199.764 358.998C199.399 358.822 198.986 358.734 198.523 358.734C198.042 358.734 197.618 358.832 197.254 359.027C196.896 359.216 196.619 359.49 196.424 359.848C196.229 360.199 196.134 360.609 196.141 361.078H193.719C193.712 360.199 193.914 359.428 194.324 358.764C194.734 358.093 195.304 357.576 196.033 357.211C196.769 356.846 197.605 356.664 198.543 356.664C199.493 356.664 200.333 356.84 201.062 357.191C201.798 357.543 202.368 358.031 202.771 358.656C203.182 359.275 203.387 359.978 203.387 360.766C203.387 361.312 203.279 361.84 203.064 362.348C202.856 362.855 202.498 363.419 201.99 364.037C201.482 364.649 200.763 365.395 199.832 366.273L197.312 368.773V368.871H203.602V371H193.777V369.164ZM210.848 371.195C209.917 371.195 209.077 371.023 208.328 370.678C207.579 370.333 206.987 369.857 206.551 369.252C206.121 368.64 205.893 367.947 205.867 367.172H208.348C208.374 367.549 208.497 367.888 208.719 368.188C208.947 368.487 209.246 368.721 209.617 368.891C209.995 369.06 210.405 369.145 210.848 369.145C211.368 369.145 211.834 369.027 212.244 368.793C212.661 368.559 212.983 368.236 213.211 367.826C213.445 367.41 213.562 366.944 213.562 366.43C213.562 365.896 213.442 365.421 213.201 365.004C212.96 364.581 212.628 364.252 212.205 364.018C211.782 363.777 211.303 363.656 210.77 363.656C209.65 363.637 208.868 364.04 208.426 364.867H206.062L206.922 356.859H215.281V358.988H209.012L208.582 362.738H208.719C208.999 362.419 209.383 362.162 209.871 361.967C210.359 361.765 210.887 361.664 211.453 361.664C212.319 361.664 213.1 361.866 213.797 362.27C214.493 362.673 215.037 363.233 215.428 363.949C215.825 364.659 216.023 365.46 216.023 366.352C216.023 367.283 215.802 368.116 215.359 368.852C214.923 369.587 214.311 370.163 213.523 370.58C212.742 370.99 211.85 371.195 210.848 371.195Z" fill="#FF7F00"/>
<path d="M266.281 371V362.516H269.117C269.945 362.516 270.658 362.686 271.256 363.025C271.857 363.361 272.316 363.848 272.633 364.484C272.953 365.117 273.113 365.871 273.113 366.746C273.113 367.625 272.951 368.385 272.627 369.025C272.307 369.662 271.84 370.15 271.227 370.49C270.617 370.83 269.887 371 269.035 371H266.281ZM268.965 369.875C269.914 369.875 270.629 369.607 271.109 369.072C271.594 368.533 271.836 367.758 271.836 366.746C271.836 365.742 271.598 364.975 271.121 364.443C270.648 363.908 269.953 363.641 269.035 363.641H267.57V369.875H268.965ZM278.211 367.953H274.449V366.875H278.211V367.953ZM282.102 371.129C281.59 371.129 281.133 370.996 280.73 370.73C280.328 370.465 280.012 370.084 279.781 369.588C279.555 369.088 279.441 368.504 279.441 367.836C279.441 367.16 279.555 366.576 279.781 366.084C280.012 365.588 280.328 365.209 280.73 364.947C281.137 364.686 281.598 364.555 282.113 364.555C282.477 364.555 282.779 364.615 283.021 364.736C283.268 364.854 283.457 364.99 283.59 365.146C283.727 365.303 283.848 365.477 283.953 365.668H284.012V362.516H285.266V371H284.047V370.004H283.953C283.781 370.316 283.557 370.582 283.279 370.801C283.002 371.02 282.609 371.129 282.102 371.129ZM282.383 370.062C282.73 370.062 283.029 369.969 283.279 369.781C283.529 369.594 283.719 369.33 283.848 368.99C283.98 368.65 284.047 368.258 284.047 367.812C284.047 367.367 283.982 366.98 283.854 366.652C283.725 366.324 283.535 366.07 283.285 365.891C283.035 365.711 282.734 365.621 282.383 365.621C282.023 365.621 281.719 365.715 281.469 365.902C281.219 366.09 281.031 366.35 280.906 366.682C280.781 367.01 280.719 367.387 280.719 367.812C280.719 368.246 280.781 368.633 280.906 368.973C281.035 369.312 281.225 369.58 281.475 369.775C281.729 369.967 282.031 370.062 282.383 370.062ZM286.602 369.207C286.602 368.547 286.824 368.076 287.27 367.795C287.715 367.514 288.285 367.348 288.98 367.297C289.246 367.277 289.535 367.26 289.848 367.244C290.164 367.225 290.432 367.211 290.65 367.203L290.645 366.699C290.645 366.336 290.535 366.057 290.316 365.861C290.098 365.662 289.777 365.562 289.355 365.562C289 365.562 288.709 365.637 288.482 365.785C288.256 365.93 288.109 366.125 288.043 366.371H286.801C286.84 366.02 286.971 365.707 287.193 365.434C287.416 365.156 287.717 364.941 288.096 364.789C288.479 364.633 288.914 364.555 289.402 364.555C289.805 364.555 290.191 364.617 290.562 364.742C290.938 364.867 291.254 365.094 291.512 365.422C291.77 365.75 291.898 366.199 291.898 366.77V371H290.68V370.133H290.633C290.488 370.414 290.258 370.652 289.941 370.848C289.629 371.043 289.23 371.141 288.746 371.141C288.34 371.141 287.975 371.064 287.65 370.912C287.326 370.76 287.07 370.539 286.883 370.25C286.695 369.957 286.602 369.609 286.602 369.207ZM287.82 369.219C287.82 369.516 287.93 369.744 288.148 369.904C288.371 370.064 288.664 370.145 289.027 370.145C289.355 370.145 289.643 370.08 289.889 369.951C290.135 369.818 290.324 369.643 290.457 369.424C290.59 369.201 290.656 368.961 290.656 368.703L290.65 368.123L289.156 368.223C288.73 368.254 288.4 368.352 288.166 368.516C287.936 368.676 287.82 368.91 287.82 369.219ZM293.949 373.391C293.668 373.391 293.445 373.379 293.281 373.355V372.312C293.469 372.328 293.656 372.336 293.844 372.336C294.004 372.336 294.137 372.32 294.242 372.289C294.348 372.258 294.451 372.182 294.553 372.061C294.658 371.939 294.758 371.754 294.852 371.504L295.004 371.082L292.672 364.637H294.008L295.613 369.57H295.684L297.289 364.637H298.637L296.012 371.844C295.828 372.355 295.566 372.74 295.227 372.998C294.891 373.26 294.465 373.391 293.949 373.391Z" fill="#ABABAB"/>
<path d="M308.621 371.195C307.625 371.195 306.733 371.026 305.945 370.688C305.158 370.349 304.539 369.877 304.09 369.271C303.641 368.66 303.406 367.96 303.387 367.172H305.945C305.971 367.543 306.102 367.872 306.336 368.158C306.577 368.438 306.896 368.656 307.293 368.812C307.69 368.969 308.133 369.047 308.621 369.047C309.135 369.047 309.594 368.959 309.998 368.783C310.408 368.601 310.727 368.35 310.955 368.031C311.183 367.712 311.297 367.348 311.297 366.938C311.297 366.514 311.18 366.137 310.945 365.805C310.711 365.473 310.372 365.215 309.93 365.033C309.487 364.844 308.966 364.75 308.367 364.75H307.098V362.797H308.367C308.862 362.797 309.301 362.712 309.686 362.543C310.076 362.367 310.379 362.123 310.594 361.811C310.809 361.492 310.913 361.13 310.906 360.727C310.913 360.336 310.822 359.991 310.633 359.691C310.451 359.385 310.187 359.151 309.842 358.988C309.497 358.819 309.096 358.734 308.641 358.734C308.198 358.734 307.785 358.816 307.4 358.979C307.023 359.135 306.717 359.359 306.482 359.652C306.255 359.945 306.134 360.284 306.121 360.668H303.68C303.699 359.887 303.927 359.193 304.363 358.588C304.806 357.982 305.402 357.51 306.15 357.172C306.906 356.833 307.742 356.664 308.66 356.664C309.591 356.664 310.415 356.84 311.131 357.191C311.847 357.536 312.4 358.008 312.791 358.607C313.182 359.206 313.374 359.867 313.367 360.59C313.374 361.111 313.27 361.583 313.055 362.006C312.84 362.429 312.537 362.781 312.146 363.061C311.756 363.34 311.303 363.533 310.789 363.637V363.754C311.447 363.845 312.01 364.04 312.479 364.34C312.947 364.633 313.302 365.014 313.543 365.482C313.784 365.951 313.901 366.482 313.895 367.074C313.901 367.855 313.676 368.562 313.221 369.193C312.771 369.818 312.143 370.31 311.336 370.668C310.535 371.02 309.63 371.195 308.621 371.195ZM316.121 369.164L321.121 364.34C321.661 363.799 322.078 363.357 322.371 363.012C322.671 362.66 322.898 362.315 323.055 361.977C323.211 361.632 323.289 361.267 323.289 360.883C323.289 360.453 323.185 360.076 322.977 359.75C322.768 359.424 322.479 359.174 322.107 358.998C321.743 358.822 321.329 358.734 320.867 358.734C320.385 358.734 319.962 358.832 319.598 359.027C319.24 359.216 318.963 359.49 318.768 359.848C318.572 360.199 318.478 360.609 318.484 361.078H316.062C316.056 360.199 316.258 359.428 316.668 358.764C317.078 358.093 317.648 357.576 318.377 357.211C319.113 356.846 319.949 356.664 320.887 356.664C321.837 356.664 322.677 356.84 323.406 357.191C324.142 357.543 324.712 358.031 325.115 358.656C325.525 359.275 325.73 359.978 325.73 360.766C325.73 361.312 325.623 361.84 325.408 362.348C325.2 362.855 324.842 363.419 324.334 364.037C323.826 364.649 323.107 365.395 322.176 366.273L319.656 368.773V368.871H325.945V371H316.121V369.164Z" fill="#FF7F00"/>
<path d="M118 280L118 386" stroke="#E2E2E2" stroke-linecap="round"/>
<path d="M235 280L235 386" stroke="#E2E2E2" stroke-linecap="round"/>
<g clip-path="url(#clip0_369_6869)">
<path d="M287.926 111.042C288.31 108.574 287.307 105.808 285.281 107.531C284.812 107.914 284.407 108.276 284.023 108.595C282.423 109.957 280.589 111.021 278.605 111.702C275.299 112.872 272.463 114.957 270.415 117.638H298.611C296.052 114.319 292.298 111.893 287.926 111.042Z" fill="#FFBC10"/>
<path d="M267 127.575C267 136.766 274.828 144 284.511 144C294.172 144 302.021 136.766 302.021 127.575C302.021 125.958 301.787 124.405 301.317 122.915H267.683C267.235 124.383 267 125.958 267 127.575Z" fill="#FFBC10"/>
<path d="M270.413 117.639C269.197 119.213 268.28 121 267.683 122.915H301.297C300.721 121 299.782 119.213 298.588 117.639H270.413Z" fill="#FFFEFD"/>
<path d="M291.377 128.659C291.86 128.659 292.251 128.259 292.251 127.765C292.251 127.272 291.86 126.872 291.377 126.872C290.894 126.872 290.502 127.272 290.502 127.765C290.502 128.259 290.894 128.659 291.377 128.659Z" fill="black"/>
<path d="M298.973 128.618C299.456 128.618 299.847 128.218 299.847 127.724C299.847 127.231 299.456 126.83 298.973 126.83C298.49 126.83 298.098 127.231 298.098 127.724C298.098 128.218 298.49 128.618 298.973 128.618Z" fill="black"/>
<path d="M296.237 129.872H294.168C293.741 129.872 293.4 129.532 293.4 129.106C293.4 128.681 293.741 128.34 294.168 128.34H296.237C296.663 128.34 297.004 128.681 297.004 129.106C296.983 129.532 296.642 129.872 296.237 129.872Z" fill="#FF7F00"/>
<path d="M281.292 135.617C284.235 136.617 286.773 133.872 286.773 133.872" stroke="#9C0F0F" stroke-width="0.347349" stroke-miterlimit="10" stroke-linecap="round"/>
</g>
<mask id="mask0_369_6869" style="mask-type:alpha" maskUnits="userSpaceOnUse" x="18" y="24" width="24" height="24">
<rect x="18" y="24" width="24" height="24" fill="#D9D9D9"/>
</mask>
<g mask="url(#mask0_369_6869)">
<path d="M28.6 40.7535L35.65 34.1123L34.25 32.7934L28.6 38.1159L25.75 35.4311L24.35 36.7499L28.6 40.7535ZM30 45.8404C28.6167 45.8404 27.3167 45.5932 26.1 45.0986C24.8833 44.604 23.825 43.9329 22.925 43.085C22.025 42.2372 21.3125 41.2402 20.7875 40.0941C20.2625 38.948 20 37.7234 20 36.4202C20 35.1171 20.2625 33.8925 20.7875 32.7463C21.3125 31.6002 22.025 30.6032 22.925 29.7554C23.825 28.9076 24.8833 28.2364 26.1 27.7418C27.3167 27.2473 28.6167 27 30 27C31.3833 27 32.6833 27.2473 33.9 27.7418C35.1167 28.2364 36.175 28.9076 37.075 29.7554C37.975 30.6032 38.6875 31.6002 39.2125 32.7463C39.7375 33.8925 40 35.1171 40 36.4202C40 37.7234 39.7375 38.948 39.2125 40.0941C38.6875 41.2402 37.975 42.2372 37.075 43.085C36.175 43.9329 35.1167 44.604 33.9 45.0986C32.6833 45.5932 31.3833 45.8404 30 45.8404ZM30 43.9564C32.2333 43.9564 34.125 43.2263 35.675 41.7662C37.225 40.3061 38 38.5241 38 36.4202C38 34.3164 37.225 32.5344 35.675 31.0742C34.125 29.6141 32.2333 28.884 30 28.884C27.7667 28.884 25.875 29.6141 24.325 31.0742C22.775 32.5344 22 34.3164 22 36.4202C22 38.5241 22.775 40.3061 24.325 41.7662C25.875 43.2263 27.7667 43.9564 30 43.9564Z" fill="#AEDA74"/>
</g>
<ellipse cx="284.5" cy="149.5" rx="12.5" ry="2.5" fill="url(#paint0_linear_369_6869)" fill-opacity="0.8"/>
<defs>
<filter id="filter0_d_369_6869" x="18.2542" y="113.254" width="309.492" height="29.4915" filterUnits="userSpaceOnUse" color-interpolation-filters="sRGB">
<feFlood flood-opacity="0" result="BackgroundImageFix"/>
<feColorMatrix in="SourceAlpha" type="matrix" values="0 0 0 0 0 0 0 0 0 0 0 0 0 0 0 0 0 0 127 0" result="hardAlpha"/>
<feOffset/>
<feGaussianBlur stdDeviation="0.87288"/>
<feComposite in2="hardAlpha" operator="out"/>
<feColorMatrix type="matrix" values="0 0 0 0 0 0 0 0 0 0 0 0 0 0 0 0 0 0 0.05 0"/>
<feBlend mode="normal" in2="BackgroundImageFix" result="effect1_dropShadow_369_6869"/>
<feBlend mode="normal" in="SourceGraphic" in2="effect1_dropShadow_369_6869" result="shape"/>
</filter>
<linearGradient id="paint0_linear_369_6869" x1="284.5" y1="152" x2="284.5" y2="147" gradientUnits="userSpaceOnUse">
<stop stop-color="#BAB9B9"/>
<stop offset="1" stop-color="#858484"/>
</linearGradient>
<clipPath id="clip0_369_6869">
<rect width="35" height="37" fill="white" transform="translate(267 107)"/>
</clipPath>
</defs>
</svg>
