<svg width="1920" height="532" viewBox="0 0 1920 532" fill="none" xmlns="http://www.w3.org/2000/svg">
<g clip-path="url(#clip0_368_3385)">
<path d="M1387 98.6865H1476" stroke="#FF7F00" stroke-width="5" stroke-miterlimit="10"/>
<path d="M1400.23 130.667L1463.21 67.792" stroke="#FF7F00" stroke-width="5" stroke-miterlimit="10"/>
<path d="M1432.31 144V55" stroke="#FF7F00" stroke-width="5" stroke-miterlimit="10"/>
<path d="M1464.4 130.667L1401.42 67.792" stroke="#FF7F00" stroke-width="5" stroke-miterlimit="10"/>
</g>
<path d="M296.5 130L301.772 153.522L322.253 140.747L309.275 161.228L333 166.5L309.275 171.772L322.253 192.253L301.772 179.275L296.5 203L291.228 179.275L270.747 192.253L283.522 171.772L260 166.5L283.522 161.228L270.747 140.747L291.228 153.522L296.5 130Z" fill="#FF7F00"/>
<path d="M110 216L117.511 249.511L146.689 231.311L128.2 260.489L162 268L128.2 275.511L146.689 304.689L117.511 286.2L110 320L102.489 286.2L73.3111 304.689L91.5111 275.511L58 268L91.5111 260.489L73.3111 231.311L102.489 249.511L110 216Z" fill="#FFFBEA"/>
<circle cx="1553.75" cy="122.75" r="8.45709" transform="rotate(-2.02923 1553.75 122.75)" fill="#FF7F00"/>
<path d="M477.395 281.481L228 427.914" stroke="#FF7F00" stroke-width="6" stroke-linecap="round"/>
<path d="M617.395 244.481L368 390.914" stroke="#FFFBEA" stroke-width="6" stroke-linecap="round"/>
<circle cx="1770.99" cy="274.525" r="6.99348" transform="rotate(-90 1770.99 274.525)" fill="#FF7F00"/>
<circle cx="1770.99" cy="238.393" r="6.99348" transform="rotate(-90 1770.99 238.393)" fill="#FF7F00"/>
<circle cx="1770.99" cy="202.259" r="6.99348" transform="rotate(-90 1770.99 202.259)" fill="#FF7F00"/>
<circle cx="1770.99" cy="166.128" r="6.99348" transform="rotate(-90 1770.99 166.128)" fill="#FF7F00"/>
<circle cx="1770.99" cy="129.994" r="6.99348" transform="rotate(-90 1770.99 129.994)" fill="#FF7F00"/>
<circle cx="1802.47" cy="274.525" r="6.99348" transform="rotate(-90 1802.47 274.525)" fill="#FF7F00"/>
<circle cx="1833.94" cy="274.525" r="6.99348" transform="rotate(-90 1833.94 274.525)" fill="#FF7F00"/>
<circle cx="1865.4" cy="274.526" r="6.99348" transform="rotate(-90 1865.4 274.526)" fill="#FF7F00"/>
<circle cx="1896.88" cy="274.526" r="6.99348" transform="rotate(-90 1896.88 274.526)" fill="#FF7F00"/>
<circle cx="1802.46" cy="238.391" r="6.99348" transform="rotate(-90 1802.46 238.391)" fill="#FF7F00"/>
<circle cx="1833.94" cy="238.391" r="6.99348" transform="rotate(-90 1833.94 238.391)" fill="#FF7F00"/>
<circle cx="1865.41" cy="238.394" r="6.99348" transform="rotate(-90 1865.41 238.394)" fill="#FF7F00"/>
<circle cx="1896.88" cy="238.393" r="6.99348" transform="rotate(-90 1896.88 238.393)" fill="#FF7F00"/>
<circle cx="1802.47" cy="202.259" r="6.99348" transform="rotate(-90 1802.47 202.259)" fill="#FF7F00"/>
<circle cx="1833.94" cy="202.259" r="6.99348" transform="rotate(-90 1833.94 202.259)" fill="#FF7F00"/>
<circle cx="1865.4" cy="202.26" r="6.99348" transform="rotate(-90 1865.4 202.26)" fill="#FF7F00"/>
<circle cx="1896.88" cy="202.259" r="6.99348" transform="rotate(-90 1896.88 202.259)" fill="#FF7F00"/>
<circle cx="1802.46" cy="166.126" r="6.99348" transform="rotate(-90 1802.46 166.126)" fill="#FF7F00"/>
<circle cx="1833.94" cy="166.126" r="6.99348" transform="rotate(-90 1833.94 166.126)" fill="#FF7F00"/>
<circle cx="1865.41" cy="166.128" r="6.99348" transform="rotate(-90 1865.41 166.128)" fill="#FF7F00"/>
<circle cx="1896.88" cy="166.128" r="6.99348" transform="rotate(-90 1896.88 166.128)" fill="#FF7F00"/>
<circle cx="1802.47" cy="129.993" r="6.99348" transform="rotate(-90 1802.47 129.993)" fill="#FF7F00"/>
<circle cx="1833.94" cy="129.993" r="6.99348" transform="rotate(-90 1833.94 129.993)" fill="#FF7F00"/>
<circle cx="1865.4" cy="129.994" r="6.99348" transform="rotate(-90 1865.4 129.994)" fill="#FF7F00"/>
<circle cx="1896.88" cy="129.994" r="6.99348" transform="rotate(-90 1896.88 129.994)" fill="#FF7F00"/>
<path d="M1628.39 231.481L1379 377.914" stroke="#FF7F00" stroke-width="6" stroke-linecap="round"/>
<path d="M1600.39 333.481L1351 479.914" stroke="#FFFBEA" stroke-width="6" stroke-linecap="round"/>
<circle cx="1786.19" cy="378.75" r="8.45709" transform="rotate(-2.02923 1786.19 378.75)" fill="#FF7F00"/>
<circle cx="1763.4" cy="393.623" r="5.21727" transform="rotate(-2.02923 1763.4 393.623)" fill="#FFFBEA"/>
<circle cx="390.399" cy="224.4" r="5.21727" transform="rotate(-2.02923 390.399 224.4)" fill="#FFFBEA"/>
<defs>
<clipPath id="clip0_368_3385">
<rect width="89" height="89" fill="white" transform="translate(1387 55)"/>
</clipPath>
</defs>
</svg>
