<svg width="2169" height="1065" viewBox="0 0 2169 1065" fill="none" xmlns="http://www.w3.org/2000/svg">
<circle cx="302.134" cy="654.157" r="8.89655" transform="rotate(-29.6738 302.134 654.157)" fill="#433A3D" fill-opacity="0.5"/>
<circle cx="342.072" cy="631.401" r="8.89655" transform="rotate(-29.6738 342.072 631.401)" fill="#433A3D" fill-opacity="0.5"/>
<circle cx="382.009" cy="608.645" r="8.89655" transform="rotate(-29.6738 382.009 608.645)" fill="#433A3D" fill-opacity="0.5"/>
<circle cx="421.947" cy="585.89" r="8.89655" transform="rotate(-29.6738 421.947 585.89)" fill="#433A3D" fill-opacity="0.5"/>
<circle cx="461.884" cy="563.134" r="8.89655" transform="rotate(-29.6738 461.884 563.134)" fill="#433A3D" fill-opacity="0.5"/>
<circle cx="321.954" cy="688.941" r="8.89655" transform="rotate(-29.6738 321.954 688.941)" fill="#433A3D" fill-opacity="0.5"/>
<circle cx="341.773" cy="723.725" r="8.89655" transform="rotate(-29.6738 341.773 723.725)" fill="#433A3D" fill-opacity="0.5"/>
<circle cx="361.593" cy="758.51" r="8.89655" transform="rotate(-29.6738 361.593 758.51)" fill="#433A3D" fill-opacity="0.5"/>
<circle cx="381.413" cy="793.294" r="8.89655" transform="rotate(-29.6738 381.413 793.294)" fill="#433A3D" fill-opacity="0.5"/>
<circle cx="401.232" cy="828.078" r="8.89655" transform="rotate(-29.6738 401.232 828.078)" fill="#433A3D" fill-opacity="0.5"/>
<circle cx="421.051" cy="862.863" r="8.89655" transform="rotate(-29.6738 421.051 862.863)" fill="#433A3D" fill-opacity="0.5"/>
<circle cx="361.891" cy="666.185" r="8.89655" transform="rotate(-29.6738 361.891 666.185)" fill="#433A3D" fill-opacity="0.5"/>
<circle cx="381.71" cy="700.97" r="8.89655" transform="rotate(-29.6738 381.71 700.97)" fill="#433A3D" fill-opacity="0.5"/>
<circle cx="401.531" cy="735.754" r="8.89655" transform="rotate(-29.6738 401.531 735.754)" fill="#433A3D" fill-opacity="0.5"/>
<circle cx="421.35" cy="770.538" r="8.89655" transform="rotate(-29.6738 421.35 770.538)" fill="#433A3D" fill-opacity="0.5"/>
<circle cx="441.169" cy="805.323" r="8.89655" transform="rotate(-29.6738 441.169 805.323)" fill="#433A3D" fill-opacity="0.5"/>
<circle cx="460.989" cy="840.107" r="8.89655" transform="rotate(-29.6738 460.989 840.107)" fill="#433A3D" fill-opacity="0.5"/>
<circle cx="401.829" cy="643.43" r="8.89655" transform="rotate(-29.6738 401.829 643.43)" fill="#433A3D" fill-opacity="0.5"/>
<circle cx="421.648" cy="678.214" r="8.89655" transform="rotate(-29.6738 421.648 678.214)" fill="#433A3D" fill-opacity="0.5"/>
<circle cx="441.468" cy="712.998" r="8.89655" transform="rotate(-29.6738 441.468 712.998)" fill="#433A3D" fill-opacity="0.5"/>
<circle cx="461.288" cy="747.783" r="8.89655" transform="rotate(-29.6738 461.288 747.783)" fill="#433A3D" fill-opacity="0.5"/>
<circle cx="481.107" cy="782.567" r="8.89655" transform="rotate(-29.6738 481.107 782.567)" fill="#433A3D" fill-opacity="0.5"/>
<circle cx="500.926" cy="817.351" r="8.89655" transform="rotate(-29.6738 500.926 817.351)" fill="#433A3D" fill-opacity="0.5"/>
<circle cx="441.766" cy="620.674" r="8.89655" transform="rotate(-29.6738 441.766 620.674)" fill="#433A3D" fill-opacity="0.5"/>
<circle cx="461.585" cy="655.458" r="8.89655" transform="rotate(-29.6738 461.585 655.458)" fill="#433A3D" fill-opacity="0.5"/>
<circle cx="481.406" cy="690.242" r="8.89655" transform="rotate(-29.6738 481.406 690.242)" fill="#433A3D" fill-opacity="0.5"/>
<circle cx="501.225" cy="725.027" r="8.89655" transform="rotate(-29.6738 501.225 725.027)" fill="#433A3D" fill-opacity="0.5"/>
<circle cx="521.044" cy="759.811" r="8.89655" transform="rotate(-29.6738 521.044 759.811)" fill="#433A3D" fill-opacity="0.5"/>
<circle cx="540.864" cy="794.596" r="8.89655" transform="rotate(-29.6738 540.864 794.596)" fill="#433A3D" fill-opacity="0.5"/>
<circle cx="481.704" cy="597.918" r="8.89655" transform="rotate(-29.6738 481.704 597.918)" fill="#433A3D" fill-opacity="0.5"/>
<circle cx="501.523" cy="632.702" r="8.89655" transform="rotate(-29.6738 501.523 632.702)" fill="#433A3D" fill-opacity="0.5"/>
<circle cx="521.343" cy="667.487" r="8.89655" transform="rotate(-29.6738 521.343 667.487)" fill="#433A3D" fill-opacity="0.5"/>
<circle cx="541.162" cy="702.271" r="8.89655" transform="rotate(-29.6738 541.162 702.271)" fill="#433A3D" fill-opacity="0.5"/>
<circle cx="560.982" cy="737.055" r="8.89655" transform="rotate(-29.6738 560.982 737.055)" fill="#433A3D" fill-opacity="0.5"/>
<circle cx="580.801" cy="771.84" r="8.89655" transform="rotate(-29.6738 580.801 771.84)" fill="#433A3D" fill-opacity="0.5"/>
<path d="M2019.39 51.4806L1770 197.914" stroke="#FFFBEA" stroke-width="6" stroke-linecap="round"/>
<path d="M2165.39 83.4806L1916 229.914" stroke="#433A3D" stroke-width="6" stroke-linecap="round"/>
<path d="M272.395 631.481L22.9998 777.914" stroke="#433A3D" stroke-width="6" stroke-linecap="round"/>
<path d="M252.395 866.481L2.99983 1012.91" stroke="#433A3D" stroke-width="6" stroke-linecap="round"/>
<path d="M1996.39 286.481L1747 432.914" stroke="#FFFBEA" stroke-width="6" stroke-linecap="round"/>
<path d="M390.395 677.481L141 823.914" stroke="#FFFBEA" stroke-width="6" stroke-linecap="round"/>
</svg>
