<?xml version="1.0" encoding="UTF-8"?>
<svg id="Layer_1" xmlns="http://www.w3.org/2000/svg" xmlns:xlink="http://www.w3.org/1999/xlink" viewBox="0 0 219.19 162.2">
  <defs>
    <style>
      .cls-1 {
        fill: none;
      }

      .cls-2 {
        clip-path: url(#clippath-1);
      }

      .cls-3 {
        fill: rgba(170, 182, 84, .3);
      }

      .cls-4 {
        clip-path: url(#clippath);
      }
    </style>
    <clipPath id="clippath">
      <rect class="cls-1" x="-82.96" width="305" height="188.01"/>
    </clipPath>
    <clipPath id="clippath-1">
      <rect class="cls-1" x="-4.09" y="-56.43" width="217.87" height="208.74"/>
    </clipPath>
  </defs>
  <path class="cls-3" d="M97.27,126.86c-.12-.04-.56-.03-.97.04-.45.07-2.98-.28-6.08-.82-5.12-.89-5.32-.95-5.21-1.34.17-.6-.22-.75-2.83-1-1.95-.19-8.55-.56-10.27-.56-.44,0-.57-.06-.4-.18.12-.1.26-.36.29-.56.09-.55-.17-.58-3.51-.42-3.16.15-6.36.57-8.66,1.16-1.41.35-1.46.35-1.41-.06.04-.32-.03-.45-.26-.56-.66-.27-5.05.96-8.69,2.44-1.94.79-2.09.82-1.95.45.23-.62-.11-.94-.76-.73-1.05.35-4.52,2.01-6.06,2.91-3.02,1.76-2.86,1.68-2.81,1.22.07-.53-.2-.86-.58-.73-.71.24-2.68,1.42-4.22,2.54-1.43,1.03-3.37,2.74-4.94,4.34l-.43.43.34-.98c.47-1.36.52-1.95.15-2.01-.54-.09-4.7,4.06-6.92,6.9-2.34,2.99-4.7,7.1-5.89,10.27l-.67,1.78-2.1,1.07c-2.58,1.35-6.38,3.97-6.95,4.8-.2.3-.38.89-.4,1.28l-.02.73.78.12.78.12,4.4-2.33c4.23-2.24,4.44-2.34,5.48-2.41,2.29-.16,4.74.2,8.46,1.22,4.39,1.21,9.22,2.03,10.55,1.79.52-.09,1.6-.09,2.42,0,1.87.2,4.73.24,5.43.08.31-.07.6-.24.67-.39.08-.17.31-.25.64-.24.28.01.59-.03.7-.11.1-.08,1-.17,2.01-.22,1.67-.08,3.52-.43,3.96-.75.1-.07.2-.25.22-.39.03-.2.44-.35,1.58-.62,1.66-.38,2.26-.7,2.2-1.19-.03-.3.16-.38,1.85-.81,2.41-.62,4.79-1.36,5.12-1.6.28-.2.15-.45-.43-.83-.22-.14-.35-.29-.29-.33.06-.04,1.22-.43,2.59-.85,3.34-1.05,4.94-1.73,5.05-2.15.04-.17-.02-.39-.14-.47-.38-.25.81-.65,2.04-.67.27,0,.37-.07.37-.23,0-.15.74-.57,2.54-1.39,5.61-2.57,7.26-3.42,7.51-3.87.2-.36.18-.47-.15-.79-.33-.3-.34-.37-.09-.44.53-.14,4.51-1.71,5.74-2.27.95-.43,1.37-.51,2.21-.43.56.06,1.08.04,1.13-.04.25-.34-.05-.53-.88-.57-.5-.02-.96-.13-1.04-.25-.09-.12-.58-.33-1.11-.47l-.96-.25.95-.56c.53-.3,1.9-1.09,3.04-1.75,1.15-.66,3.27-1.99,4.7-2.97,2.35-1.6,2.62-1.82,2.68-2.18.03-.4-.17-.81-.51-.93ZM90.81,128c-2.29.34-10.14,1.92-14.79,2.98-.73.17-1.29.26-1.28.21.03-.12.76-.52,6.05-3.28l3.63-1.9,2.23.29c1.91.25,6.76,1.14,6.85,1.26.03.03-1.18.23-2.68.45ZM93.65,130.16c-.67.41-2.81,1.66-4.77,2.78l-3.57,2.04-2.01-.2c-1.11-.11-2.71-.36-3.58-.54-1.56-.34-1.86-.34-1.75-.01.09.27,3.61.97,5.68,1.13,1.04.08,2.02.25,2.18.38.26.21.2.23-.45.14-.56-.07-11.32-1.04-11.85-1.06-.1,0,2.2-.6,5.57-1.43,1.47-.36,4.81-1.23,7.44-1.93,6.29-1.67,8.22-2.16,8.26-2.11.02.04-.51.39-1.17.8ZM83.39,125.8c-.21.1-1.32.68-2.45,1.27-1.12.6-2.96,1.55-4.06,2.12-1.1.57-2.65,1.44-3.44,1.94-1.23.77-1.91,1.06-4.82,1.99-1.86.6-3.38,1.04-3.38.99,0-.06,1.88-1.36,4.16-2.91,5.34-3.61,5.22-3.51,5.06-3.74-.12-.16-.71.22-3.42,2.12-2.54,1.79-3.34,2.29-3.53,2.21-.19-.08-.62.2-2.09,1.4-1.51,1.23-1.95,1.52-2.39,1.58l-.54.08.47-.47c.26-.26.87-.82,1.34-1.25.47-.42.82-.82.77-.9-.11-.15-.74.34-2.19,1.71l-1.21,1.15-2.24.65c-1.22.35-3.35.99-4.72,1.41l-2.47.77.69-.64c.38-.35,1.51-1.31,2.51-2.11,1.85-1.51,2.38-2.24.76-1.07-1.42,1.03-4.2,3.5-4.19,3.71,0,.12-.32.31-.9.5l-.92.3.69-.88c1.18-1.51,2.89-2.98,5.72-4.95,1.48-1.02,2.64-1.89,2.59-1.94-.15-.21-1.86.89-4.47,2.91-2.74,2.11-3.97,3.32-4.61,4.47-.29.52-.37.57-2.03,1.1-1.63.52-1.71.53-1.34.12,1.08-1.18,3.7-3.5,6.4-5.65,3.27-2.61,5.17-3.88,9.2-6.08,2.17-1.19,7.62-4.27,7.88-4.45.06-.04.2.08.33.25.18.25.78.34,2.55.4,2.87.1,7.1.36,9.29.59l1.65.17-.14.47c-.09.25-.33.54-.54.65ZM82.7,130.54c-1.85.48-5.12,1.3-7.28,1.84-2.16.53-5.09,1.33-6.51,1.76-1.43.43-5.38,1.59-8.77,2.58-6.76,1.97-22.22,6.86-26.44,8.37-2.43.87-11.16,4.42-13.56,5.52-.54.25-1.01.4-1.05.35-.04-.06.09-.32.3-.61.32-.44.61-.63,1.97-1.2.88-.38,1.63-.63,1.69-.57.04.07.3-.04.57-.23.82-.59,8.17-3.06,24.72-8.32,9.91-3.15,12.45-3.91,13.99-4.23.78-.15,5.26-1.46,8.96-2.61,2.13-.66,5.59-1.57,7.69-2.03,2.11-.45,4.56-1,5.47-1.22,2.91-.69,1.73-.27-1.73.62ZM84.75,137.47c-.88.35-2.4.93-3.35,1.27-.95.35-1.76.7-1.79.79-.11.27.2.57.77.73.62.18.68.36.09.33-.22-.01-1.01-.03-1.77-.04-.76,0-2.8-.25-4.55-.54-1.75-.29-3.18-.46-3.2-.38-.06.36,5.9,1.38,8.03,1.37.61,0,1.1.04,1.1.09-.02.12-6.96,3.37-8.65,4.05-1.38.55-1.59.58-4.05.48-1.86-.07-2.61-.03-2.64.16-.05.3-.13.28,2,.38,1.17.05,1.55.13,1.4.29-.16.17-.13.31.14.58.2.21.29.4.2.46-.34.25-3.33-.25-7.63-1.28-2.54-.61-7.18-1.52-10.35-2.04-5.7-.93-6.04-1.04-4.18-1.4.94-.18,4.87.48,11.23,1.88,2.6.57,4.79.98,4.89.91.39-.28.09-.52-.92-.74-3.74-.8-12.63-2.52-13.12-2.54h-.6s.41-.17.41-.17c1.42-.52,6.7.14,15.36,1.93,2.03.42,3.71.69,3.75.59.15-.35-11.52-2.54-15.84-2.97l-1.46-.14,1.24-.38c1.2-.37,1.35-.37,4.59.2,1.85.32,3.29.49,3.21.38-.07-.11-1.35-.4-2.82-.64-1.46-.24-2.67-.49-2.66-.54.01-.06.92-.37,2.01-.7l1.98-.6,6.2,1.01c7.5,1.22,8.85,1.38,11.48,1.32,2.92-.07,2.68-.47-.29-.49-1.68-.01-4.4-.32-9.08-1.04-3.67-.56-6.68-1.07-6.67-1.12.03-.17,5.06-1.47,5.16-1.33.16.22,13.22,2.66,13.29,2.48.04-.09-2.22-.6-5.02-1.14-6.76-1.29-7.94-1.54-7.85-1.6.03-.03.5-.17,1.01-.31.77-.21,1.22-.19,2.49.15,2.45.64,7.67,1.73,7.81,1.63.25-.18-.02-.27-2.07-.69-2.95-.59-6.43-1.44-6.4-1.56,0-.05.37-.19.81-.3.6-.16,1.18-.11,2.38.2,1.46.37,1.95.41,1.76.14-.05-.06-.61-.23-1.24-.39-.63-.15-1.15-.32-1.15-.39.05-.33,2.23-.49,4.26-.32,6.81.6,12.02,1.15,11.94,1.26-.06.06-.82.4-1.71.75ZM69.07,123.4c-.63.37-3.36,1.91-6.1,3.43-4.43,2.45-5.27,2.96-7.85,4.86-3.35,2.45-5.56,4.31-8.02,6.75l-1.75,1.74-1.23.4-1.23.39,1.74-1.95c3.34-3.74,3.65-4.03,7.95-7.29,2.53-1.91,4.01-3.11,3.94-3.19-.13-.18-8.04,5.79-9.19,6.94-.47.47-1.8,1.93-2.98,3.25l-2.12,2.4-1.89.58-1.91.56,1.49-1.65c1.48-1.64,1.65-1.87,1.39-1.9-.17-.03-2.98,3.04-3.18,3.46-.1.2-.43.39-1.06.58-.88.27-.9.27-.56-.1.2-.21,1.08-1.01,1.97-1.79,1.9-1.65,2.25-2.02,1.97-2.04-.11-.01-1.37,1.02-2.8,2.29-2.54,2.26-2.62,2.31-3.64,2.67-1.26.45-1.21.36,1.34-1.99,2.88-2.66,2.9-2.68,2.81-2.82-.06-.07-.12-.11-.16-.07-.38.28-3.92,3.57-4.76,4.42-1.04,1.06-1.11,1.11-2.21,1.47-1.45.46-1.58.47-1.25.08.16-.19.36-.31.45-.27.09.03.7-.52,1.33-1.21,1.44-1.56,4.04-3.95,6.25-5.75,1.54-1.25,2.08-1.82,1.79-1.86-.17-.03-4.63,3.78-6.41,5.46-.84.79-1.55,1.42-1.6,1.41-.13-.02,1.82-2.32,3.54-4.18,1.89-2.05,4.65-4.25,11.78-9.46l6.68-4.88,1.68-.43c1.89-.48,2.19-.5,1.95-.13-.09.15-.09.38.02.53.14.2.52.2,1.44.01,3.46-.73,6.03-1.1,8.59-1.28,1.54-.11,2.83-.17,2.85-.14.04.03-.44.36-1.08.74ZM37.24,135.64c-2.62,2.31-8.04,8.63-8.08,9.41-.02.32-.11.38-1.06.73-.56.21-1.12.37-1.22.36-.44-.04,2.8-4.37,5-6.67.87-.91,2.38-2.3,3.39-3.13,1.09-.88,1.78-1.54,1.73-1.62-.14-.19-3.28,2.36-4.78,3.87-1.99,2.01-5.01,5.82-5.74,7.23-.27.52-.42.65-.96.85l-.65.24,1.38-1.65c1.28-1.54,1.73-2.22,1.2-1.83-.12.08-.87.91-1.66,1.84-1.47,1.72-2.05,2.26-2.2,2.06-.05-.07.71-1.07,1.7-2.24.99-1.17,1.81-2.21,1.84-2.34.08-.42-1.23.95-2.87,3.01-1,1.24-1.76,2.08-1.99,2.15-.36.12-.36.11-.15-.19.12-.18,1.15-1.44,2.31-2.84,1.16-1.39,2.06-2.58,2.01-2.65-.12-.17-.66.42-3.16,3.48-1.19,1.47-2.33,2.73-2.51,2.8-.45.18,1.95-3.1,4.35-5.92,1.76-2.07,2.42-3.02,1.77-2.55-.48.35-4.31,5.05-5.66,6.95-.76,1.07-1.43,1.94-1.49,1.93-.48-.07,3.71-7.38,6.17-10.76.96-1.33,3.69-4.06,5.83-5.85,1.36-1.14,4.94-3.5,5.23-3.45.07,0,.04.29-.04.6-.08.32-.1.66-.04.74.15.21.45.07,2.62-1.24,1.61-.97,5.35-2.86,6.6-3.34l.5-.19-.25.45c-.27.5-.17.79.27.81.15,0,1.26-.39,2.47-.87l2.2-.89-6.22,4.65c-3.42,2.53-6.94,5.26-7.83,6.04ZM63.98,149.06c-1.64.5-3.04,1-3.12,1.12-.11.15-.02.34.3.65.37.37.4.45.17.51-.16.04-.34.12-.44.19-.32.24-3.64.5-5.68.45-2.07-.05-8.24-1.07-13.76-2.28-2.54-.56-3.09-.62-2.87-.32.3.41,14.24,3.06,16.26,3.1.88.02,1.59.05,1.62.08.15.21-2.11.31-3.95.19-3.85-.26-7.68-.9-13.05-2.17-5.66-1.34-8.29-1.91-9.23-2l-.59-.06.55-.25c.81-.37,1.17-.37,3.46.1,1.13.23,2.11.38,2.18.34.24-.18-.24-.44-1-.54-.46-.07-1.3-.23-1.86-.37l-1.01-.26.55-.2c.84-.31,5.42.51,11.11,2,.51.13.93.15.92.05-.02-.24-5.96-1.71-8.63-2.15-1.78-.29-2.19-.49-1.26-.63.18-.02,1.82.29,3.66.7,1.84.41,3.37.66,3.42.56.04-.1-.24-.25-.63-.33-.82-.16-4.48-.98-5.19-1.16l-.46-.12.93-.34c.88-.32,1.04-.31,2.82.19,2.34.66,5.38,1.22,5.41.99.01-.09-.73-.31-1.65-.48-1.73-.33-4.63-1.07-4.73-1.22-.04-.04.15-.15.42-.22.27-.07,1.12.03,1.91.23,2.87.74,5.15,1.2,5.1,1.01-.03-.1-1.38-.5-2.98-.87-1.6-.38-2.9-.7-2.9-.73,0-.03.3-.15.65-.28.46-.16.97-.13,1.83.13.66.19,1.23.27,1.28.17.04-.1-.35-.29-.86-.43-.51-.13-.88-.28-.81-.34.7-.5,10.32.88,18.14,2.61,2.87.63,5.6,1.21,6.06,1.27.46.07.85.13.87.15,0,.02-1.32.44-2.96.94ZM54.7,154.09c.02.1-1.75.42-2.91.53-1.16.11-1.58.37-1.29.77.08.11.09.26.01.31-.34.25-2.04.43-4.45.47-1.46.02-2.76.14-2.91.26-.5.36-3.32-.29-7.7-1.77-6.8-2.3-8.99-2.86-11.53-2.92-.85-.02-1.59-.06-1.6-.1-.25-.34,4.47.05,7.06.59,1.8.38,2.58.4,1.87.07-.43-.21-5.01-.99-6.52-1.11l-1.24-.1.55-.26c.61-.28,3.48-.09,6.61.43.99.16,1.88.23,2,.15.24-.17-1.71-.53-4.92-.9-2.04-.23-2.22-.28-1.76-.49.33-.15,1.16-.17,2.32-.04,1.01.1,1.83.11,1.83.01.01-.1-.64-.25-1.46-.33l-1.48-.16.59-.25c1.15-.5,2.5-.29,10.56,1.65,2.92.7,6.11,1.42,7.13,1.6,2.06.38,6.63.83,8.2.83.9,0,1.04.04,1.04.35,0,.2,0,.38,0,.41ZM26.96,135.24c-.31.77-1.1,2.14-1.91,3.31-.77,1.11-2.02,3.02-2.8,4.28-1.69,2.74-2.49,3.87-4.05,5.74-1.2,1.43-1.8,1.96-2.55,2.27-.38.15-.36.05.15-1.27,1.92-4.94,5.57-10.33,9.68-14.29,2.44-2.35,2.28-2.22,2.14-1.76-.07.23-.36.99-.65,1.72ZM42.67,157.29c-.97.06-2.68-.07-4.65-.33-1.31-.18-2.02-.18-2.25-.02-.41.3-3.16.12-3.32-.22-.06-.13-1.16-.48-2.45-.79-2.15-.51-3.16-.73-8.24-1.86-1.47-.32-1.56-.38-.82-.37,2.04.01,4.47.4,8.52,1.36,2.38.56,4.32.95,4.29.84-.09-.29-7.2-2.01-9.7-2.35-1.21-.16-2.97-.27-3.94-.26-.96.02-1.6-.02-1.42-.09.18-.07.6-.26.95-.44,1.33-.67,5.18-.57,8.15.18,1.06.27,4.03,1.2,6.57,2.06,3.42,1.16,5.19,1.65,6.7,1.86,1.13.17,2.08.32,2.1.34.04.01-.18.05-.49.06ZM19.16,148.46c-.28.76-.74,1.21-1.4,1.38-.27.07-.15-.15.49-.9.47-.54.91-1.07.99-1.16.24-.31.21-.1-.09.68ZM18.71,151.03c.06.09-.04.22-.25.3-.65.26-7.35,3.75-9.89,5.15-1.37.75-2.53,1.36-2.58,1.35-.3-.04.78-.93,2.93-2.39,2.32-1.57,4.61-2.82,8.4-4.56,1.63-.75,1.78-.79,1.5-.37-.14.2-.19.42-.12.51Z"/>
  <path class="cls-3" d="M85.03,128.15c-.6.33-1.12.66-1.16.75-.14.28.47.07,1.46-.51,1.37-.79,1.09-1.01-.31-.24Z"/>
  <path class="cls-3" d="M84.3,127.52c-.34.02-4.16,1.96-4.19,2.13-.05.26.17.18,2.11-.78,1.83-.91,2.56-1.38,2.07-1.35Z"/>
  <path class="cls-3" d="M79.02,126.23c-.91.54-1.69,1.07-1.74,1.15-.17.34.56.02,2.02-.9,2.11-1.32,1.86-1.53-.28-.24Z"/>
  <path class="cls-3" d="M67.58,127.74c-1.18.72-2.35,1.41-2.59,1.54-.31.15-.38.26-.26.35.27.2,5.28-2.82,5.1-3.07-.06-.06-1.06.47-2.25,1.19Z"/>
  <path class="cls-3" d="M68.85,127.77c-.94.47-3.27,2.22-3.16,2.38.06.08.58-.21,1.24-.69.62-.45,1.49-1.02,1.92-1.26.91-.51.92-.89,0-.43Z"/>
  <path class="cls-3" d="M61.59,133.41c-1.16.92-1.97,1.67-1.99,1.83-.02.19.32-.03,1.29-.83.73-.6,1.67-1.35,2.11-1.66.51-.37.75-.64.68-.73-.09-.13-.64.24-2.08,1.4Z"/>
  <path class="cls-3" d="M60.33,133.28c-1.34,1.06-2.32,1.93-2.34,2.08-.02.18.47-.16,1.7-1.14.96-.77,2.06-1.63,2.45-1.92.45-.33.68-.58.61-.68-.08-.11-.71.33-2.42,1.67Z"/>
  <path class="cls-3" d="M78.32,138.11c-.72-.15-1.35-.2-1.36-.11-.03.17,2.4.77,2.73.68.38-.1-.13-.31-1.37-.57Z"/>
  <path class="cls-3" d="M65.71,138.76c-2.83-.68-3.38-.76-3.16-.46.1.14,6.17,1.64,6.28,1.56.26-.19-.58-.49-3.12-1.1Z"/>
  <path class="cls-3" d="M65.57,123.6c-.34.1-3.76,1.79-4.05,2-.14.1-.21.23-.16.3.1.14,4.4-2.03,4.43-2.23,0-.08-.09-.12-.22-.07Z"/>
  <path class="cls-3" d="M47.34,131.57c-1.37,1.22-4.11,3.92-4.14,4.08-.05.36.36.03,1.88-1.44.92-.89,2.01-1.93,2.45-2.33.43-.39.78-.82.78-.94,0-.14-.31.05-.96.63Z"/>
  <path class="cls-3" d="M47.98,132.49c-.82.59-3.72,3.37-3.76,3.58-.06.31.06.22,2.37-1.88,1.09-.99,1.96-1.86,1.92-1.92-.05-.06-.27.03-.53.22Z"/>
  <path class="cls-3" d="M44.62,136.36c-.18-.03-3.48,3.48-3.4,3.6.12.17.42-.1,2-1.75,1.38-1.43,1.66-1.8,1.39-1.85Z"/>
  <path class="cls-3" d="M38.67,139.25c-.72.52-2.87,2.55-3.52,3.31-.15.17-.2.33-.12.36.08.03.79-.59,1.6-1.37s1.81-1.69,2.24-2.01c.44-.32.75-.65.69-.72-.06-.07-.47.12-.89.43Z"/>
  <path class="cls-3" d="M32.16,136.02c-2.26,1.69-2.93,2.27-2.97,2.52-.04.27.1.2.86-.46.5-.43,1.87-1.5,3.07-2.37,1.51-1.09,2.14-1.62,2.07-1.73-.08-.11-.95.47-3.03,2.04Z"/>
  <path class="cls-3" d="M33.07,136.38c-1.38,1-4.08,3.41-4.11,3.66-.02.18.23.02.88-.53.5-.43,1.63-1.38,2.53-2.11,1.61-1.32,2.11-2.04.69-1.02Z"/>
  <path class="cls-3" d="M49.11,148.29c-2.42-.56-2.96-.62-2.76-.37.12.17,5.19,1.34,5.34,1.24.25-.18-.11-.3-2.58-.87Z"/>
  <path class="cls-3" d="M47.63,149.41c-.66-.13-1.27-.17-1.32-.08-.06.09.57.29,1.37.45.8.15,1.41.19,1.33.08-.09-.12-.72-.32-1.38-.45Z"/>
  <path class="cls-3" d="M36.2,152.84c-.61-.19-1.22-.4-1.35-.47-.14-.07-.29-.05-.35.04-.13.18,2.65,1.22,2.86,1.07.2-.15-.01-.27-1.16-.64Z"/>
  <path class="cls-3" d="M34.38,153.22c-.78-.24-1.23-.26-1.08-.05.16.22,1.8.68,1.88.53.09-.23.15-.19-.79-.48Z"/>
  <path class="cls-3" d="M21.39,142.97c-.28.2-1.6,1.84-3.54,4.41-1.79,2.36-1.81,2.39-1.58,2.47.08.03.79-.81,1.56-1.86.78-1.05,1.98-2.61,2.67-3.44.69-.85,1.22-1.57,1.18-1.63-.04-.05-.17-.03-.28.05Z"/>
  <g class="cls-4">
    <g class="cls-2">
      <g>
        <path class="cls-3" d="M213.78,149.54c-.05-.38-.71-1.54-1.47-2.58-.81-1.11-3.45-8.46-6.37-17.64-4.8-15.13-4.94-15.77-3.71-16,1.88-.38,1.71-1.66-1.28-9.08-2.23-5.55-10.55-23.95-12.95-28.62-.62-1.21-.64-1.61-.07-1.35.43.19,1.33.19,1.93,0,1.62-.54,1.33-1.28-3.8-10.1-4.85-8.35-10.53-16.43-15.35-21.84-2.95-3.32-3.02-3.46-1.83-3.89.93-.36,1.19-.71,1.14-1.49-.19-2.18-9.72-12.33-18.87-20.11-4.87-4.15-5.18-4.5-3.97-4.65,2-.26,2.4-1.64.9-3.08-2.42-2.37-11.83-9.41-16.44-12.33-9.03-5.71-8.6-5.38-7.27-5.9,1.52-.57,2.04-1.75,1.16-2.61-1.64-1.59-7.63-5.26-12.83-7.87-4.8-2.42-12.17-5.26-18.72-7.28l-1.78-.55,3.14-.45c4.35-.64,6.01-1.35,5.66-2.44-.52-1.59-17.63-7.02-28.47-9.03-11.4-2.13-25.88-2.73-36.14-1.49l-5.77.69-5.85-4.17c-7.29-5.1-19.75-11.69-22.81-12.07-1.09-.12-2.95.21-4.04.74l-2,.97.76,2.28.76,2.28,12.52,8.63c12.05,8.3,12.59,8.73,14.26,11.45,3.66,6,6.15,13.14,8.62,24.66,2.92,13.61,7.51,27.86,10.03,31.13.97,1.28,2.5,4.2,3.42,6.54,2.09,5.36,6.01,13.16,7.44,14.84.62.74,1.5,1.28,2,1.28.57-.02,1.12.5,1.54,1.4.36.78.93,1.56,1.28,1.75.36.17,1.88,2.47,3.45,5.14,2.57,4.41,6.13,8.94,7.63,9.67.33.17.95.19,1.38.05.57-.19,1.57.69,3.9,3.41,3.37,3.96,5.08,5.12,6.32,4.29.76-.5,1.26-.12,4.8,3.86,5.09,5.67,10.46,11.07,11.55,11.62.95.47,1.43-.21,1.64-2.32.07-.78.31-1.35.5-1.26s2.88,2.7,5.96,5.81c7.56,7.59,11.64,10.95,12.95,10.67.52-.12,1.02-.62,1.07-1.04.14-1.4,2.9,1.28,4.68,4.58.4.74.71.9,1.14.66.4-.24,2.59,1.21,7.34,4.91,14.88,11.57,19.51,14.84,21.08,14.91,1.26.05,1.54-.17,1.93-1.52.36-1.33.52-1.45,1.07-.85,1.12,1.23,11,9.79,14.26,12.35,2.49,1.97,3.33,2.99,4.28,5.38.64,1.61,1.43,2.99,1.71,3.01,1.28.19,1.38-.88.31-3.18-.64-1.38-1-2.77-.78-3.18.19-.4.07-2.04-.31-3.68l-.67-2.96,2.85,1.8c1.57,1,5.63,3.6,9.03,5.79,3.4,2.18,10,6.05,14.68,8.56,7.65,4.12,8.63,4.55,9.69,4.2,1.14-.48,1.95-1.59,1.81-2.7ZM201.61,133.65c-4.16-5.74-19.51-24.78-28.94-35.87-1.47-1.73-2.52-3.13-2.38-3.18.36-.1,2.47,1.33,17.42,11.76l10.29,7.16,2.35,6.45c2.02,5.53,6.44,19.94,6.25,20.32-.05.12-2.28-2.87-4.99-6.64ZM199.76,144.39c-2.04-1.23-8.46-5.29-14.28-9.01l-10.57-6.78-2.28-5.74c-1.26-3.18-2.85-7.85-3.59-10.46-1.28-4.72-1.71-5.5-2.45-4.77-.62.62,2.45,11.14,4.94,17,1.26,2.94,2.16,5.83,2.04,6.45-.21,1-.33.85-1.02-1.02-.59-1.61-13.14-32.15-13.83-33.6-.12-.28,4.73,5.12,11.74,13.09,3.07,3.49,10.12,11.31,15.73,17.45,13.4,14.68,17.46,19.23,17.37,19.42-.07.09-1.78-.83-3.8-2.04ZM197.1,110.44c-.57-.43-3.71-2.63-6.89-4.84-3.21-2.21-8.39-5.83-11.48-8.01-3.11-2.18-7.65-5.15-10.1-6.59-3.83-2.23-5.56-3.68-12.19-10.24-4.25-4.2-7.58-7.68-7.44-7.75.17-.07,6.34,3.18,13.76,7.18,17.32,9.39,16.89,9.2,17.27,8.44.26-.54-1.59-1.64-10.57-6.28-8.44-4.36-10.91-5.83-10.95-6.45-.05-.64-1.43-1.4-6.75-3.7-5.46-2.37-6.87-3.15-7.65-4.24l-.97-1.35,1.95.62c1.07.36,3.45,1.19,5.28,1.87,1.81.69,3.4,1.07,3.52.83.26-.52-1.97-1.54-7.72-3.53l-4.82-1.66-4.92-5.14c-2.68-2.82-7.41-7.68-10.48-10.79l-5.56-5.62,2.71.97c1.5.55,5.68,2.25,9.27,3.82,6.7,2.89,9.43,3.27,3.97.57-4.8-2.39-15.4-6.45-15.97-6.12-.33.19-1.28-.43-2.61-1.73l-2.09-2.06,3.35.62c5.75,1.07,12.17,3.63,21.48,8.54,4.85,2.56,8.84,4.48,8.91,4.29.36-.71-5.04-3.77-14.21-8.01-9.6-4.46-14.59-6.09-18.63-6.19-1.81-.05-2.07-.21-5.85-3.96-3.71-3.68-3.85-3.89-2.21-3.46,4.73,1.26,14.71,5.1,24.33,9.37,11.69,5.17,17.8,8.56,29.44,16.36,6.3,4.2,22.31,14.63,23.17,15.08.19.09.07.66-.21,1.26-.43.83.17,2.59,2.49,7.47,3.78,7.92,9.03,19.75,11.5,26.01l1.88,4.72-1.47.28c-.81.12-1.92-.12-2.52-.54ZM183.27,115.25c-3.9-4.34-10.74-12.04-15.26-17.14-4.49-5.1-10.79-11.93-13.95-15.17-3.18-3.27-11.88-12.33-19.34-20.13-14.88-15.55-49.92-50.55-59.97-59.87-5.8-5.36-27.71-24.02-34.07-28.97-1.43-1.11-2.52-2.18-2.42-2.35.1-.19,1-.21,2.09-.05,1.64.24,2.57.78,6.03,3.63,2.28,1.85,4.02,3.53,3.92,3.77-.12.21.55.76,1.43,1.21,2.76,1.38,19.82,17.81,57.41,55.24,22.5,22.43,28.16,28.21,31.2,31.96,1.52,1.9,11.38,12.19,19.7,20.6,4.8,4.84,12.14,12.92,16.35,17.97,4.21,5.07,9.15,10.95,11.02,13.11,5.99,6.92,3.16,4.32-4.13-3.82ZM167.39,130.57c-2.19-1.9-5.89-5.19-8.15-7.28-2.28-2.09-4.37-3.77-4.66-3.75-.88.07-1.26,1.35-.9,3.11.4,1.94-.02,2.35-.76.71-.29-.62-1.35-2.77-2.4-4.86-1.04-2.06-3.28-7.94-4.94-13.09-1.69-5.15-3.23-9.27-3.47-9.2-1.07.36,4.59,17.95,7.6,23.69.86,1.64,1.45,3.04,1.31,3.11-.36.12-18.94-14.11-23.17-17.74-3.45-2.96-3.8-3.49-7.01-10.31-2.42-5.15-3.61-7.11-4.16-6.92-.88.29-.95.05,1.81,5.95,1.52,3.25,1.83,4.39,1.19,4.22-.69-.19-1.02.1-1.38,1.21-.29.85-.69,1.35-.98,1.21-1.16-.57-4.01-9.39-7.29-22.48-1.93-7.73-5.99-21.6-9.05-30.92-5.51-16.76-5.68-17.83-2.09-13.3,1.81,2.3,5.56,13.87,10.74,33.08,2.12,7.85,4.11,14.37,4.44,14.53,1.31.66,1.54-.5.71-3.53-3.11-11.26-10.98-37.77-11.62-39.14l-.81-1.64,1,.9c3.42,3.11,9.05,18.35,16.44,44.36,1.73,6.09,3.37,11.03,3.68,11,1.16-.09-9.36-34.81-14.28-47.11l-1.66-4.15,2.78,2.82c2.69,2.73,2.9,3.15,5.94,12.71,1.74,5.45,3.3,9.6,3.49,9.25.19-.36-.83-4.22-2.23-8.54-1.4-4.31-2.45-7.92-2.28-7.97.17-.05,2.3,1.97,4.73,4.46l4.42,4.53,6.01,18.23c7.27,22.05,8.75,25.91,12.62,32.98,4.3,7.82,5.06,6.61.93-1.47-2.33-4.58-5.32-12.38-9.98-26.08-3.66-10.74-6.54-19.61-6.37-19.65.5-.17,11.12,11.64,10.88,12.12-.38.74,11.43,39.57,12.02,39.52.31-.02-1.5-6.88-3.99-15.22-6.04-20.15-7.03-23.69-6.73-23.52.12.05,1.17,1.11,2.26,2.3,1.66,1.78,2.23,3.03,3.11,6.97,1.74,7.54,6.13,23.24,6.61,23.47.86.43.71-.45-1.04-6.57-2.54-8.82-5.16-19.46-4.8-19.56.14-.05,1.02.74,1.97,1.78,1.28,1.4,1.97,3.04,2.83,6.73,1.04,4.48,1.64,5.88,2.11,4.95.1-.21-.24-1.97-.71-3.91-.5-1.92-.76-3.58-.57-3.65.97-.33,4.49,5.36,6.87,11.1,7.98,19.3,13.83,34.19,13.43,34.14-.24-.07-2.23-1.66-4.44-3.58ZM183.41,68.24c-1.9-1.19-9.91-6.43-17.89-11.71-12.9-8.56-15.47-10.1-24.24-14.42-11.36-5.62-19.53-8.99-29.61-12.21l-7.18-2.3-2.8-2.77-2.8-2.77,7.75,1.97c14.85,3.77,16.06,4.2,30.96,11.26,8.74,4.15,14.07,6.47,14.21,6.16.31-.62-27.04-13.61-31.77-15.1-1.95-.62-7.77-2.16-13-3.49l-9.48-2.37-4.23-4.32-4.23-4.39,6.56,1.71c6.53,1.71,7.39,1.85,7.13,1.09-.17-.5-12.43-3.79-13.85-3.75-.69.02-1.66-.62-3.07-2.04-1.97-1.99-2-2.06-.52-1.66.86.24,4.25,1.49,7.63,2.82,7.15,2.82,8.65,3.25,8.32,2.47-.12-.33-4.7-2.28-10.15-4.36-9.69-3.7-9.96-3.84-12.38-6.09-2.99-2.8-2.68-2.77,7.3.83,11.26,4.05,11.36,4.08,11.6,3.63.12-.26.12-.47-.02-.55-1.31-.64-15.21-5.6-18.7-6.66-4.35-1.33-4.59-1.45-7.08-3.91-3.3-3.27-3.52-3.63-1.97-3.27.74.17,1.35.55,1.38.83.05.28,2.4,1.16,5.16,1.9,6.27,1.71,16.42,5.38,24.4,8.84,5.56,2.42,7.86,3.08,7.58,2.23-.17-.5-16.78-7.23-23.83-9.67-3.33-1.16-6.04-2.21-6.08-2.35-.12-.38,8.84,1.66,16.32,3.7,8.22,2.23,18.08,6.59,42.25,18.59l22.64,11.24,3.54,3.96c3.97,4.43,4.44,5.24,3.11,5.1-.52-.05-1.14.28-1.4.81-.33.66.19,1.71,2,3.91,6.84,8.35,11.5,14.79,15.59,21.48,2.47,4.03,4.44,7.42,4.4,7.52-.02.17-1.59-.69-3.52-1.87ZM105.35-.76c-9.96-3.84-34.74-9.63-36.9-8.63-.88.4-1.19.24-3.47-1.85-1.35-1.23-2.59-2.51-2.71-2.8-.52-1.26,15.78,1.42,25.14,4.15,3.68,1.07,9.6,3.2,13.26,4.79,3.92,1.71,6.68,2.66,6.82,2.39.31-.64-11.03-5.57-17.23-7.49-8.27-2.56-22.84-5.38-27.68-5.36-1.78,0-2.35-.21-3.66-1.4l-1.57-1.42,6.42,1.4c5.99,1.3,8.46,1.54,6.65.66-.4-.21-3.71-1.07-7.32-1.9-6.73-1.56-9.01-2.37-8.67-3.06.12-.24,3.9.43,8.46,1.45,4.56,1.02,8.55,1.78,8.93,1.68,1.26-.38-4.3-1.99-12.21-3.53-4.78-.95-8.13-1.85-8.63-2.37-.83-.81-.81-.83.31-.69.64.07,5.54,1.09,10.95,2.25,5.42,1.19,9.91,1.94,10,1.71.29-.57-2.07-1.19-13.9-3.65-5.65-1.16-10.67-2.47-11.12-2.85-1.12-.97,11.14.92,22.17,3.44,8.1,1.85,11.6,2.3,9.41,1.21-1.62-.81-19.75-4.55-26.83-5.55-3.97-.57-7.27-1.14-7.34-1.3-.47-1.4,25.24-.36,37.85,1.54,4.97.74,16.21,4.27,24.07,7.56,5.01,2.09,16.44,8.46,16.73,9.32.07.19-.71.52-1.69.74-.97.21-1.92.64-2.07.95-.36.71.45,1.3,7.06,5.33,4.89,2.99,15.28,10.46,18.34,13.18l1.21,1.09-1.57-.05c-1.74-.02-2.38.64-1.81,1.87.19.4,2.83,2.87,5.85,5.45l5.51,4.72-21.36-10.29C121.08,6.23,108.73.54,105.35-.76ZM106.68,90.62c-3.66-3.75-6.99-6.83-7.44-6.88-.57-.07-.95.43-1.35,1.73-.48,1.52-.66,1.71-1.14,1.18-.33-.38-.81-.76-1.14-.93-1.09-.54-6.49-9.18-9.22-14.75-2.78-5.67-8.72-23.85-13.24-40.52-2.07-7.66-2.68-9.25-3.18-8.23-.69,1.38,11.79,42.89,14.54,48.44,1.19,2.39,2.12,4.39,2.07,4.5-.36.69-3.83-5.29-6.08-10.43-4.73-10.81-8.39-22.07-12.52-38.43-4.35-17.24-6.51-25.16-7.58-27.84l-.67-1.68,1.47,1.14c2.14,1.66,2.64,2.66,4.61,9.53.98,3.39,1.95,6.26,2.16,6.38.83.4.85-1.26.05-3.49-.48-1.35-1.21-3.84-1.62-5.55l-.74-3.11,1.31,1.21c2.02,1.85,6.25,15.41,10.24,32.93.36,1.56.9,2.75,1.16,2.56.62-.38-3.75-18.56-6.34-26.41-1.74-5.22-1.76-6.64-.07-4.29.31.45,1.78,5.33,3.28,10.91,1.5,5.57,2.97,10.08,3.3,10.05.33-.02.33-1,0-2.16-.71-2.44-3.66-13.51-4.18-15.7l-.33-1.4,2.23,2.04c2.12,1.94,2.31,2.37,3.47,7.9,1.52,7.28,4.28,16.29,4.94,16.08.26-.09-.19-2.42-1.02-5.17-1.54-5.14-3.63-14.06-3.37-14.53.07-.17.62.21,1.19.83.57.62,1.5,3.08,2.07,5.5,2.04,8.82,4.02,15.65,4.44,15.25.24-.24-.59-4.43-1.83-9.29-1.23-4.86-2.19-8.87-2.11-8.89.1-.02.83.59,1.66,1.38,1.09,1.02,1.71,2.44,2.23,5.15.4,2.06,1,3.72,1.33,3.7.33-.02.31-1.35-.05-2.94-.36-1.56-.48-2.8-.24-2.68,2.35,1.19,12.19,29.21,18.51,52.85,2.33,8.65,4.61,16.88,5.11,18.21.48,1.35.85,2.49.81,2.56-.07.02-3.07-2.96-6.72-6.71ZM79.98,72.57c-.24.19-3.61-4.15-5.54-7.14-1.95-2.99-3.23-3.77-3.92-2.42-.19.38-.57.59-.81.47-1.14-.57-4.04-4.93-7.56-11.4-2.12-3.91-4.28-7.28-4.8-7.54-1.69-.85-3.9-9.39-6.06-23.38-3.35-21.67-4.94-28.4-8.34-35.38-1.14-2.35-2.07-4.39-2-4.48.57-1.16,6.15,12.19,8.34,19.96,1.52,5.41,2.54,7.56,2.45,5.17-.05-1.45-4.39-14.98-6.18-19.23l-1.47-3.49,1.47,1.14c1.62,1.26,5.16,9.32,8.15,18.54.95,2.92,2.02,5.43,2.42,5.62.81.4-.97-5.38-4.51-14.61-2.26-5.86-2.38-6.4-1.14-5.45.88.69,2.09,2.92,3.4,6.24,1.14,2.87,2.28,5.1,2.54,4.98.29-.09-.24-2.09-1.17-4.41l-1.66-4.24,1.52,1.26c2.97,2.42,4.3,6.35,10.43,30.94,2.23,8.89,4.78,18.56,5.7,21.58,1.88,6.12,7.08,19.13,9.31,23.38,1.28,2.44,1.36,2.89.52,3.32-.55.26-1.04.52-1.12.57ZM91.93-29.19c-2.52.24-7.34.02-11.67-.52-4.09-.52-11.05-1.21-15.54-1.54-9.79-.71-13.99-1.28-21.27-2.89-5.56-1.23-7.87-2.11-9.74-3.7-.95-.81-.64-.9,3.66-1.4,16.09-1.78,35.86.52,52.37,6.07,9.81,3.3,9.22,3.06,7.77,3.32-.71.14-3.18.43-5.58.66ZM54.34,44.48c-1.52-2.54-3.59-7.35-5.66-13.06-1.35-3.79-2.35-5.74-3.11-6.12-1.4-.69-4.78-8.39-4.09-9.29.26-.36-.33-3.82-1.33-7.75-1.66-6.54-2.47-9.6-6.58-24.97-1.19-4.43-1.19-4.77-.17-2.75,2.85,5.55,5.23,12.66,8.34,25.01,1.83,7.26,3.52,13.04,3.75,12.8.67-.64-4.71-22.33-7.32-29.59-1.26-3.51-3.45-8.44-4.87-11.05-1.4-2.56-2.21-4.36-1.76-3.98.45.38,1.57,1.26,2.52,1.94,3.68,2.68,8.86,13.23,11,22.36.76,3.25,2.42,12.61,3.68,20.72,1.69,10.91,2.85,16.38,4.4,20.79,1.14,3.3,2.07,6.07,2.04,6.16.02.12-.38-.43-.85-1.23ZM45.09-31.68c-2.47.31-4.32-.28-5.7-1.85-.57-.64.21-.62,3.14.07,2.14.5,4.18.97,4.54,1.04,1.17.21.57.43-1.97.74ZM37.49-29.28c-.17.31-.64.21-1.17-.24-1.64-1.4-20.53-14.63-27.92-19.54-3.97-2.66-7.25-4.93-7.29-5.07-.31-.88,3.61.81,10.6,4.58,7.53,4.05,14.14,8.51,24.21,16.34,4.33,3.37,4.66,3.72,3.11,3.56-.74-.09-1.4.07-1.54.38Z"/>
        <path class="cls-3" d="M193.03,118.19c-1.76-1.16-3.38-2.09-3.66-2.09-.95.02.48,1.38,3.45,3.25,4.06,2.61,4.28,1.54.21-1.16Z"/>
        <path class="cls-3" d="M193.72,115.32c-.55-.9-11.19-8.51-11.67-8.35-.76.24-.24.71,5.08,4.62,5.04,3.68,7.34,4.98,6.58,3.72Z"/>
        <path class="cls-3" d="M189.78,99.2c-2.76-1.71-5.28-3.08-5.56-3.08-1.16.02.74,1.54,5.3,4.2,6.56,3.84,6.77,2.87.26-1.11Z"/>
        <path class="cls-3" d="M169.56,70.32c-3.61-2.18-7.15-4.39-7.82-4.86-.86-.62-1.26-.66-1.31-.21-.14,1.02,15.09,10.34,15.52,9.48.1-.24-2.78-2.21-6.39-4.41Z"/>
        <path class="cls-3" d="M171.27,73.81c-2.61-1.9-10.65-5.74-10.91-5.22-.14.28,1.38,1.28,3.61,2.39,2.09,1.04,4.87,2.61,6.13,3.42,2.66,1.75,3.71,1.26,1.16-.59Z"/>
        <path class="cls-3" d="M145.72,62.09c-4.13-1.85-7.32-2.99-7.77-2.82-.55.21.55.83,4.06,2.32,2.66,1.11,6.01,2.63,7.49,3.37,1.74.85,2.78,1.14,2.95.81.21-.43-1.57-1.4-6.72-3.67Z"/>
        <path class="cls-3" d="M144.3,58.49c-4.75-2.13-8.51-3.58-8.93-3.41-.52.19,1.09,1.07,5.49,2.99,3.44,1.52,7.32,3.27,8.67,3.94,1.54.76,2.54,1.02,2.71.69.19-.38-1.9-1.47-7.94-4.2Z"/>
        <path class="cls-3" d="M156.58,114.04c-.62-2.16-1.35-3.93-1.62-3.84-.5.17,1.28,7.59,2,8.37.81.88.66-.81-.38-4.53Z"/>
        <path class="cls-3" d="M137.03,80.8c-2.16-8.63-2.71-10.22-3.21-9.22-.24.45,4.25,19.04,4.63,19.23.88.45.5-2.25-1.43-10.01Z"/>
        <path class="cls-3" d="M177.92,59.04c-.76-.78-10.15-7.68-11.12-8.16-.47-.24-.93-.24-1.05,0-.24.47,11.69,9.06,12.29,8.87.24-.1.19-.4-.12-.71Z"/>
        <path class="cls-3" d="M130.61,20.86c-5.23-1.99-16.42-5.62-16.89-5.48-1.05.36.43,1.02,6.56,3.06,3.71,1.23,8.08,2.73,9.77,3.34,1.66.62,3.33.97,3.64.78.38-.21-.57-.76-3.07-1.71Z"/>
        <path class="cls-3" d="M129.02,23.9c-2.76-1.38-14.38-5.33-15.02-5.14-.93.28-.52.47,8.44,3.77,4.23,1.56,7.79,2.68,7.91,2.49.1-.21-.48-.69-1.33-1.11Z"/>
        <path class="cls-3" d="M113.79,20.25c-.17-.52-14.33-4.53-14.54-4.13-.28.55.88,1,7.56,2.96,5.82,1.71,7.22,1.94,6.99,1.16Z"/>
        <path class="cls-3" d="M97.56,8.2c-2.42-1.21-10.95-4.2-13.92-4.88-.69-.17-1.19-.07-1.14.19.02.26,2.71,1.33,5.97,2.39,3.25,1.07,7.13,2.51,8.6,3.25,1.5.74,2.8,1.11,2.92.85.12-.26-1-1.09-2.42-1.8Z"/>
        <path class="cls-3" d="M87.79,49.27c-1.9-7.35-2.47-8.89-2.9-8.01-.29.57,3.68,15.96,4.18,16.22.86.43.67-.71-1.28-8.2Z"/>
        <path class="cls-3" d="M82.69,46.8c-.57-1.97-1.33-3.68-1.66-3.7-.33-.02,0,1.94.71,4.34.71,2.39,1.47,4.08,1.66,3.72.19-.4-.14-2.4-.71-4.36Z"/>
        <path class="cls-3" d="M57.26,20.67c-.33-1.92-.62-3.86-.62-4.32-.02-.47-.29-.85-.62-.9-.67-.09.43,8.89,1.14,9.25.69.33.71-.4.1-4.03Z"/>
        <path class="cls-3" d="M53.67,16.26c-.45-2.44-1.02-3.7-1.38-3.01-.38.74.69,5.86,1.21,5.83.74-.07.74.14.17-2.82Z"/>
      </g>
    </g>
  </g>
</svg>