<svg width="305" height="379" viewBox="0 0 305 379" fill="none" xmlns="http://www.w3.org/2000/svg">
<g clip-path="url(#clip0_455_165)">
<path d="M296.985 206.159C296.937 205.779 296.272 204.617 295.512 203.574C294.704 202.46 292.066 195.11 289.143 185.934C284.344 170.807 284.201 170.167 285.437 169.93C287.314 169.551 287.147 168.27 284.154 160.849C281.92 155.301 273.603 136.902 271.203 132.231C270.586 131.022 270.562 130.619 271.132 130.88C271.56 131.07 272.463 131.07 273.057 130.88C274.673 130.335 274.388 129.6 269.255 120.779C264.408 112.434 258.729 104.349 253.905 98.9427C250.959 95.6233 250.887 95.4811 252.075 95.0543C253.002 94.6986 253.263 94.343 253.216 93.5606C253.026 91.3793 243.497 81.2315 234.349 73.4546C229.478 69.3054 229.169 68.9498 230.381 68.8075C232.377 68.5467 232.781 67.1715 231.284 65.7252C228.86 63.3542 219.451 56.3124 214.841 53.3961C205.812 47.682 206.239 48.014 207.57 47.4924C209.091 46.9233 209.613 45.7378 208.734 44.8843C207.095 43.2957 201.107 39.6207 195.903 37.0126C191.103 34.5942 183.737 31.749 177.179 29.7337L175.397 29.1884L178.533 28.7379C182.882 28.0977 184.545 27.3864 184.189 26.2958C183.666 24.7072 166.557 19.2777 155.722 17.2623C144.317 15.1284 129.846 14.5357 119.581 15.7686L113.807 16.4562L107.961 12.2833C100.667 7.18564 88.2154 0.594304 85.1502 0.214947C84.0572 0.0963976 82.2038 0.428335 81.1107 0.949952L79.1147 1.92206L79.8751 4.1982L80.6355 6.47434L93.1578 15.1047C105.205 23.4032 105.751 23.8299 107.415 26.5566C111.074 32.5552 113.569 39.6918 116.04 51.2148C118.963 64.8243 123.549 79.0739 126.068 82.3458C127.042 83.6262 128.563 86.5425 129.489 88.8897C131.58 94.2482 135.501 102.049 136.927 103.732C137.545 104.467 138.424 105.012 138.923 105.012C139.493 104.989 140.039 105.51 140.467 106.411C140.824 107.194 141.394 107.976 141.75 108.166C142.107 108.332 143.627 110.632 145.196 113.311C147.762 117.721 151.326 122.249 152.823 122.984C153.156 123.15 153.774 123.174 154.201 123.032C154.772 122.842 155.77 123.719 158.098 126.446C161.472 130.406 163.183 131.567 164.419 130.738C165.179 130.24 165.678 130.619 169.219 134.602C174.304 140.269 179.674 145.675 180.767 146.22C181.717 146.694 182.193 146.007 182.406 143.897C182.478 143.114 182.715 142.545 182.905 142.64C183.095 142.735 185.781 145.343 188.87 148.449C196.426 156.036 200.513 159.403 201.82 159.118C202.342 159 202.841 158.502 202.889 158.075C203.031 156.676 205.788 159.355 207.57 162.651C207.974 163.386 208.283 163.552 208.71 163.315C209.114 163.078 211.3 164.524 216.053 168.223C230.928 179.793 235.561 183.065 237.129 183.136C238.389 183.184 238.674 182.97 239.054 181.619C239.41 180.291 239.577 180.173 240.123 180.765C241.24 181.998 251.125 190.558 254.38 193.118C256.875 195.086 257.707 196.106 258.657 198.5C259.299 200.113 260.083 201.488 260.368 201.511C261.651 201.701 261.746 200.634 260.677 198.334C260.036 196.959 259.679 195.56 259.893 195.157C260.083 194.754 259.964 193.118 259.584 191.482L258.919 188.518L261.77 190.32C263.338 191.316 267.402 193.924 270.8 196.106C274.197 198.287 280.803 202.152 285.484 204.665C293.135 208.79 294.11 209.217 295.179 208.862C296.319 208.387 297.127 207.273 296.985 206.159ZM284.819 190.273C280.661 184.535 265.311 165.496 255.877 154.4C254.404 152.669 253.358 151.27 253.501 151.223C253.857 151.128 255.972 152.551 270.918 162.983L281.207 170.143L283.559 176.592C285.579 182.117 289.999 196.532 289.809 196.912C289.761 197.03 287.528 194.043 284.819 190.273ZM282.965 201.014C280.922 199.781 274.506 195.726 268.685 192.004L258.111 185.223L255.83 179.485C254.57 176.308 252.978 171.637 252.242 169.029C250.959 164.311 250.531 163.528 249.794 164.263C249.176 164.88 252.242 175.407 254.737 181.263C255.996 184.203 256.899 187.096 256.78 187.712C256.566 188.708 256.447 188.566 255.758 186.693C255.164 185.081 242.618 154.542 241.929 153.096C241.81 152.811 246.658 158.217 253.667 166.184C256.733 169.669 263.79 177.493 269.398 183.634C282.799 198.311 286.862 202.863 286.767 203.053C286.696 203.147 284.985 202.223 282.965 201.014ZM280.304 167.061C279.734 166.634 276.597 164.429 273.413 162.224C270.205 160.019 265.025 156.392 261.936 154.21C258.824 152.029 254.285 149.065 251.838 147.619C248.012 145.39 246.278 143.944 239.648 137.376C235.395 133.18 232.068 129.694 232.211 129.623C232.377 129.552 238.555 132.8 245.969 136.807C263.291 146.196 262.863 146.007 263.243 145.248C263.505 144.703 261.651 143.612 252.669 138.965C244.234 134.602 241.763 133.132 241.715 132.516C241.668 131.876 240.29 131.117 234.967 128.817C229.502 126.446 228.1 125.664 227.316 124.573L226.342 123.222L228.29 123.838C229.359 124.194 231.735 125.024 233.565 125.711C235.371 126.399 236.963 126.778 237.082 126.541C237.343 126.019 235.11 125 229.359 123.008L224.536 121.348L219.617 116.203C216.932 113.382 212.203 108.521 209.138 105.415L203.578 99.7963L206.287 100.768C207.784 101.314 211.966 103.021 215.554 104.586C222.255 107.478 224.987 107.858 219.522 105.155C214.722 102.76 204.124 98.7056 203.554 99.0375C203.222 99.2272 202.271 98.6108 200.94 97.3067L198.849 95.244L202.2 95.8604C207.95 96.9274 214.366 99.488 223.68 104.396C228.528 106.957 232.52 108.877 232.591 108.687C232.947 107.976 227.553 104.918 218.381 100.674C208.782 96.2161 203.792 94.5801 199.752 94.4853C197.946 94.4378 197.685 94.2719 193.907 90.5257C190.2 86.8507 190.058 86.6373 191.697 87.0641C196.426 88.3207 206.406 92.1617 216.029 96.4295C227.72 101.598 233.826 104.989 245.47 112.789C251.766 116.986 267.782 127.418 268.637 127.869C268.827 127.964 268.708 128.533 268.423 129.125C267.996 129.955 268.59 131.71 270.918 136.594C274.696 144.513 279.948 156.344 282.419 162.604L284.296 167.322L282.823 167.606C282.015 167.725 280.898 167.488 280.304 167.061ZM266.475 171.874C262.578 167.535 255.735 159.83 251.22 154.732C246.729 149.634 240.432 142.806 237.272 139.558C234.088 136.286 225.391 127.229 217.93 119.428C203.055 103.874 168.007 68.8786 157.956 59.5607C152.158 54.2022 130.25 35.5426 123.882 30.5872C122.456 29.4729 121.363 28.4059 121.458 28.24C121.553 28.0503 122.456 28.0266 123.549 28.1926C125.188 28.4297 126.115 28.975 129.584 31.8202C131.865 33.6695 133.6 35.3529 133.505 35.59C133.386 35.8034 134.052 36.3487 134.931 36.7992C137.687 38.1744 154.748 54.6053 192.339 92.0431C214.841 114.473 220.496 120.258 223.538 124.004C225.058 125.901 234.92 136.191 243.236 144.608C248.036 149.445 255.378 157.53 259.584 162.58C263.79 167.654 268.732 173.534 270.609 175.691C276.597 182.615 273.77 180.007 266.475 171.874ZM250.602 187.191C248.416 185.294 244.709 181.998 242.452 179.912C240.171 177.825 238.08 176.142 237.795 176.166C236.915 176.237 236.535 177.517 236.892 179.272C237.296 181.216 236.868 181.619 236.131 179.983C235.846 179.366 234.777 177.209 233.731 175.122C232.686 173.06 230.452 167.18 228.789 162.035C227.102 156.89 225.557 152.764 225.32 152.835C224.251 153.191 229.906 170.784 232.924 176.521C233.779 178.157 234.373 179.556 234.23 179.627C233.874 179.746 215.292 165.52 211.063 161.892C207.617 158.929 207.261 158.407 204.053 151.579C201.63 146.433 200.441 144.466 199.895 144.655C199.016 144.94 198.944 144.703 201.701 150.606C203.222 153.855 203.53 154.993 202.889 154.827C202.2 154.637 201.867 154.922 201.511 156.036C201.226 156.89 200.822 157.387 200.536 157.245C199.372 156.676 196.521 147.856 193.242 134.768C191.317 127.039 187.254 113.169 184.189 103.851C178.676 87.0878 178.509 86.0208 182.097 90.5494C183.903 92.8493 187.658 104.42 192.838 123.625C194.953 131.473 196.948 137.993 197.281 138.159C198.588 138.823 198.826 137.661 197.994 134.626C194.881 123.364 187.016 96.8562 186.375 95.4811L185.567 93.8451L186.565 94.7461C189.986 97.8521 195.618 113.097 203.008 139.107C204.742 145.201 206.382 150.132 206.691 150.109C207.855 150.014 197.329 115.302 192.41 102.997L190.747 98.8479L193.527 101.669C196.212 104.396 196.426 104.823 199.467 114.378C201.202 119.831 202.77 123.98 202.96 123.625C203.15 123.269 202.129 119.404 200.727 115.089C199.325 110.774 198.279 107.17 198.445 107.123C198.612 107.075 200.75 109.091 203.174 111.58L207.594 116.109L213.605 134.341C220.876 156.392 222.35 160.256 226.223 167.322C230.524 175.146 231.284 173.937 227.149 165.852C224.821 161.276 221.827 153.475 217.17 139.771C213.51 129.03 210.635 120.163 210.801 120.116C211.3 119.95 221.922 131.757 221.684 132.231C221.304 132.966 233.114 171.803 233.708 171.756C234.017 171.732 232.211 164.88 229.716 156.534C223.68 136.381 222.682 132.848 222.991 133.014C223.11 133.061 224.156 134.128 225.249 135.314C226.912 137.092 227.482 138.348 228.361 142.284C230.096 149.824 234.492 165.52 234.967 165.757C235.822 166.184 235.68 165.307 233.922 159.189C231.379 150.369 228.765 139.724 229.122 139.629C229.264 139.581 230.143 140.364 231.094 141.407C232.377 142.806 233.066 144.442 233.922 148.141C234.967 152.622 235.561 154.021 236.036 153.096C236.131 152.883 235.799 151.128 235.323 149.184C234.824 147.263 234.563 145.604 234.753 145.533C235.727 145.201 239.244 150.891 241.62 156.629C249.604 175.929 255.45 190.818 255.046 190.771C254.808 190.7 252.812 189.111 250.602 187.191ZM266.617 124.858C264.717 123.672 256.709 118.432 248.725 113.145C235.822 104.586 233.256 103.045 224.488 98.7293C213.13 93.1101 204.956 89.7433 194.881 86.5187L187.705 84.2189L184.901 81.4448L182.097 78.6708L189.844 80.6387C204.695 84.4086 205.907 84.8353 220.805 91.9009C229.549 96.0501 234.872 98.3737 235.015 98.0654C235.323 97.449 207.974 84.456 203.245 82.9623C201.297 82.3458 195.475 80.8047 190.248 79.4769L180.767 77.1059L176.537 72.7908L172.308 68.4044L178.866 70.1115C185.4 71.8187 186.256 71.9609 185.994 71.2022C185.828 70.7043 173.567 67.4086 172.141 67.456C171.452 67.4798 170.478 66.8396 169.076 65.417C167.104 63.4254 167.08 63.3542 168.553 63.7573C169.409 63.9944 172.807 65.251 176.181 66.5788C183.333 69.4003 184.83 69.827 184.497 69.0446C184.379 68.7127 179.793 66.7685 174.351 64.682C164.656 60.9833 164.395 60.841 161.971 58.5886C158.977 55.7908 159.286 55.8145 169.266 59.4184C180.529 63.4728 180.624 63.4965 180.862 63.046C180.981 62.7852 180.981 62.5718 180.838 62.5007C179.531 61.8605 165.631 56.9052 162.138 55.8382C157.789 54.5105 157.552 54.3919 155.057 51.9261C151.754 48.6541 151.54 48.2985 153.085 48.6541C153.821 48.8201 154.439 49.1995 154.463 49.484C154.51 49.7685 156.863 50.6458 159.619 51.3808C165.892 53.0879 176.038 56.7629 184.022 60.2245C189.582 62.6429 191.887 63.3068 191.602 62.4533C191.436 61.9554 174.826 55.2218 167.769 52.7797C164.443 51.6179 161.734 50.5746 161.686 50.4324C161.567 50.053 170.526 52.0921 178.01 54.1311C186.232 56.3598 196.093 60.7225 220.259 72.7196L242.903 83.9581L246.444 87.9176C250.412 92.3514 250.887 93.1575 249.557 93.0152C249.034 92.9678 248.416 93.2998 248.155 93.8214C247.822 94.4853 248.345 95.5285 250.151 97.7335C256.994 106.079 261.651 112.528 265.738 119.215C268.209 123.245 270.182 126.636 270.134 126.731C270.11 126.897 268.542 126.043 266.617 124.858ZM188.561 55.8619C178.605 52.0209 153.821 46.2357 151.659 47.2316C150.78 47.6346 150.471 47.4687 148.19 45.3822C146.835 44.1493 145.6 42.8689 145.481 42.5844C144.958 41.3278 161.259 44.007 170.621 46.7336C174.304 47.8006 180.22 49.9345 183.88 51.523C187.8 53.2301 190.557 54.1785 190.699 53.9177C191.008 53.2776 179.674 48.3459 173.472 46.4254C165.203 43.8648 150.637 41.0433 145.79 41.067C144.008 41.067 143.437 40.8536 142.13 39.6681L140.562 38.2455L146.978 39.6444C152.966 40.9484 155.437 41.1855 153.631 40.3083C153.227 40.0949 149.924 39.2413 146.313 38.4115C139.588 36.8466 137.307 36.0405 137.64 35.3529C137.758 35.1158 141.536 35.7797 146.099 36.7992C150.661 37.8187 154.653 38.5775 155.033 38.4826C156.292 38.1033 150.732 36.491 142.82 34.9499C138.043 34.0015 134.693 33.1005 134.194 32.5789C133.362 31.7727 133.386 31.749 134.503 31.8913C135.145 31.9624 140.039 32.9819 145.457 34.1437C150.875 35.3292 155.366 36.0879 155.461 35.8508C155.746 35.2818 153.393 34.6653 141.56 32.1995C135.905 31.0377 130.891 29.7337 130.44 29.3543C129.323 28.3822 141.584 30.279 152.609 32.7923C160.712 34.6416 164.205 35.0921 162.019 34.0015C160.403 33.1953 142.273 29.4492 135.192 28.4534C131.224 27.8843 127.921 27.3153 127.85 27.1493C127.375 25.7504 153.085 26.7937 165.702 28.6905C170.668 29.4255 181.907 32.9582 189.772 36.2539C194.786 38.3404 206.216 44.7183 206.501 45.5719C206.572 45.7615 205.788 46.0935 204.814 46.3069C203.839 46.5203 202.889 46.947 202.746 47.2553C202.39 47.9666 203.198 48.5593 209.804 52.59C214.698 55.5774 225.082 63.046 228.147 65.7726L229.359 66.8633L227.791 66.8159C226.056 66.7922 225.415 67.456 225.985 68.689C226.175 69.092 228.813 71.5578 231.83 74.1422L237.343 78.8605L215.982 68.5704C204.291 62.8563 191.935 57.166 188.561 55.8619ZM189.891 147.24C186.232 143.493 182.905 140.411 182.454 140.364C181.884 140.293 181.503 140.791 181.099 142.095C180.624 143.612 180.434 143.802 179.959 143.28C179.626 142.901 179.151 142.521 178.818 142.355C177.725 141.81 172.331 133.18 169.599 127.608C166.819 121.941 160.878 103.756 156.364 87.0878C154.296 79.4295 153.679 77.8409 153.18 78.8605C152.491 80.2356 164.965 121.752 167.722 127.3C168.91 129.694 169.837 131.686 169.789 131.805C169.433 132.492 165.963 126.517 163.706 121.372C158.977 110.561 155.318 99.2984 151.184 82.9386C146.835 65.7015 144.673 57.7824 143.604 55.1032L142.938 53.4198L144.412 54.5579C146.55 56.2176 147.049 57.2134 149.021 64.0892C149.996 67.4798 150.97 70.3486 151.184 70.4672C152.015 70.8703 152.039 69.2106 151.231 66.9818C150.756 65.6304 150.019 63.1409 149.615 61.4337L148.879 58.3278L150.186 59.537C152.205 61.3863 156.435 74.9483 160.427 92.4699C160.783 94.0348 161.33 95.2203 161.591 95.0306C162.209 94.6512 157.837 76.4658 155.247 68.6178C153.512 63.4017 153.489 61.9791 155.176 64.3263C155.484 64.7768 156.958 69.6611 158.455 75.2329C159.952 80.8047 161.425 85.3095 161.758 85.2858C162.09 85.2621 162.09 84.29 161.758 83.1282C161.045 80.6861 158.098 69.6136 157.576 67.4323L157.243 66.0335L159.476 68.0725C161.591 70.0167 161.781 70.4435 162.946 75.9679C164.466 83.2468 167.223 92.2565 167.888 92.0431C168.149 91.9483 167.698 89.6247 166.866 86.8744C165.322 81.7294 163.231 72.8145 163.492 72.3403C163.563 72.1743 164.11 72.5537 164.68 73.1701C165.251 73.7866 166.177 76.2524 166.747 78.6708C168.791 87.4908 170.763 94.3193 171.191 93.9162C171.429 93.6791 170.597 89.4825 169.361 84.622C168.126 79.7614 167.175 75.7545 167.246 75.7308C167.342 75.7071 168.078 76.3235 168.91 77.1059C170.003 78.1255 170.621 79.5481 171.143 82.251C171.547 84.3137 172.141 85.9734 172.474 85.9497C172.807 85.926 172.783 84.5983 172.427 83.0097C172.07 81.4448 171.951 80.2119 172.189 80.3305C174.541 81.516 184.379 109.541 190.699 133.18C193.028 141.834 195.309 150.061 195.808 151.389C196.283 152.74 196.663 153.878 196.616 153.95C196.545 153.973 193.551 150.986 189.891 147.24ZM163.183 129.196C162.946 129.386 159.571 125.047 157.647 122.06C155.698 119.072 154.415 118.29 153.726 119.641C153.536 120.021 153.156 120.234 152.918 120.116C151.778 119.547 148.879 115.184 145.362 108.711C143.247 104.799 141.085 101.432 140.562 101.171C138.875 100.318 136.665 91.7823 134.503 77.7935C131.153 56.1227 129.561 49.3891 126.163 42.4185C125.022 40.0712 124.095 38.0321 124.167 37.9373C124.737 36.7755 130.321 50.1242 132.507 57.901C134.028 63.3068 135.05 65.4644 134.954 63.0697C134.907 61.6234 130.559 48.0851 128.776 43.841L127.303 40.3557L128.776 41.4938C130.392 42.7504 133.933 50.8117 136.927 60.0349C137.877 62.9512 138.946 65.4644 139.35 65.6541C140.158 66.0572 138.376 60.272 134.836 51.0488C132.578 45.1925 132.46 44.6472 133.695 45.5956C134.574 46.2832 135.786 48.5119 137.093 51.8313C138.234 54.7002 139.374 56.9289 139.636 56.8103C139.921 56.7155 139.398 54.7239 138.471 52.4003L136.808 48.1562L138.329 49.4129C141.299 51.8313 142.629 55.7671 148.76 80.3542C150.994 89.2454 153.536 98.919 154.463 101.93C156.34 108.047 161.544 121.064 163.777 125.308C165.06 127.75 165.132 128.201 164.3 128.627C163.754 128.888 163.255 129.149 163.183 129.196ZM175.135 27.4338C172.617 27.6709 167.793 27.4575 163.468 26.9122C159.381 26.3906 152.419 25.703 147.928 25.3711C138.139 24.6598 133.933 24.0908 126.662 22.4785C121.101 21.2456 118.797 20.3683 116.919 18.7797C115.969 17.9736 116.278 17.8788 120.579 17.3809C136.665 15.6026 156.435 17.9025 172.949 23.4506C182.763 26.7463 182.169 26.5092 180.719 26.77C180.006 26.9122 177.535 27.1967 175.135 27.4338ZM137.545 101.1C136.024 98.5633 133.956 93.7502 131.889 88.0362C130.535 84.2426 129.537 82.2984 128.776 81.919C127.375 81.2315 124 73.5258 124.689 72.6248C124.951 72.2691 124.357 68.8075 123.359 64.8717C121.696 58.3278 120.888 55.2692 116.777 39.9052C115.589 35.4715 115.589 35.1395 116.611 37.1549C119.462 42.703 121.838 49.8159 124.951 62.1687C126.781 69.424 128.468 75.2092 128.705 74.9721C129.371 74.3319 124 52.6374 121.387 45.3822C120.127 41.8731 117.941 36.9415 116.515 34.3334C115.114 31.7727 114.306 29.9708 114.757 30.3501C115.209 30.7295 116.325 31.6068 117.276 32.2944C120.959 34.9736 126.139 45.5244 128.277 54.6527C129.038 57.901 130.701 67.2664 131.961 75.3751C133.648 86.2817 134.812 91.7586 136.356 96.1686C137.497 99.4643 138.424 102.238 138.4 102.333C138.424 102.452 138.02 101.906 137.545 101.1ZM128.301 24.9443C125.83 25.2525 123.977 24.6598 122.598 23.0949C122.028 22.4548 122.812 22.4785 125.735 23.1661C127.874 23.664 129.917 24.1382 130.273 24.2093C131.438 24.4227 130.844 24.6361 128.301 24.9443ZM120.698 27.339C120.531 27.6472 120.056 27.5524 119.533 27.1019C117.894 25.703 99.0032 12.4729 91.6133 7.565C87.6452 4.90949 84.3661 2.63335 84.3185 2.49109C84.0096 1.61383 87.9303 3.29723 94.9162 7.06709C102.449 11.1215 109.054 15.5789 119.129 23.4032C123.454 26.77 123.787 27.1256 122.242 26.9596C121.505 26.8648 120.84 27.0308 120.698 27.339Z" fill="#AAB654" fill-opacity="0.3"/>
<path d="M276.241 174.814C274.482 173.652 272.866 172.728 272.581 172.728C271.631 172.751 273.056 174.103 276.027 175.976C280.09 178.584 280.304 177.517 276.241 174.814Z" fill="#AAB654" fill-opacity="0.3"/>
<path d="M276.93 171.945C276.383 171.044 265.738 163.433 265.263 163.599C264.502 163.836 265.025 164.31 270.348 168.222C275.385 171.897 277.69 173.201 276.93 171.945Z" fill="#AAB654" fill-opacity="0.3"/>
<path d="M272.986 155.823C270.229 154.115 267.71 152.74 267.425 152.74C266.261 152.764 268.162 154.281 272.724 156.937C279.282 160.778 279.496 159.806 272.986 155.823Z" fill="#AAB654" fill-opacity="0.3"/>
<path d="M252.765 126.944C249.153 124.762 245.612 122.557 244.947 122.083C244.092 121.467 243.688 121.419 243.64 121.87C243.498 122.889 258.729 132.207 259.156 131.354C259.252 131.117 256.376 129.149 252.765 126.944Z" fill="#AAB654" fill-opacity="0.3"/>
<path d="M254.475 130.429C251.862 128.532 243.83 124.691 243.569 125.213C243.426 125.497 244.947 126.493 247.181 127.607C249.272 128.651 252.052 130.216 253.311 131.022C255.972 132.776 257.018 132.278 254.475 130.429Z" fill="#AAB654" fill-opacity="0.3"/>
<path d="M228.932 118.716C224.798 116.867 221.613 115.729 221.162 115.895C220.615 116.108 221.709 116.725 225.225 118.218C227.887 119.333 231.237 120.85 232.71 121.585C234.445 122.439 235.49 122.723 235.657 122.391C235.87 121.965 234.088 120.993 228.932 118.716Z" fill="#AAB654" fill-opacity="0.3"/>
<path d="M227.506 115.112C222.754 112.978 218.999 111.532 218.572 111.698C218.049 111.888 219.665 112.765 224.061 114.685C227.506 116.203 231.379 117.957 232.734 118.621C234.278 119.38 235.276 119.641 235.442 119.309C235.633 118.93 233.542 117.839 227.506 115.112Z" fill="#AAB654" fill-opacity="0.3"/>
<path d="M239.791 170.664C239.173 168.507 238.436 166.729 238.175 166.823C237.676 166.989 239.458 174.411 240.171 175.193C240.979 176.07 240.836 174.387 239.791 170.664Z" fill="#AAB654" fill-opacity="0.3"/>
<path d="M220.235 137.423C218.073 128.793 217.526 127.204 217.027 128.2C216.79 128.65 221.28 147.239 221.661 147.429C222.54 147.879 222.16 145.176 220.235 137.423Z" fill="#AAB654" fill-opacity="0.3"/>
<path d="M261.128 115.658C260.368 114.875 250.982 107.976 250.008 107.502C249.533 107.264 249.081 107.264 248.962 107.502C248.725 107.976 260.653 116.559 261.247 116.369C261.485 116.274 261.437 115.966 261.128 115.658Z" fill="#AAB654" fill-opacity="0.3"/>
<path d="M213.819 77.4849C208.592 75.4933 197.4 71.8657 196.925 72.008C195.879 72.3636 197.352 73.0275 203.483 75.0665C207.19 76.2994 211.562 77.7932 213.249 78.4096C214.912 79.0261 216.576 79.3817 216.884 79.192C217.265 78.9787 216.314 78.4333 213.819 77.4849Z" fill="#AAB654" fill-opacity="0.3"/>
<path d="M212.227 80.5198C209.471 79.1446 197.852 75.1851 197.21 75.3748C196.283 75.6593 196.687 75.8489 205.646 79.1446C209.875 80.7095 213.439 81.8238 213.558 81.6341C213.653 81.4208 213.083 80.9466 212.227 80.5198Z" fill="#AAB654" fill-opacity="0.3"/>
<path d="M196.996 76.8683C196.83 76.3467 182.668 72.3397 182.454 72.7428C182.169 73.2881 183.333 73.7386 190.01 75.7065C195.832 77.4136 197.234 77.6507 196.996 76.8683Z" fill="#AAB654" fill-opacity="0.3"/>
<path d="M180.767 64.8237C178.344 63.6145 169.813 60.6271 166.843 59.9395C166.154 59.7735 165.655 59.8684 165.702 60.1292C165.726 60.39 168.411 61.4569 171.667 62.5239C174.922 63.5908 178.795 65.0371 180.268 65.7721C181.765 66.5071 183.072 66.8865 183.191 66.6257C183.31 66.3649 182.193 65.535 180.767 64.8237Z" fill="#AAB654" fill-opacity="0.3"/>
<path d="M180.363 42.6314C172.593 38.909 170.075 37.8895 169.338 38.1503C168.554 38.4348 168.934 38.6956 171.809 39.8337C173.686 40.5687 178.51 42.7974 182.573 44.8127C187.658 47.3497 189.987 48.3218 190.177 47.9661C190.367 47.5868 187.563 46.0694 180.363 42.6314Z" fill="#AAB654" fill-opacity="0.3"/>
<path d="M180.672 45.595C176.014 43.2714 165.678 39.3356 164.965 39.6201C164.443 39.8098 165.227 40.284 167.65 41.2561C169.528 42.0148 173.686 43.7456 176.941 45.1445C182.786 47.6577 185.448 47.9659 180.672 45.595Z" fill="#AAB654" fill-opacity="0.3"/>
<path d="M171.001 105.889C169.1 98.5392 168.53 96.9981 168.102 97.8753C167.817 98.4444 171.785 113.832 172.284 114.093C173.139 114.52 172.949 113.382 171.001 105.889Z" fill="#AAB654" fill-opacity="0.3"/>
<path d="M165.893 103.424C165.322 101.456 164.562 99.7485 164.229 99.7248C163.897 99.7011 164.229 101.669 164.942 104.064C165.655 106.458 166.415 108.142 166.605 107.786C166.795 107.383 166.463 105.391 165.893 103.424Z" fill="#AAB654" fill-opacity="0.3"/>
<path d="M140.467 77.295C140.134 75.3745 139.849 73.4303 139.849 72.9798C139.826 72.5057 139.564 72.1263 139.231 72.0789C138.566 71.984 139.659 80.9701 140.372 81.3257C141.061 81.6576 141.085 80.9226 140.467 77.295Z" fill="#AAB654" fill-opacity="0.3"/>
<path d="M136.88 72.8855C136.428 70.4433 135.858 69.1867 135.501 69.8743C135.121 70.6093 136.191 75.7306 136.713 75.7069C137.45 75.6358 137.45 75.8492 136.88 72.8855Z" fill="#AAB654" fill-opacity="0.3"/>
<path d="M146.337 23.2368C145.386 22.7626 139.089 21.506 129.395 19.8463C120.484 18.3289 120.365 18.3052 120.46 19.0402C120.484 19.301 123.763 20.036 127.707 20.6525C131.652 21.2689 137.568 22.3359 140.8 23.0234C144.079 23.711 146.788 24.1141 146.883 23.9244C146.954 23.7585 146.717 23.4265 146.337 23.2368Z" fill="#AAB654" fill-opacity="0.3"/>
</g>
<path d="M183.072 183.487C182.954 183.444 182.517 183.461 182.099 183.525C181.653 183.591 179.12 183.246 176.015 182.708C170.897 181.816 170.69 181.761 170.807 181.366C170.981 180.764 170.584 180.619 167.977 180.367C166.028 180.177 159.429 179.812 157.71 179.803C157.266 179.799 157.145 179.745 157.307 179.619C157.427 179.524 157.563 179.261 157.598 179.06C157.684 178.509 157.427 178.48 154.091 178.638C150.935 178.784 147.729 179.212 145.431 179.796C144.022 180.149 143.97 180.149 144.025 179.739C144.062 179.416 143.998 179.287 143.764 179.182C143.102 178.908 138.716 180.141 135.075 181.622C133.134 182.41 132.984 182.446 133.126 182.072C133.352 181.454 133.014 181.128 132.368 181.345C131.313 181.69 127.846 183.358 126.303 184.256C123.28 186.014 123.441 185.94 123.49 185.475C123.555 184.948 123.29 184.617 122.909 184.743C122.2 184.979 120.228 186.162 118.684 187.279C117.257 188.308 115.318 190.017 113.742 191.616L113.314 192.051L113.657 191.073C114.128 189.713 114.173 189.123 113.802 189.061C113.262 188.973 109.101 193.12 106.878 195.962C104.535 198.951 102.176 203.064 100.983 206.23L100.311 208.011L98.2157 209.078C95.6332 210.426 91.838 213.045 91.2647 213.878C91.0651 214.177 90.8814 214.765 90.8677 215.162L90.8484 215.888L91.6242 216.011L92.4 216.134L96.7981 213.802C101.028 211.558 101.234 211.464 102.278 211.393C104.572 211.237 107.021 211.591 110.741 212.615C115.134 213.822 119.965 214.644 121.295 214.407C121.814 214.317 122.891 214.317 123.712 214.402C125.584 214.605 128.442 214.645 129.146 214.485C129.453 214.417 129.744 214.244 129.819 214.099C129.898 213.93 130.132 213.85 130.459 213.862C130.74 213.877 131.053 213.83 131.162 213.755C131.264 213.676 132.162 213.582 133.177 213.532C134.845 213.453 136.698 213.102 137.138 212.779C137.236 212.707 137.337 212.531 137.36 212.386C137.391 212.191 137.797 212.034 138.94 211.77C140.6 211.389 141.196 211.067 141.141 210.583C141.112 210.287 141.297 210.2 142.989 209.774C145.402 209.153 147.784 208.411 148.107 208.176C148.388 207.972 148.261 207.73 147.68 207.349C147.464 207.21 147.334 207.055 147.391 207.014C147.447 206.973 148.61 206.588 149.979 206.16C153.323 205.112 154.918 204.434 155.033 204.012C155.078 203.842 155.009 203.622 154.892 203.544C154.507 203.291 155.702 202.895 156.928 202.876C157.202 202.87 157.297 202.805 157.293 202.645C157.285 202.492 158.036 202.076 159.828 201.255C165.435 198.684 167.085 197.833 167.343 197.388C167.547 197.03 167.528 196.915 167.193 196.6C166.861 196.296 166.852 196.23 167.107 196.161C167.633 196.023 171.612 194.446 172.848 193.888C173.796 193.461 174.218 193.373 175.057 193.459C175.622 193.516 176.14 193.496 176.19 193.417C176.439 193.073 176.143 192.885 175.314 192.847C174.817 192.826 174.357 192.718 174.273 192.595C174.184 192.479 173.691 192.266 173.159 192.129L172.198 191.875L173.152 191.319C173.678 191.014 175.049 190.229 176.196 189.572C177.343 188.915 179.463 187.58 180.9 186.601C183.254 185.003 183.525 184.784 183.584 184.42C183.618 184.017 183.417 183.614 183.072 183.487ZM176.621 184.62C174.327 184.96 166.479 186.54 161.832 187.603C161.106 187.769 160.542 187.861 160.55 187.812C160.576 187.695 161.309 187.296 166.596 184.532L170.23 182.627L172.458 182.918C174.368 183.166 179.221 184.061 179.303 184.174C179.33 184.205 178.125 184.403 176.621 184.62ZM179.46 186.781C178.793 187.188 176.646 188.438 174.686 189.566L171.119 191.611L169.108 191.407C167.995 191.292 166.399 191.049 165.53 190.869C163.966 190.528 163.674 190.534 163.776 190.859C163.862 191.132 167.382 191.832 169.459 191.993C170.503 192.071 171.48 192.246 171.641 192.374C171.897 192.587 171.838 192.6 171.19 192.517C170.632 192.445 159.869 191.474 159.345 191.456C159.245 191.447 161.547 190.856 164.919 190.025C166.394 189.661 169.733 188.795 172.363 188.094C178.65 186.42 180.585 185.929 180.626 185.985C180.643 186.02 180.116 186.377 179.46 186.781ZM169.199 182.423C168.989 182.524 167.875 183.102 166.753 183.693C165.628 184.291 163.792 185.247 162.692 185.815C161.588 186.389 160.042 187.259 159.252 187.751C158.027 188.525 157.345 188.81 154.436 189.743C152.575 190.344 151.06 190.783 151.061 190.731C151.066 190.672 152.942 189.369 155.226 187.821C160.57 184.21 160.45 184.306 160.287 184.081C160.168 183.923 159.572 184.296 156.865 186.202C154.324 187.992 153.523 188.487 153.337 188.408C153.144 188.325 152.716 188.611 151.244 189.808C149.729 191.037 149.29 191.326 148.855 191.389L148.316 191.468L148.789 190.995C149.054 190.738 149.654 190.174 150.13 189.746C150.602 189.326 150.953 188.921 150.902 188.851C150.79 188.696 150.157 189.19 148.71 190.559L147.499 191.709L145.262 192.36C144.037 192.713 141.911 193.351 140.546 193.772L138.074 194.538L138.766 193.898C139.15 193.546 140.278 192.589 141.274 191.784C143.127 190.275 143.65 189.539 142.039 190.718C140.619 191.75 137.84 194.214 137.85 194.43C137.855 194.555 137.532 194.738 136.953 194.927L136.038 195.223L136.723 194.343C137.902 192.835 139.615 191.359 142.447 189.396C143.923 188.375 145.084 187.506 145.04 187.457C144.887 187.246 143.184 188.35 140.566 190.372C137.821 192.486 136.592 193.687 135.954 194.846C135.667 195.363 135.58 195.414 133.921 195.945C132.294 196.466 132.21 196.475 132.582 196.063C133.661 194.88 136.285 192.563 138.978 190.414C142.245 187.8 144.152 186.539 148.177 184.337C150.347 183.143 155.796 180.069 156.056 179.889C156.112 179.848 156.259 179.968 156.388 180.141C156.565 180.39 157.164 180.483 158.934 180.545C161.804 180.644 166.033 180.907 168.224 181.135L169.878 181.303L169.738 181.774C169.65 182.027 169.413 182.315 169.199 182.423ZM168.507 187.166C166.658 187.642 163.387 188.464 161.224 189.005C159.065 189.539 156.131 190.335 154.711 190.762C153.279 191.192 149.335 192.349 145.943 193.337C139.179 195.306 123.722 200.194 119.498 201.705C117.066 202.579 108.337 206.121 105.936 207.221C105.397 207.466 104.922 207.623 104.888 207.57C104.848 207.514 104.977 207.248 105.19 206.956C105.507 206.515 105.805 206.329 107.156 205.751C108.037 205.368 108.788 205.119 108.843 205.182C108.887 205.249 109.146 205.138 109.409 204.951C110.225 204.359 117.574 201.888 134.125 196.63C144.037 193.485 146.572 192.717 148.119 192.4C148.9 192.245 153.378 190.936 157.078 189.793C159.208 189.131 162.665 188.22 164.767 187.762C166.876 187.308 169.33 186.761 170.24 186.542C173.155 185.85 171.97 186.277 168.507 187.166ZM170.556 194.089C169.675 194.437 168.158 195.016 167.211 195.356C166.26 195.703 165.455 196.056 165.419 196.142C165.307 196.408 165.621 196.712 166.185 196.873C166.81 197.05 166.863 197.235 166.276 197.202C166.054 197.191 165.266 197.176 164.502 197.164C163.745 197.156 161.701 196.916 159.955 196.622C158.206 196.334 156.775 196.159 156.76 196.239C156.702 196.603 162.664 197.619 164.786 197.61C165.391 197.609 165.887 197.648 165.886 197.7C165.866 197.821 158.928 201.067 157.235 201.747C155.854 202.3 155.649 202.324 153.182 202.224C151.321 202.15 150.57 202.198 150.543 202.385C150.493 202.684 150.413 202.668 152.544 202.76C153.717 202.809 154.094 202.892 153.949 203.053C153.79 203.224 153.822 203.364 154.092 203.636C154.296 203.848 154.38 204.04 154.296 204.101C153.954 204.353 150.963 203.849 146.667 202.823C144.132 202.214 139.49 201.298 136.322 200.78C130.621 199.848 130.286 199.735 132.143 199.377C133.084 199.201 137.011 199.859 143.37 201.257C145.968 201.828 148.163 202.234 148.262 202.163C148.652 201.883 148.351 201.639 147.344 201.422C143.603 200.624 134.718 198.902 134.222 198.881L133.625 198.868L134.037 198.715C135.456 198.19 140.733 198.859 149.402 200.643C151.434 201.06 153.113 201.329 153.153 201.236C153.302 200.884 141.632 198.695 137.316 198.264L135.86 198.12L137.099 197.739C138.297 197.371 138.453 197.374 141.687 197.935C143.532 198.255 144.974 198.426 144.9 198.318C144.825 198.209 143.549 197.921 142.084 197.676C140.619 197.431 139.415 197.19 139.426 197.135C139.437 197.079 140.346 196.763 141.435 196.435L143.417 195.836L149.62 196.846C157.121 198.066 158.466 198.223 161.103 198.166C164.024 198.099 163.788 197.696 160.816 197.674C159.135 197.659 156.418 197.35 151.735 196.631C148.063 196.071 145.054 195.566 145.066 195.51C145.093 195.34 150.126 194.041 150.228 194.181C150.384 194.403 163.445 196.842 163.521 196.662C163.561 196.569 161.298 196.058 158.498 195.521C151.734 194.229 150.558 193.985 150.653 193.92C150.684 193.893 151.152 193.75 151.662 193.612C152.429 193.398 152.88 193.422 154.156 193.761C156.607 194.397 161.829 195.492 161.97 195.39C162.223 195.206 161.947 195.115 159.905 194.701C156.959 194.107 153.473 193.257 153.5 193.139C153.507 193.091 153.868 192.954 154.314 192.835C154.914 192.674 155.493 192.721 156.697 193.032C158.156 193.405 158.652 193.444 158.455 193.167C158.407 193.107 157.848 192.938 157.211 192.782C156.578 192.637 156.057 192.462 156.065 192.396C156.116 192.063 158.299 191.902 160.324 192.079C167.135 192.677 172.341 193.23 172.267 193.34C172.21 193.398 171.447 193.738 170.556 194.089ZM154.876 180.02C154.245 180.393 151.514 181.926 148.772 183.446C144.337 185.899 143.502 186.411 140.924 188.305C137.576 190.754 135.363 192.618 132.905 195.057L131.153 196.793L129.923 197.188L128.694 197.583L130.436 195.631C133.775 191.888 134.082 191.601 138.385 188.342C140.911 186.43 142.39 185.236 142.322 185.148C142.189 184.965 134.284 190.943 133.136 192.091C132.662 192.563 131.335 194.021 130.16 195.338L128.039 197.733L126.147 198.309L124.234 198.874L125.721 197.228C127.204 195.588 127.374 195.361 127.115 195.323C126.945 195.296 124.135 198.358 123.934 198.779C123.836 198.983 123.503 199.169 122.878 199.361C122.002 199.633 121.978 199.629 122.317 199.262C122.516 199.049 123.394 198.253 124.289 197.473C126.189 195.823 126.539 195.453 126.262 195.431C126.148 195.416 124.89 196.453 123.462 197.718C120.923 199.974 120.842 200.029 119.822 200.392C118.557 200.839 118.611 200.752 121.165 198.399C124.044 195.742 124.066 195.718 123.971 195.58C123.913 195.507 123.851 195.474 123.809 195.505C123.425 195.788 119.886 199.075 119.049 199.928C118.006 200.99 117.936 201.041 116.843 201.393C115.394 201.858 115.258 201.866 115.595 201.471C115.754 201.282 115.958 201.16 116.044 201.197C116.134 201.226 116.744 200.675 117.374 199.986C118.817 198.422 121.418 196.032 123.629 194.236C125.171 192.987 125.712 192.418 125.422 192.372C125.252 192.345 120.787 196.151 119.011 197.831C118.171 198.621 117.459 199.25 117.411 199.242C117.283 199.22 119.228 196.927 120.951 195.061C122.841 193.011 125.598 190.807 132.733 185.603L139.417 180.726L141.102 180.296C142.989 179.814 143.295 179.798 143.053 180.162C142.96 180.307 142.963 180.537 143.075 180.691C143.217 180.888 143.599 180.894 144.512 180.703C147.97 179.977 150.546 179.599 153.105 179.423C154.649 179.314 155.931 179.254 155.952 179.282C155.996 179.314 155.511 179.64 154.876 180.02ZM123.048 192.259C120.428 194.57 115.004 200.892 114.966 201.67C114.95 201.986 114.855 202.051 113.905 202.398C113.342 202.605 112.784 202.77 112.683 202.762C112.239 202.724 115.48 198.396 117.687 196.089C118.553 195.181 120.067 193.786 121.081 192.963C122.169 192.083 122.861 191.426 122.807 191.345C122.667 191.158 119.523 193.704 118.028 195.215C116.035 197.229 113.015 201.032 112.289 202.443C112.02 202.96 111.872 203.094 111.33 203.294L110.68 203.535L112.056 201.883C113.339 200.341 113.782 199.66 113.254 200.052C113.131 200.137 112.384 200.967 111.597 201.89C110.127 203.606 109.548 204.147 109.399 203.946C109.348 203.876 110.111 202.879 111.097 201.708C112.082 200.538 112.906 199.493 112.936 199.369C113.016 198.946 111.707 200.316 110.064 202.381C109.067 203.625 108.299 204.461 108.073 204.527C107.713 204.647 107.71 204.637 107.92 204.334C108.037 204.158 109.073 202.891 110.229 201.493C111.392 200.1 112.291 198.91 112.236 198.847C112.114 198.678 111.58 199.268 109.075 202.331C107.884 203.798 106.747 205.056 106.569 205.13C106.118 205.308 108.521 202.034 110.917 199.213C112.678 197.139 113.337 196.193 112.69 196.663C112.212 197.01 108.385 201.709 107.026 203.614C106.261 204.68 105.596 205.553 105.537 205.549C105.059 205.476 109.247 198.168 111.704 194.791C112.668 193.46 115.392 190.731 117.538 188.945C118.901 187.804 122.48 185.449 122.771 185.496C122.837 185.503 122.815 185.781 122.729 186.096C122.644 186.412 122.625 186.752 122.692 186.84C122.845 187.051 123.139 186.906 125.308 185.597C126.915 184.627 130.653 182.74 131.907 182.262L132.407 182.075L132.156 182.524C131.887 183.024 131.983 183.31 132.427 183.331C132.573 183.337 133.688 182.943 134.894 182.458L137.097 181.57L130.881 186.218C127.456 188.749 123.937 191.477 123.048 192.259ZM149.782 205.681C148.141 206.177 146.744 206.677 146.662 206.801C146.555 206.956 146.642 207.142 146.959 207.456C147.328 207.823 147.355 207.907 147.131 207.966C146.971 208.005 146.789 208.086 146.69 208.158C146.367 208.393 143.046 208.655 141.015 208.606C138.95 208.557 132.772 207.534 127.25 206.327C124.714 205.77 124.159 205.709 124.38 206.008C124.675 206.416 138.615 209.067 140.642 209.105C141.517 209.122 142.235 209.153 142.263 209.185C142.408 209.393 140.149 209.497 138.314 209.375C134.46 209.114 130.637 208.475 125.262 207.204C119.6 205.862 116.974 205.293 116.035 205.199L115.445 205.137L115.998 204.882C116.803 204.512 117.168 204.517 119.462 204.983C120.594 205.213 121.574 205.363 121.641 205.319C121.884 205.139 121.406 204.881 120.636 204.779C120.172 204.713 119.338 204.55 118.781 204.41L117.768 204.154L118.317 203.957C119.159 203.65 123.736 204.472 129.427 205.96C129.935 206.093 130.362 206.113 130.346 206.009C130.329 205.772 124.388 204.294 121.718 203.86C119.941 203.575 119.525 203.367 120.461 203.232C120.639 203.211 122.28 203.521 124.124 203.928C125.968 204.335 127.498 204.588 127.542 204.488C127.585 204.388 127.303 204.241 126.915 204.162C126.098 204 122.438 203.183 121.726 203.005L121.269 202.89L122.199 202.549C123.083 202.229 123.236 202.239 125.016 202.735C127.359 203.393 130.391 203.955 130.43 203.729C130.442 203.639 129.699 203.419 128.775 203.245C127.048 202.916 124.143 202.176 124.045 202.028C124.007 201.983 124.2 201.881 124.465 201.809C124.73 201.736 125.586 201.84 126.375 202.04C129.245 202.779 131.525 203.238 131.473 203.053C131.44 202.948 130.096 202.556 128.498 202.18C126.9 201.804 125.593 201.475 125.597 201.451C125.604 201.419 125.894 201.299 126.247 201.175C126.708 201.012 127.215 201.048 128.079 201.304C128.739 201.499 129.31 201.577 129.354 201.477C129.397 201.377 129.008 201.183 128.493 201.046C127.985 200.913 127.609 200.762 127.679 200.71C128.379 200.207 138.003 201.585 145.821 203.321C148.686 203.953 151.42 204.534 151.881 204.589C152.345 204.656 152.733 204.717 152.746 204.742C152.742 204.766 151.422 205.184 149.782 205.681ZM140.507 210.709C140.526 210.807 138.757 211.131 137.598 211.238C136.436 211.353 136.015 211.607 136.304 212.011C136.385 212.124 136.39 212.267 136.319 212.318C135.982 212.563 134.277 212.745 131.866 212.788C130.411 212.811 129.106 212.93 128.952 213.043C128.449 213.404 125.636 212.756 121.248 211.27C114.449 208.968 112.254 208.413 109.716 208.346C108.862 208.323 108.13 208.284 108.113 208.249C107.862 207.907 112.582 208.303 115.17 208.843C116.97 209.219 117.751 209.248 117.041 208.914C116.614 208.709 112.026 207.926 110.524 207.802L109.289 207.703L109.843 207.448C110.452 207.168 113.327 207.358 116.458 207.883C117.448 208.047 118.339 208.117 118.456 208.028C118.695 207.854 116.746 207.498 113.533 207.132C111.491 206.902 111.315 206.855 111.777 206.639C112.109 206.488 112.94 206.473 114.101 206.595C115.106 206.697 115.926 206.703 115.931 206.609C115.946 206.512 115.289 206.363 114.474 206.281L112.991 206.122L113.585 205.871C114.736 205.374 116.08 205.582 124.146 207.517C127.065 208.212 130.258 208.935 131.272 209.121C133.332 209.501 137.898 209.956 139.468 209.949C140.371 209.946 140.512 209.993 140.511 210.299C140.504 210.497 140.504 210.681 140.507 210.709ZM112.765 191.862C112.453 192.629 111.662 193.998 110.851 195.171C110.082 196.279 108.83 198.196 108.055 199.45C106.369 202.185 105.568 203.321 104.002 205.188C102.803 206.616 102.2 207.153 101.456 207.458C101.078 207.612 101.097 207.508 101.602 206.184C103.517 201.245 107.172 195.852 111.278 191.895C113.718 189.543 113.559 189.68 113.416 190.14C113.35 190.369 113.059 191.129 112.765 191.862ZM128.475 213.908C127.509 213.967 125.799 213.84 123.827 213.576C122.521 213.396 121.806 213.392 121.581 213.556C121.169 213.859 118.422 213.674 118.264 213.338C118.2 213.209 117.106 212.858 115.812 212.553C113.661 212.047 112.65 211.82 107.568 210.692C106.101 210.367 106.005 210.317 106.744 210.324C108.786 210.335 111.211 210.72 115.268 211.682C117.651 212.247 119.586 212.632 119.553 212.527C119.467 212.237 112.357 210.518 109.855 210.181C108.646 210.016 106.883 209.906 105.911 209.926C104.955 209.946 104.31 209.908 104.488 209.834C104.667 209.761 105.09 209.569 105.434 209.397C106.768 208.732 110.614 208.822 113.588 209.581C114.646 209.851 117.617 210.783 120.162 211.643C123.583 212.801 125.35 213.29 126.863 213.508C127.993 213.675 128.938 213.825 128.962 213.846C129 213.857 128.781 213.892 128.475 213.908ZM104.965 205.085C104.681 205.849 104.229 206.298 103.567 206.461C103.295 206.53 103.42 206.306 104.061 205.561C104.529 205.016 104.975 204.494 105.05 204.401C105.288 204.095 105.26 204.3 104.965 205.085ZM104.512 207.655C104.576 207.749 104.477 207.873 104.267 207.957C103.613 208.221 96.9171 211.707 94.3754 213.112C93.0048 213.863 91.8484 214.471 91.7999 214.463C91.4985 214.42 92.5797 213.536 94.7299 212.077C97.0453 210.503 99.3378 209.258 103.132 207.515C104.763 206.768 104.917 206.725 104.635 207.149C104.496 207.348 104.444 207.567 104.512 207.655Z" fill="#AAB654" fill-opacity="0.3"/>
<path d="M170.836 184.774C170.233 185.109 169.721 185.439 169.677 185.522C169.541 185.801 170.149 185.591 171.141 185.012C172.512 184.226 172.235 184.003 170.836 184.774Z" fill="#AAB654" fill-opacity="0.3"/>
<path d="M170.107 184.141C169.763 184.163 165.945 186.104 165.921 186.267C165.875 186.524 166.092 186.444 168.032 185.489C169.86 184.582 170.587 184.11 170.107 184.141Z" fill="#AAB654" fill-opacity="0.3"/>
<path d="M164.83 182.85C163.918 183.393 163.138 183.916 163.095 183.999C162.926 184.341 163.654 184.018 165.114 183.095C167.22 181.771 166.97 181.562 164.83 182.85Z" fill="#AAB654" fill-opacity="0.3"/>
<path d="M153.389 184.358C152.21 185.077 151.035 185.772 150.797 185.894C150.488 186.049 150.414 186.159 150.537 186.241C150.812 186.436 155.819 183.422 155.636 183.168C155.581 183.105 154.575 183.642 153.389 184.358Z" fill="#AAB654" fill-opacity="0.3"/>
<path d="M154.659 184.388C153.714 184.86 151.385 186.612 151.497 186.766C151.558 186.851 152.077 186.56 152.738 186.079C153.357 185.63 154.231 185.059 154.656 184.815C155.567 184.308 155.581 183.929 154.659 184.388Z" fill="#AAB654" fill-opacity="0.3"/>
<path d="M147.399 190.035C146.237 190.956 145.426 191.708 145.406 191.865C145.385 192.056 145.729 191.831 146.694 191.036C147.42 190.432 148.367 189.688 148.803 189.371C149.313 188.997 149.553 188.736 149.482 188.638C149.391 188.511 148.839 188.882 147.399 190.035Z" fill="#AAB654" fill-opacity="0.3"/>
<path d="M146.137 189.904C144.8 190.961 143.812 191.833 143.796 191.982C143.772 192.163 144.271 191.826 145.493 190.84C146.454 190.069 147.549 189.209 147.946 188.916C148.4 188.582 148.626 188.332 148.555 188.234C148.474 188.121 147.841 188.563 146.137 189.904Z" fill="#AAB654" fill-opacity="0.3"/>
<path d="M164.124 194.731C163.404 194.584 162.776 194.53 162.764 194.62C162.737 194.79 165.161 195.394 165.496 195.305C165.873 195.203 165.362 194.99 164.124 194.731Z" fill="#AAB654" fill-opacity="0.3"/>
<path d="M151.517 195.387C148.684 194.711 148.14 194.629 148.354 194.925C148.449 195.062 154.525 196.566 154.637 196.485C154.901 196.298 154.059 195.999 151.517 195.387Z" fill="#AAB654" fill-opacity="0.3"/>
<path d="M151.376 180.224C151.034 180.326 147.612 182.009 147.327 182.22C147.187 182.322 147.118 182.454 147.169 182.524C147.271 182.665 151.566 180.498 151.6 180.297C151.609 180.213 151.512 180.181 151.376 180.224Z" fill="#AAB654" fill-opacity="0.3"/>
<path d="M133.144 188.192C131.775 189.409 129.031 192.111 129 192.27C128.946 192.628 129.361 192.3 130.879 190.828C131.798 189.938 132.892 188.894 133.326 188.498C133.756 188.108 134.111 187.679 134.102 187.56C134.098 187.418 133.796 187.611 133.144 188.192Z" fill="#AAB654" fill-opacity="0.3"/>
<path d="M133.784 189.114C132.968 189.706 130.063 192.482 130.021 192.697C129.963 193.009 130.08 192.92 132.39 190.817C133.484 189.825 134.346 188.959 134.309 188.896C134.261 188.836 134.037 188.93 133.784 189.114Z" fill="#AAB654" fill-opacity="0.3"/>
<path d="M130.423 192.984C130.246 192.954 126.943 196.46 127.027 196.583C127.143 196.749 127.449 196.479 129.03 194.837C130.405 193.405 130.686 193.033 130.423 192.984Z" fill="#AAB654" fill-opacity="0.3"/>
<path d="M124.473 195.877C123.756 196.398 121.599 198.423 120.951 199.182C120.798 199.357 120.751 199.516 120.833 199.542C120.913 199.574 121.628 198.956 122.43 198.172C123.232 197.388 124.237 196.482 124.673 196.165C125.112 195.841 125.42 195.519 125.362 195.445C125.305 195.371 124.895 195.57 124.473 195.877Z" fill="#AAB654" fill-opacity="0.3"/>
<path d="M117.968 192.641C115.713 194.335 115.037 194.912 115.001 195.165C114.965 195.436 115.098 195.365 115.863 194.702C116.36 194.268 117.736 193.204 118.935 192.329C120.44 191.236 121.075 190.706 121 190.597C120.919 190.485 120.054 191.07 117.968 192.641Z" fill="#AAB654" fill-opacity="0.3"/>
<path d="M118.875 192.999C117.497 194 114.792 196.407 114.767 196.657C114.743 196.837 114.999 196.681 115.648 196.124C116.152 195.694 117.282 194.748 118.18 194.014C119.793 192.697 120.285 191.97 118.875 192.999Z" fill="#AAB654" fill-opacity="0.3"/>
<path d="M134.921 204.917C132.499 204.359 131.966 204.292 132.156 204.548C132.278 204.717 137.346 205.89 137.497 205.784C137.75 205.601 137.391 205.484 134.921 204.917Z" fill="#AAB654" fill-opacity="0.3"/>
<path d="M133.433 206.029C132.776 205.897 132.165 205.86 132.108 205.953C132.051 206.046 132.673 206.246 133.476 206.401C134.279 206.556 134.882 206.59 134.808 206.481C134.719 206.365 134.091 206.16 133.433 206.029Z" fill="#AAB654" fill-opacity="0.3"/>
<path d="M122.005 209.463C121.397 209.269 120.789 209.058 120.658 208.99C120.517 208.925 120.367 208.944 120.303 209.033C120.175 209.212 122.95 210.253 123.161 210.099C123.361 209.95 123.151 209.832 122.005 209.463Z" fill="#AAB654" fill-opacity="0.3"/>
<path d="M120.182 209.838C119.405 209.6 118.954 209.576 119.1 209.783C119.256 210.005 120.904 210.468 120.976 210.313C121.067 210.088 121.129 210.12 120.182 209.838Z" fill="#AAB654" fill-opacity="0.3"/>
<path d="M107.195 199.59C106.914 199.794 105.598 201.433 103.651 203.997C101.864 206.355 101.839 206.386 102.067 206.469C102.146 206.502 102.855 205.661 103.63 204.609C104.405 203.556 105.609 202 106.297 201.165C106.992 200.317 107.518 199.591 107.477 199.535C107.44 199.489 107.308 199.508 107.195 199.59Z" fill="#AAB654" fill-opacity="0.3"/>
<defs>
<clipPath id="clip0_455_165">
<rect width="217.87" height="208.741" fill="white" transform="translate(79.1147 0.190918)"/>
</clipPath>
</defs>
</svg>
