<svg id="Layer_1" data-name="Layer 1" xmlns="http://www.w3.org/2000/svg" viewBox="0 0 120.66 169.85"><defs><style>.cls-1{fill:#fff;}</style></defs><path class="cls-1" d="M24.21,107.27l1,.77-1-.77"/><path class="cls-1" d="M29.42,110.88h0c1,.59,1.95,1.17,3,1.71-1-.54-2-1.12-3-1.71"/><path class="cls-1" d="M42.2,116.78a59.85,59.85,0,0,0,18.59,3,59.85,59.85,0,0,1-18.59-3"/><path class="cls-1" d="M57,17.79c6.36-1,13.79-2.07,18.93-2.6s12.63.11,25,.26q-1.58-1.41-3.24-2.7c-10.09-.24-22.69-.63-30-.68-10.71-.08-32.51-.11-35-.14-1.47,0-4.75.12-8.24.39a60.54,60.54,0,0,0-5.55,4.81c4.55,0,9.61.29,16.56.91C48,19.16,50.61,18.79,57,17.79"/><path class="cls-1" d="M54.57,9.83c6.77-.11,26.13-.32,38.67-.23a60.18,60.18,0,0,0-6.11-3.48c-5.38.27-10.09.52-12.42.51-5.72,0-24.25.43-31,.87-3.61.24-8.49.44-12.88.52-.94.54-1.86,1.1-2.77,1.7,7.57.09,19.05.23,26.51.11"/><path class="cls-1" d="M64.23,24.39c9.66.33,32,.23,41.61.38l3.42,0A61,61,0,0,0,104,18.51c-5.12-.33-8.87-.82-10.69-.86a130.33,130.33,0,0,0-24.55,1.41c-9,1.18-15.18,2.55-18.92,2.6s-16-1.09-22.79-1.82a65,65,0,0,0-11.18.41,60.3,60.3,0,0,0-4.58,5.86c8.35-.32,17.06-.66,22.29-.89,9.07-.4,21-1.17,30.64-.83"/><path class="cls-1" d="M17.61,33.11a220.91,220.91,0,0,0,23.74-.2,156.28,156.28,0,0,1,27.34.54c12.57,1.12,15.22.76,21.58-.25C94,32.61,98.19,32,102,31.48c2.84,0,7.69-.86,11-.84-.69-1.22-1.41-2.41-2.18-3.58-2,.14-4.67.2-6.9.5-13.9-.15-26.56-.33-31.27-.4-17-.24-25.4.77-36.8,1.13-7.6.25-14.86.72-21.08,1-1.53,0-3.76.18-5.68.29C8.41,30.77,7.77,32,7.17,33.14c1.73,0,3.63-.11,5-.17,1.95,0,3.8.06,5.47.14"/><path class="cls-1" d="M26.18,42.11a310,310,0,0,0,38.61-2A265.35,265.35,0,0,1,99.5,38.84c2.23,0,8.78.15,17.42.29q-1-2.61-2.15-5.09c-4.18.21-7.87.66-12.93,1.32-9,1.17-15.18,2.55-18.93,2.6s-16-1.09-22.79-1.81a119.28,119.28,0,0,0-23.53.57c-6.72.84-17.13,0-27.86-.3-.56,0-1.79,0-3.07,0a58.12,58.12,0,0,0-2,5.54c8.06,0,16.33,0,22.56.18"/><path class="cls-1" d="M20.78,98.6c5.07-.3,14.54-1.85,25-1.12s29.53,1.82,32.64,1.64,11.82-1.68,19.18-2.72c2.81-.38,5.11-.77,7.73-1.1-11.47-.33-26-1-37.9-1.46a213.35,213.35,0,0,0-23.82.2c-6.83.26-21.52,1.17-30.74,1.74.75,1,1.53,1.94,2.33,2.87a44.56,44.56,0,0,0,5.61-.05"/><path class="cls-1" d="M77.75,107.66c-8,.64-29.47,3.13-39.16,3.28-2.46,0-5.65,0-9.17-.06,1,.59,2,1.17,3,1.71,8.13.61,15.95,1.13,19.16,1,4.8-.28,25.5-1.85,39.33-2A60.21,60.21,0,0,0,96,108.23c-7.08-.08-12.82-1-18.25-.57"/><path class="cls-1" d="M25.39,49.58a301,301,0,0,0,38.43-1.94c15.42-1.58,34.77,1.15,43.89,1.33,1.15,0,8.78.11,11.9.06a61.8,61.8,0,0,0-1.49-6.25c-8-.14-14.21-1.16-18-1.22-17.26-.26-25.69,1.06-38.83,2.13-12.62,1-22.23,2.23-27.95,2-4.35-.15-13.66-.1-30.79-.07-.3,1.24-.56,2.5-.78,3.76,8.82,0,16.64,0,23.58.18"/><path class="cls-1" d="M59.31,4C62.58,4.09,71.16,3.5,79.39,3A59.86,59.86,0,0,0,37,4.93c5,0,18.14-1,22.36-.9"/><path class="cls-1" d="M10.58,92.52c9.57-.5,19.25-1,24.15-1.52,11.51-1.1,28.27-.76,39.68-.5,8.84.2,25.38.4,37.45.53a58.83,58.83,0,0,0,3.46-6.58L8.86,89.72c.55,1,1.12,1.88,1.72,2.8"/><path class="cls-1" d="M54.44,106.42c6.79-.55,32.22-3.68,46.68-2.36q2.23-2.06,4.26-4.32c-5.37.44-11,.67-14.53,1.2-6.18,1-8.42,2.6-25.75,1.11s-24.76-2-33.31-1.27c-3.24.26-8.85.71-13.92.84a59.76,59.76,0,0,0,6.34,5.65l1,.77c11.52-.14,23.86-1.17,29.22-1.62"/><path class="cls-1" d="M114.41,52.36c-17-.24-40.83-2.52-53.44-1.5S40.38,52.6,34.65,52.39c-2.81-.1-18.37-.09-33.32.19A61,61,0,0,0,.88,59.9C.88,61,.91,62,1,63c2.23,0,4.25,0,5.75.09,28,1.23,31.7-4.59,40.12-5.16,4.72-.31,12.25-5.74,15.7-5.24,5.51.79,15.44,9.33,28.95,9.64,7,.15,10.85.86,19.6.87,2.32,0,5.3.07,9.23.16-.08,1-.19,1.91-.32,2.86-7.82.14-20.56-.81-26.39-1-8.22-.24-23.4,1-33.08.49s-30.39.76-37.51,1c-5.36.2-13.36,0-21.72,0,.09.83.19,1.64.32,2.46,2.53-.08,4.91-.15,7-.24,9.46-.4,32.13.24,39,.38s36.74.27,48.23-.26c1.92-.08,11.29-.86,24.12-1.07a60.84,60.84,0,0,0,.58-8.26c0-1,0-2.06-.08-3.08-.08-1.47-.22-2.92-.4-4.36-2.23,0-4.16,0-5.72,0"/><path class="cls-1" d="M65.54,116c-5,.27-15.08.67-23.34.78a59.83,59.83,0,0,0,42.36-2c-8.08.29-16.54,1.07-19,1.21"/><path class="cls-1" d="M99.44,72.82c-9.39,0-39.34.16-58-.21-11.85-.25-26.35,0-39.13.29.33,1.46.7,2.89,1.12,4.31,7.75-.06,15.57.45,18.64.26,6.34-.4,30.48-1,36.31-.76s36.71-1,44.36-1.32c1.81-.06,7.15-.18,15.84-.08.18-.72.35-1.44.52-2.17-10.35,0-17.23-.33-19.67-.32"/><path class="cls-1" d="M106.05,79c-8.8-.22-20.73.53-31.57.63s-34.37.79-49.73.58c-7.15-.1-14.13.23-20.11.6q.93,2.52,2.09,4.93c9.62-.25,18.38-.43,24.45-.52,19.71-.28,45-1.86,58-2.1,6.62-.12,18.59-1.09,26-1.36a2.79,2.79,0,0,0,1.34-.21c.33-.84.63-1.7.93-2.56l-4.38.16c-2.46,0-4.87-.09-7.06-.15"/><path class="cls-1" d="M4.6,163h.76v4c0,1.58-.77,2.06-1.8,2.06a2.51,2.51,0,0,1-.82-.14l.12-.62a1.89,1.89,0,0,0,.64.11c.69,0,1.1-.31,1.1-1.47Z"/><polygon class="cls-1" points="10.06 166.13 7.75 166.13 7.75 168.27 10.32 168.27 10.32 168.92 6.98 168.92 6.98 162.97 10.19 162.97 10.19 163.61 7.75 163.61 7.75 165.49 10.06 165.49 10.06 166.13"/><path class="cls-1" d="M12.87,163h.77v4c0,1.58-.78,2.06-1.8,2.06a2.46,2.46,0,0,1-.82-.14l.12-.62a1.8,1.8,0,0,0,.64.11c.69,0,1.09-.31,1.09-1.47Z"/><path class="cls-1" d="M16,163v3.52c0,1.33.59,1.9,1.39,1.9s1.44-.59,1.44-1.9V163h.78v3.47c0,1.82-1,2.57-2.25,2.57s-2.13-.69-2.13-2.54V163Z"/><polygon class="cls-1" points="24.63 163.62 22.83 163.62 22.83 162.97 27.23 162.97 27.23 163.62 25.41 163.62 25.41 168.92 24.63 168.92 24.63 163.62"/><polygon class="cls-1" points="31.3 166.13 29 166.13 29 168.27 31.57 168.27 31.57 168.92 28.23 168.92 28.23 162.97 31.44 162.97 31.44 163.61 29 163.61 29 165.49 31.3 165.49 31.3 166.13"/><path class="cls-1" d="M35.81,166.44l-.58-1.71a11.17,11.17,0,0,1-.3-1.08h0c-.1.35-.19.71-.31,1.08L34,166.44Zm-2,.61-.61,1.87h-.8l2-5.95h.93l2,5.95h-.82L36,167.05Z"/><path class="cls-1" d="M45.37,168.65a5.31,5.31,0,0,1-1.82.33,2.8,2.8,0,0,1-3.06-3,3,3,0,0,1,3.22-3.07,3.81,3.81,0,0,1,1.49.27l-.19.63a3.11,3.11,0,0,0-1.31-.26,2.23,2.23,0,0,0-2.4,2.39,2.18,2.18,0,0,0,2.3,2.4,2.47,2.47,0,0,0,1-.16v-1.77H43.41v-.62h2Z"/><path class="cls-1" d="M49.79,166.44l-.58-1.71c-.13-.38-.22-.74-.31-1.08h0c-.09.35-.18.71-.3,1.08L48,166.44Zm-1.95.61-.62,1.87h-.79l2-5.95h.93l2,5.95h-.83L50,167.05Z"/><path class="cls-1" d="M53.38,165.76h.79c.82,0,1.34-.45,1.34-1.13s-.56-1.11-1.37-1.11a3,3,0,0,0-.76.07Zm-.77-2.71a8.07,8.07,0,0,1,1.48-.13,2.41,2.41,0,0,1,1.72.49,1.48,1.48,0,0,1,.47,1.13,1.57,1.57,0,0,1-1.12,1.52v0a1.49,1.49,0,0,1,.87,1.2,9.53,9.53,0,0,0,.46,1.64H55.7a7.92,7.92,0,0,1-.4-1.42c-.18-.83-.49-1.13-1.19-1.16h-.73v2.58h-.77Z"/><path class="cls-1" d="M58.46,168.31a5.75,5.75,0,0,0,.78,0,2.28,2.28,0,0,0,2.53-2.52,2.12,2.12,0,0,0-2.4-2.3,4.82,4.82,0,0,0-.91.08Zm-.76-5.26a11,11,0,0,1,1.63-.13,3.37,3.37,0,0,1,2.41.75,2.72,2.72,0,0,1,.84,2.13,3.12,3.12,0,0,1-.86,2.31,3.63,3.63,0,0,1-2.63.86,13.36,13.36,0,0,1-1.39-.07Z"/><polygon class="cls-1" points="66.99 166.13 64.68 166.13 64.68 168.27 67.25 168.27 67.25 168.92 63.91 168.92 63.91 162.97 67.12 162.97 67.12 163.61 64.68 163.61 64.68 165.49 66.99 165.49 66.99 166.13"/><path class="cls-1" d="M68.59,168.92V163h.83l1.91,3a16.83,16.83,0,0,1,1.07,1.93h0c-.07-.79-.09-1.52-.09-2.44V163h.72v5.95h-.77l-1.89-3a17.33,17.33,0,0,1-1.11-2h0c0,.75.06,1.46.06,2.46v2.54Z"/><path class="cls-1" d="M76.83,168a2.7,2.7,0,0,0,1.37.39c.79,0,1.25-.42,1.25-1s-.32-.87-1.12-1.18c-1-.34-1.57-.85-1.57-1.68a1.71,1.71,0,0,1,1.92-1.62,2.78,2.78,0,0,1,1.31.29l-.21.63a2.3,2.3,0,0,0-1.12-.28c-.82,0-1.13.48-1.13.89,0,.56.37.83,1.19,1.15,1,.39,1.51.87,1.51,1.74S79.56,169,78.15,169a3,3,0,0,1-1.51-.38Z"/><rect class="cls-1" x="81.62" y="162.97" width="0.77" height="5.95"/><path class="cls-1" d="M84.32,168.92V163h.84l1.9,3a16.83,16.83,0,0,1,1.07,1.93h0c-.07-.79-.09-1.52-.09-2.44V163h.73v5.95H88l-1.89-3a19,19,0,0,1-1.11-2h0c0,.75.06,1.46.06,2.46v2.54Z"/><path class="cls-1" d="M94.56,168.72A3.7,3.7,0,0,1,93,169a2.78,2.78,0,0,1-2.93-3,3,3,0,0,1,3.1-3.13,3.09,3.09,0,0,1,1.41.27l-.18.62a2.8,2.8,0,0,0-1.2-.24A2.21,2.21,0,0,0,90.86,166a2.16,2.16,0,0,0,2.28,2.39,3.1,3.1,0,0,0,1.26-.25Z"/><polygon class="cls-1" points="98.89 166.13 96.58 166.13 96.58 168.27 99.16 168.27 99.16 168.92 95.81 168.92 95.81 162.97 99.02 162.97 99.02 163.61 96.58 163.61 96.58 165.49 98.89 165.49 98.89 166.13"/><polygon class="cls-1" points="104.09 163.9 104.08 163.9 103.08 164.44 102.93 163.85 104.19 163.18 104.85 163.18 104.85 168.92 104.09 168.92 104.09 163.9"/><path class="cls-1" d="M108.55,163.67c-.65,0-1.12.59-1.12,1.4a1.11,1.11,0,0,0,1.1,1.22,1.28,1.28,0,0,0,1.13-.61.45.45,0,0,0,.07-.28c0-1-.36-1.73-1.17-1.73Zm-1.41,4.7a2.86,2.86,0,0,0,.63,0,2.13,2.13,0,0,0,1.2-.56,2.5,2.5,0,0,0,.76-1.52h0a1.69,1.69,0,0,1-1.36.62,1.66,1.66,0,0,1-1.69-1.76,2,2,0,0,1,2-2c1.18,0,1.9,1,1.9,2.42a3.63,3.63,0,0,1-1,2.69,2.82,2.82,0,0,1-1.67.77,3.83,3.83,0,0,1-.72,0Z"/><polygon class="cls-1" points="114.97 163.18 114.97 163.69 112.48 168.92 111.67 168.92 114.16 163.84 114.16 163.83 111.36 163.83 111.36 163.18 114.97 163.18"/><path class="cls-1" d="M117.63,163.67c-.65,0-1.12.59-1.12,1.4a1.11,1.11,0,0,0,1.1,1.22,1.28,1.28,0,0,0,1.13-.61.45.45,0,0,0,.07-.28c0-1-.36-1.73-1.17-1.73Zm-1.4,4.7a2.81,2.81,0,0,0,.62,0,2.13,2.13,0,0,0,1.2-.56,2.45,2.45,0,0,0,.76-1.52h0a1.69,1.69,0,0,1-1.35.62,1.66,1.66,0,0,1-1.7-1.76,2,2,0,0,1,2-2c1.17,0,1.9,1,1.9,2.42a3.63,3.63,0,0,1-1,2.69,2.82,2.82,0,0,1-1.67.77,3.77,3.77,0,0,1-.71,0Z"/><path class="cls-1" d="M18.22,145.92v0a8,8,0,0,0-8.31-8.07,8.11,8.11,0,0,0-8.36,8.11v0A8,8,0,0,0,9.86,154a8.11,8.11,0,0,0,8.36-8.11m-3.61,0a4.69,4.69,0,0,1-4.7,4.89,4.76,4.76,0,0,1-4.75-4.93v0A4.7,4.7,0,0,1,9.86,141a4.76,4.76,0,0,1,4.75,4.93Zm19.69,3.16v0c0-2.73-1.79-3.87-5-4.71-2.71-.69-3.39-1-3.39-2.06v0c0-.76.7-1.37,2-1.37A7.28,7.28,0,0,1,32,142.45l1.8-2.6a9.06,9.06,0,0,0-5.82-2c-3.21,0-5.49,1.89-5.49,4.73v0c0,3.11,2,4,5.19,4.79,2.62.67,3.16,1.12,3.16,2v0c0,.92-.85,1.48-2.26,1.48A7.17,7.17,0,0,1,23.93,149l-2,2.44A10,10,0,0,0,28.54,154c3.38,0,5.76-1.75,5.76-4.87m18.22-2.19v-8.85H49.06v9c0,2.49-1.27,3.77-3.38,3.77S42.3,149.5,42.3,147v-8.87H38.85v9c0,4.62,2.57,7,6.79,7s6.88-2.33,6.88-7.08m16.57,6.83v-3.14H61.27V138.08H57.83v15.68Zm14.76,0v-3.14H76V138.08H72.58v15.68Zm19.47-7.84v0a8.34,8.34,0,0,0-16.67,0v0a8.34,8.34,0,0,0,16.67,0m-3.61,0a4.69,4.69,0,0,1-4.7,4.89,4.76,4.76,0,0,1-4.75-4.93v0A4.69,4.69,0,0,1,95,141a4.76,4.76,0,0,1,4.75,4.93Zm21.35,5.27L118.87,149a5.66,5.66,0,0,1-4.13,1.84,4.66,4.66,0,0,1-4.54-4.93v0a4.65,4.65,0,0,1,4.54-4.89,5.76,5.76,0,0,1,4,1.77l2.2-2.53a8.11,8.11,0,0,0-6.18-2.42,8,8,0,0,0-8.18,8.11v0a8.27,8.27,0,0,0,14.47,5.27"/></svg>