<svg id="Layer_1" data-name="Layer 1" xmlns="http://www.w3.org/2000/svg" viewBox="0 0 120.66 169.85"><defs><style>.cls-1{fill:#fff;}</style></defs><path class="cls-1" d="M24.21,107.27l1,.77-1-.77"/><path class="cls-1" d="M29.42,110.88h0c1,.59,1.95,1.17,3,1.71-1-.54-2-1.12-3-1.71"/><path class="cls-1" d="M42.2,116.78a59.85,59.85,0,0,0,18.59,3,59.85,59.85,0,0,1-18.59-3"/><path class="cls-1" d="M58.08,30.22c4.49-.71,9.72-1.47,13.34-1.84s8.91.08,17.61.19c-.74-.67-1.5-1.3-2.28-1.91-7.11-.16-16-.44-21.15-.48-7.55-.05-22.91-.08-24.67-.09-1,0-3.35.08-5.81.27a40.77,40.77,0,0,0-3.91,3.39c3.21,0,6.77.21,11.67.64,8.85.79,10.72.53,15.2-.17"/><path class="cls-1" d="M56.39,24.6c4.77-.07,18.42-.22,27.26-.16A44.54,44.54,0,0,0,79.33,22c-3.78.19-7.1.37-8.75.36-4,0-17.08.3-21.84.62-2.54.16-6,.31-9.07.36-.67.38-1.32.78-2,1.2,5.34.07,13.43.16,18.68.07"/><path class="cls-1" d="M63.2,34.86c6.81.24,22.53.17,29.32.27l2.41,0a41.46,41.46,0,0,0-3.7-4.44c-3.6-.23-6.25-.57-7.53-.6a91.39,91.39,0,0,0-17.3,1c-6.36.83-10.69,1.8-13.33,1.83S41.82,32.18,37,31.66a45.07,45.07,0,0,0-7.88.29,42.86,42.86,0,0,0-3.23,4.13c5.89-.23,12-.47,15.71-.63,6.39-.28,14.79-.83,21.59-.59"/><path class="cls-1" d="M30.35,41a154.64,154.64,0,0,0,16.73-.14,110.15,110.15,0,0,1,19.27.38c8.85.79,10.72.53,15.2-.18,2.66-.41,5.58-.85,8.27-1.21,2,0,5.42-.6,7.74-.59-.48-.86-1-1.7-1.54-2.52-1.42.1-3.29.14-4.86.35-9.79-.11-18.72-.23-22-.28-12-.17-17.9.54-25.94.8-5.35.17-10.46.5-14.85.73-1.08,0-2.65.12-4,.2-.47.81-.92,1.64-1.35,2.48,1.22,0,2.56-.07,3.51-.12,1.37,0,2.67.05,3.85.1"/><path class="cls-1" d="M36.38,47.35A215,215,0,0,0,63.59,46a187.89,187.89,0,0,1,24.47-.92c1.56,0,6.18.11,12.27.2-.45-1.22-1-2.42-1.52-3.58-2.94.15-5.54.46-9.11.92-6.36.83-10.69,1.8-13.34,1.84s-11.24-.77-16.06-1.28a84.89,84.89,0,0,0-16.57.4c-4.74.59-12.08,0-19.64-.21l-2.16,0a40.57,40.57,0,0,0-1.44,3.91c5.68,0,11.51,0,15.89.12"/><path class="cls-1" d="M32.58,87.16c3.58-.21,10.25-1.3,17.6-.79s20.8,1.29,23,1.16,8.33-1.19,13.51-1.92c2-.27,3.61-.55,5.45-.78-8.08-.23-18.33-.72-26.7-1A148.2,148.2,0,0,0,48.65,84c-4.81.18-15.17.82-21.66,1.22.52.69,1.07,1.37,1.64,2a33.32,33.32,0,0,0,3.95,0"/><path class="cls-1" d="M72.73,93.55c-5.62.44-20.77,2.2-27.6,2.3-1.73,0-4,0-6.46,0,.68.42,1.38.82,2.09,1.21,5.73.43,11.24.8,13.5.67,3.38-.2,18-1.31,27.71-1.38,1.25-.73,2.45-1.52,3.61-2.36-5-.06-9-.71-12.85-.4"/><path class="cls-1" d="M35.83,52.62a212.89,212.89,0,0,0,27.08-1.37c10.87-1.12,24.51.81,30.93.94.81,0,6.19.07,8.39,0a42.12,42.12,0,0,0-1.06-4.4c-5.62-.11-10-.82-12.65-.86-12.16-.19-18.11.75-27.36,1.49-8.9.73-15.67,1.58-19.7,1.43-3.06-.11-9.63-.07-21.69,0-.22.87-.4,1.76-.56,2.65,6.22,0,11.73,0,16.62.13"/><path class="cls-1" d="M59.74,20.52c2.3,0,8.34-.37,14.14-.74A42.19,42.19,0,0,0,44,21.15c3.54,0,12.78-.68,15.76-.63"/><path class="cls-1" d="M25.4,82.87c6.74-.35,13.56-.74,17-1.06,8.12-.78,19.92-.54,28-.36,6.22.14,17.88.28,26.38.37a40.8,40.8,0,0,0,2.44-4.63l-75,3.71c.38.67.79,1.33,1.21,2"/><path class="cls-1" d="M56.3,92.67C61.08,92.28,79,90.08,89.19,91q1.59-1.45,3-3.05c-3.79.31-7.77.47-10.24.85-4.36.68-5.94,1.83-18.15.78S46.37,88.2,40.34,88.7c-2.28.18-6.24.5-9.81.59a43.36,43.36,0,0,0,4.47,4l.71.54c8.12-.1,16.81-.82,20.59-1.14"/><path class="cls-1" d="M98.56,54.58c-12-.18-28.77-1.78-37.66-1.06S46.39,54.74,42.36,54.6c-2-.07-12.95-.07-23.48.13a43.85,43.85,0,0,0-.32,5.16c0,.74,0,1.48.06,2.21,1.57,0,3,0,4.05.06C42.37,63,45,58.93,51,58.53c3.32-.22,8.63-4.05,11.06-3.69,3.89.56,10.88,6.57,20.4,6.79,4.91.1,7.65.6,13.81.61,1.63,0,3.73,0,6.51.12-.06.67-.14,1.34-.23,2-5.51.1-14.49-.57-18.6-.69-5.79-.17-16.49.72-23.31.35s-21.41.53-26.43.72c-3.78.14-9.41,0-15.31,0,.07.58.14,1.16.23,1.73,1.79,0,3.46-.1,5-.17,6.66-.28,22.63.17,27.49.27s25.89.19,34-.18c1.35-.06,8-.61,17-.76a42.87,42.87,0,0,0,.41-5.82c0-.72,0-1.45-.06-2.17-.05-1-.15-2.06-.28-3.07-1.57,0-2.93,0-4,0"/><path class="cls-1" d="M64.12,99.42c-3.51.19-10.62.47-16.44.55a42.13,42.13,0,0,0,29.84-1.4c-5.69.21-11.65.75-13.4.85"/><path class="cls-1" d="M88,69c-6.62,0-27.72.12-40.86-.15-8.35-.17-18.57,0-27.58.21.23,1,.5,2,.8,3,5.45,0,11,.32,13.13.18C38,72,55,71.58,59.08,71.74S85,71,90.35,70.81c1.27,0,5-.13,11.15-.06.14-.51.25-1,.38-1.53C94.58,69.23,89.73,69,88,69"/><path class="cls-1" d="M92.67,73.32c-6.2-.16-14.6.37-22.25.44s-24.22.55-35,.41c-5-.07-10,.16-14.17.42.44,1.18.93,2.34,1.47,3.47,6.78-.17,13-.3,17.23-.36,13.89-.2,31.68-1.31,40.88-1.48,4.67-.09,13.1-.77,18.34-1a2.18,2.18,0,0,0,1-.15c.23-.6.44-1.2.65-1.81l-3.08.12-5-.1"/><path class="cls-1" d="M4.6,163h.76v4c0,1.58-.77,2.06-1.8,2.06a2.51,2.51,0,0,1-.82-.14l.12-.62a1.89,1.89,0,0,0,.64.11c.69,0,1.1-.31,1.1-1.47Z"/><polygon class="cls-1" points="10.06 166.13 7.75 166.13 7.75 168.27 10.32 168.27 10.32 168.92 6.98 168.92 6.98 162.97 10.19 162.97 10.19 163.61 7.75 163.61 7.75 165.49 10.06 165.49 10.06 166.13"/><path class="cls-1" d="M12.87,163h.77v4c0,1.58-.78,2.06-1.8,2.06a2.46,2.46,0,0,1-.82-.14l.12-.62a1.8,1.8,0,0,0,.64.11c.69,0,1.09-.31,1.09-1.47Z"/><path class="cls-1" d="M16,163v3.52c0,1.33.59,1.9,1.39,1.9s1.44-.59,1.44-1.9V163h.78v3.47c0,1.82-1,2.57-2.25,2.57s-2.13-.69-2.13-2.54V163Z"/><polygon class="cls-1" points="24.63 163.62 22.83 163.62 22.83 162.97 27.23 162.97 27.23 163.62 25.41 163.62 25.41 168.92 24.63 168.92 24.63 163.62"/><polygon class="cls-1" points="31.3 166.13 29 166.13 29 168.27 31.57 168.27 31.57 168.92 28.23 168.92 28.23 162.97 31.44 162.97 31.44 163.61 29 163.61 29 165.49 31.3 165.49 31.3 166.13"/><path class="cls-1" d="M35.81,166.44l-.58-1.71a11.17,11.17,0,0,1-.3-1.08h0c-.1.35-.19.71-.31,1.08L34,166.44Zm-2,.61-.61,1.87h-.8l2-5.95h.93l2,5.95h-.82L36,167.05Z"/><path class="cls-1" d="M45.37,168.65a5.31,5.31,0,0,1-1.82.33,2.8,2.8,0,0,1-3.06-3,3,3,0,0,1,3.22-3.07,3.81,3.81,0,0,1,1.49.27l-.19.63a3.11,3.11,0,0,0-1.31-.26,2.23,2.23,0,0,0-2.4,2.39,2.18,2.18,0,0,0,2.3,2.4,2.47,2.47,0,0,0,1-.16v-1.77H43.41v-.62h2Z"/><path class="cls-1" d="M49.79,166.44l-.58-1.71c-.13-.38-.22-.74-.31-1.08h0c-.09.35-.18.71-.3,1.08L48,166.44Zm-1.95.61-.62,1.87h-.79l2-5.95h.93l2,5.95h-.83L50,167.05Z"/><path class="cls-1" d="M53.38,165.76h.79c.82,0,1.34-.45,1.34-1.13s-.56-1.11-1.37-1.11a3,3,0,0,0-.76.07Zm-.77-2.71a8.07,8.07,0,0,1,1.48-.13,2.41,2.41,0,0,1,1.72.49,1.48,1.48,0,0,1,.47,1.13,1.57,1.57,0,0,1-1.12,1.52v0a1.49,1.49,0,0,1,.87,1.2,9.53,9.53,0,0,0,.46,1.64H55.7a7.92,7.92,0,0,1-.4-1.42c-.18-.83-.49-1.13-1.19-1.16h-.73v2.58h-.77Z"/><path class="cls-1" d="M58.46,168.31a5.75,5.75,0,0,0,.78,0,2.28,2.28,0,0,0,2.53-2.52,2.12,2.12,0,0,0-2.4-2.3,4.82,4.82,0,0,0-.91.08Zm-.76-5.26a11,11,0,0,1,1.63-.13,3.37,3.37,0,0,1,2.41.75,2.72,2.72,0,0,1,.84,2.13,3.12,3.12,0,0,1-.86,2.31,3.63,3.63,0,0,1-2.63.86,13.36,13.36,0,0,1-1.39-.07Z"/><polygon class="cls-1" points="66.99 166.13 64.68 166.13 64.68 168.27 67.25 168.27 67.25 168.92 63.91 168.92 63.91 162.97 67.12 162.97 67.12 163.61 64.68 163.61 64.68 165.49 66.99 165.49 66.99 166.13"/><path class="cls-1" d="M68.59,168.92V163h.83l1.91,3a16.83,16.83,0,0,1,1.07,1.93h0c-.07-.79-.09-1.52-.09-2.44V163h.72v5.95h-.77l-1.89-3a17.33,17.33,0,0,1-1.11-2h0c0,.75.06,1.46.06,2.46v2.54Z"/><path class="cls-1" d="M76.83,168a2.7,2.7,0,0,0,1.37.39c.79,0,1.25-.42,1.25-1s-.32-.87-1.12-1.18c-1-.34-1.57-.85-1.57-1.68a1.71,1.71,0,0,1,1.92-1.62,2.78,2.78,0,0,1,1.31.29l-.21.63a2.3,2.3,0,0,0-1.12-.28c-.82,0-1.13.48-1.13.89,0,.56.37.83,1.19,1.15,1,.39,1.51.87,1.51,1.74S79.56,169,78.15,169a3,3,0,0,1-1.51-.38Z"/><rect class="cls-1" x="81.62" y="162.97" width="0.77" height="5.95"/><path class="cls-1" d="M84.32,168.92V163h.84l1.9,3a16.83,16.83,0,0,1,1.07,1.93h0c-.07-.79-.09-1.52-.09-2.44V163h.73v5.95H88l-1.89-3a19,19,0,0,1-1.11-2h0c0,.75.06,1.46.06,2.46v2.54Z"/><path class="cls-1" d="M94.56,168.72A3.7,3.7,0,0,1,93,169a2.78,2.78,0,0,1-2.93-3,3,3,0,0,1,3.1-3.13,3.09,3.09,0,0,1,1.41.27l-.18.62a2.8,2.8,0,0,0-1.2-.24A2.21,2.21,0,0,0,90.86,166a2.16,2.16,0,0,0,2.28,2.39,3.1,3.1,0,0,0,1.26-.25Z"/><polygon class="cls-1" points="98.89 166.13 96.58 166.13 96.58 168.27 99.16 168.27 99.16 168.92 95.81 168.92 95.81 162.97 99.02 162.97 99.02 163.61 96.58 163.61 96.58 165.49 98.89 165.49 98.89 166.13"/><polygon class="cls-1" points="104.09 163.9 104.08 163.9 103.08 164.44 102.93 163.85 104.19 163.18 104.85 163.18 104.85 168.92 104.09 168.92 104.09 163.9"/><path class="cls-1" d="M108.55,163.67c-.65,0-1.12.59-1.12,1.4a1.11,1.11,0,0,0,1.1,1.22,1.28,1.28,0,0,0,1.13-.61.45.45,0,0,0,.07-.28c0-1-.36-1.73-1.17-1.73Zm-1.41,4.7a2.86,2.86,0,0,0,.63,0,2.13,2.13,0,0,0,1.2-.56,2.5,2.5,0,0,0,.76-1.52h0a1.69,1.69,0,0,1-1.36.62,1.66,1.66,0,0,1-1.69-1.76,2,2,0,0,1,2-2c1.18,0,1.9,1,1.9,2.42a3.63,3.63,0,0,1-1,2.69,2.82,2.82,0,0,1-1.67.77,3.83,3.83,0,0,1-.72,0Z"/><polygon class="cls-1" points="114.97 163.18 114.97 163.69 112.48 168.92 111.67 168.92 114.16 163.84 114.16 163.83 111.36 163.83 111.36 163.18 114.97 163.18"/><path class="cls-1" d="M117.63,163.67c-.65,0-1.12.59-1.12,1.4a1.11,1.11,0,0,0,1.1,1.22,1.28,1.28,0,0,0,1.13-.61.45.45,0,0,0,.07-.28c0-1-.36-1.73-1.17-1.73Zm-1.4,4.7a2.81,2.81,0,0,0,.62,0,2.13,2.13,0,0,0,1.2-.56,2.45,2.45,0,0,0,.76-1.52h0a1.69,1.69,0,0,1-1.35.62,1.66,1.66,0,0,1-1.7-1.76,2,2,0,0,1,2-2c1.17,0,1.9,1,1.9,2.42a3.63,3.63,0,0,1-1,2.69,2.82,2.82,0,0,1-1.67.77,3.77,3.77,0,0,1-.71,0Z"/><path class="cls-1" d="M18.22,145.92v0a8,8,0,0,0-8.31-8.07,8.11,8.11,0,0,0-8.36,8.11v0A8,8,0,0,0,9.86,154a8.11,8.11,0,0,0,8.36-8.11m-3.61,0a4.69,4.69,0,0,1-4.7,4.89,4.76,4.76,0,0,1-4.75-4.93v0A4.7,4.7,0,0,1,9.86,141a4.76,4.76,0,0,1,4.75,4.93Zm19.69,3.16v0c0-2.73-1.79-3.87-5-4.71-2.71-.69-3.39-1-3.39-2.06v0c0-.76.7-1.37,2-1.37A7.28,7.28,0,0,1,32,142.45l1.8-2.6a9.06,9.06,0,0,0-5.82-2c-3.21,0-5.49,1.89-5.49,4.73v0c0,3.11,2,4,5.19,4.79,2.62.67,3.16,1.12,3.16,2v0c0,.92-.85,1.48-2.26,1.48A7.17,7.17,0,0,1,23.93,149l-2,2.44A10,10,0,0,0,28.54,154c3.38,0,5.76-1.75,5.76-4.87m18.22-2.19v-8.85H49.06v9c0,2.49-1.27,3.77-3.38,3.77S42.3,149.5,42.3,147v-8.87H38.85v9c0,4.62,2.57,7,6.79,7s6.88-2.33,6.88-7.08m16.57,6.83v-3.14H61.27V138.08H57.83v15.68Zm14.76,0v-3.14H76V138.08H72.58v15.68Zm19.47-7.84v0a8.34,8.34,0,0,0-16.67,0v0a8.34,8.34,0,0,0,16.67,0m-3.61,0a4.69,4.69,0,0,1-4.7,4.89,4.76,4.76,0,0,1-4.75-4.93v0A4.69,4.69,0,0,1,95,141a4.76,4.76,0,0,1,4.75,4.93Zm21.35,5.27L118.87,149a5.66,5.66,0,0,1-4.13,1.84,4.66,4.66,0,0,1-4.54-4.93v0a4.65,4.65,0,0,1,4.54-4.89,5.76,5.76,0,0,1,4,1.77l2.2-2.53a8.11,8.11,0,0,0-6.18-2.42,8,8,0,0,0-8.18,8.11v0a8.27,8.27,0,0,0,14.47,5.27"/></svg>