<?xml version="1.0" encoding="UTF-8"?>
<svg id="Layer_1" xmlns="http://www.w3.org/2000/svg" viewBox="0 0 413.42 77.07">
  <defs>
    <style>
      .cls-1 {
        fill: #fff;
      }
    </style>
  </defs>
  <path class="cls-1" d="M376.36,5.92v9.01h4.61c2.2,0,2.64.5,2.7,1.25.04.52-2.3,3.13-3.19,4.17l-3.54,4.25-4.75,5.46-2.67,3.17c-1.9,2.37-1.85,1.25-4.29-1.46l-2.37-2.83-5.67-6.9c-.71-.86-4.9-5.17-4.9-6.21,0-1.21.74-.87,3.94-.87h3.2V5.92h-45.02v8.89h0c11.21,0,11.45-.42,15.36,4.06l6.19,7.12,18.37,21v13.28c-.31,2.65-2.72,2.84-7.71,2.66h-4.27v8h44.04v-8.12h-5.61l-2.49.03c-3.62-.06-4.27-.3-4.27-3.75h0v-13.12l13.62-15.24,6.29-6.88c7.47-9.32,7.83-8.92,13.17-8.92h6.25V5.92h-37Z"/>
  <path class="cls-1" d="M18.09,19.87c.31-5.06,10-7.81,21.44-7.81,8.88,0,20.61,2.68,25.81,6.37,2.37,1.69,4.5,3.31,6.06,9.37h-.88,8.88V5.84h-9.03l.02.47c.14,3.48-1.09,3.43-4.73,1.33-5.47-3.16-16.48-5.73-26.38-5.64C16.86,2.22.4,8.76.4,24.3c0,14.33,12.09,19,28.75,21.42l19.04,2c13.42,1.62,18.62,3.11,18.62,8.33s-10.33,9.46-22.5,9.21c-8.75-.18-22.04-3.79-25.42-6.58-2.91-2.41-7.25-4.75-6.62-11.71H2.32v26h10.12c0-4.08-.18-6.17,2.62-4.75,7.71,3.92,20.46,6.77,29.92,6.71,23.75-.16,38.83-7.71,39.03-22.52.45-33.66-64.8-18.6-65.99-30.73l.06-1.81Z"/>
  <path class="cls-1" d="M268.24,14.84h8.06c4.69-.14,5.43,1.26,5.34,5.18v25.82L237.59,5.83h-32.19v9.03h6.32c5.12,0,6.83,1.55,6.83,5v-1.09,40.22h0c0,3.45-1.71,3.87-6.83,3.87h-5.45v8.69h37.94v-8.56h-6.02c-5.12,0-7-.54-7-3.99h0V25.68l50.71,45.92,12.64.17V18.78h0c0-3.45,1.71-4.02,6.83-4.02h4.95V5.83h-38.08v9.01h0Z"/>
  <path class="cls-1" d="M147.93,1.96c-29.94,0-48.78,14.23-48.78,36.75s18.5,36.39,47.77,36.39c31.12,0,49.12-13.69,49.12-37.29,0-21.26-19.51-35.85-48.11-35.85h0ZM145.78,65.8c-15.25-1.75-26.12-11.25-26.12-27.45,0-15.18,10-26.17,28.28-26.67,13.98-.38,28.22,12,27.59,27.4-.64,15.72-10.89,26.6-27.88,26.6l-1.88.12Z"/>
</svg>