<svg id="Layer_1" data-name="Layer 1" xmlns="http://www.w3.org/2000/svg" viewBox="0 0 135.17 80.98"><defs><style>.cls-1{fill:#fff;}</style></defs><polygon class="cls-1" points="0 0 0 30.32 10.7 30.32 10.7 10.7 30.32 10.7 30.32 0 0 0"/><polygon class="cls-1" points="72.22 35.89 72.22 28.88 62.95 28.88 62.95 35.89 55.94 35.89 55.94 45.15 62.95 45.15 62.95 52.16 72.22 52.16 72.22 45.15 79.22 45.15 79.22 35.89 72.22 35.89"/><polygon class="cls-1" points="10.65 70.4 10.65 50.78 -0.05 50.78 -0.05 81.1 30.27 81.1 30.27 70.4 10.65 70.4"/><polygon class="cls-1" points="104.84 0 104.84 10.7 124.47 10.7 124.47 30.32 135.17 30.32 135.17 0 104.84 0"/><polygon class="cls-1" points="124.47 50.66 124.47 70.28 104.84 70.28 104.84 80.98 135.17 80.98 135.17 50.66 124.47 50.66"/></svg>