<svg id="Layer_1" data-name="Layer 1" xmlns="http://www.w3.org/2000/svg" viewBox="0 0 172.83 118.6"><defs><style>.cls-1{fill:#fff;}</style></defs><polygon class="cls-1" points="18.81 18.66 18.81 48.98 29.51 48.98 29.51 29.36 49.13 29.36 49.13 18.66 18.81 18.66"/><polygon class="cls-1" points="91.03 54.55 91.03 47.54 81.76 47.54 81.76 54.55 74.75 54.55 74.75 63.81 81.76 63.81 81.76 70.82 91.03 70.82 91.03 63.81 98.03 63.81 98.03 54.55 91.03 54.55"/><polygon class="cls-1" points="29.46 89.06 29.46 69.44 18.76 69.44 18.76 99.77 49.08 99.77 49.08 89.06 29.46 89.06"/><polygon class="cls-1" points="123.65 18.66 123.65 29.36 143.28 29.36 143.28 48.98 153.98 48.98 153.98 18.66 123.65 18.66"/><polygon class="cls-1" points="143.28 69.32 143.28 88.94 123.65 88.94 123.65 99.64 153.98 99.64 153.98 69.32 143.28 69.32"/><path class="cls-1" d="M0,0V118.6H172.83V0ZM10.83,107.77V10.83H162v96.94Z"/></svg>