<svg width="20" height="18" viewBox="0 0 20 18" fill="none" xmlns="http://www.w3.org/2000/svg">
<g clip-path="url(#clip0_217_55)">
<path d="M11.9716 17.7341L20 9.04435L11.9716 0.354571C11.8991 0.252044 11.807 0.16749 11.7015 0.106631C11.596 0.0457723 11.4796 0.0100306 11.3601 0.00182506C11.2407 -0.00638045 11.121 0.0131424 11.0092 0.0590712C10.8974 0.105 10.796 0.176263 10.712 0.268035C10.628 0.359808 10.5633 0.469947 10.5222 0.590997C10.4812 0.712047 10.4647 0.841182 10.4741 0.969659C10.4834 1.09814 10.5182 1.22296 10.5763 1.33567C10.6343 1.44838 10.7141 1.54635 10.8104 1.62295L16.817 8.14478L0.835422 8.14478C0.613855 8.14478 0.401362 8.23956 0.24469 8.40826C0.0880176 8.57696 -3.59077e-07 8.80577 -3.68805e-07 9.04435C-3.78534e-07 9.28292 0.0880176 9.51173 0.24469 9.68043C0.401362 9.84913 0.613854 9.94391 0.835422 9.94391L16.817 9.94391L10.8104 16.4657C10.6542 16.6351 10.5668 16.8644 10.5676 17.1031C10.5684 17.3418 10.6572 17.5704 10.8145 17.7386C10.9718 17.9068 11.1848 18.0008 11.4065 18C11.6282 17.9992 11.8405 17.9035 11.9967 17.7341L11.9716 17.7341Z" fill="#FFFBEA"/>
</g>
<defs>
<clipPath id="clip0_217_55">
<rect width="20" height="18" fill="white"/>
</clipPath>
</defs>
</svg>
