<svg width="90" height="96" viewBox="0 0 90 96" fill="none" xmlns="http://www.w3.org/2000/svg">
<g clip-path="url(#clip0_255_87)">
<path d="M45.9337 23.8942C45.9337 8.65707 37.3581 0 26.7891 0C16.2201 0 7.64453 8.67346 7.64453 23.8942H45.9337Z" fill="#FFD12E"/>
<path d="M89.1434 23.1795C89.1434 8.39806 80.5679 0 69.9989 0C59.4298 0 50.8543 8.41281 50.8543 23.1795V27.9515C30.6611 27.9515 9.62522 27.9515 7.64453 27.9515V44.3001C7.64453 84.8724 50.8543 81.6807 50.8543 81.6807V95.5195C96.3943 95.5343 89.1434 23.1795 89.1434 23.1795Z" fill="white"/>
<path d="M48.6292 66.3325C41.1166 66.3325 35.0469 60.0819 35.0469 52.3821V50.5576H62.2275V52.3821C62.2259 60.0835 56.1402 66.3325 48.6292 66.3325Z" fill="#FF6E91"/>
<path d="M39.2962 47.2204C41.9256 47.2204 44.0572 45.0311 44.0572 42.3304C44.0572 39.6298 41.9256 37.4404 39.2962 37.4404C36.6667 37.4404 34.5352 39.6298 34.5352 42.3304C34.5352 45.0311 36.6667 47.2204 39.2962 47.2204Z" fill="#FF6E91"/>
<path d="M58.6868 47.2204C61.3162 47.2204 63.4478 45.0311 63.4478 42.3304C63.4478 39.6298 61.3162 37.4404 58.6868 37.4404C56.0574 37.4404 53.9258 39.6298 53.9258 42.3304C53.9258 45.0311 56.0574 47.2204 58.6868 47.2204Z" fill="#FF6E91"/>
<path d="M14.7554 13.5705C14.7554 13.5705 0 10.31 0 23.8816H20.1389" fill="#FFD12E"/>
<path d="M40.8828 18.7224C40.886 12.621 32.3839 12.3521 32.1205 18.447C32.1142 18.6076 32.1094 18.7715 32.1094 18.9388V20.1141H40.8493C40.8509 20.1141 40.8828 19.5699 40.8828 18.7224Z" fill="#FF6E91"/>
</g>
<defs>
<clipPath id="clip0_255_87">
<rect width="90" height="96" fill="white"/>
</clipPath>
</defs>
</svg>
