<svg width="60" height="77" viewBox="0 0 60 77" fill="none" xmlns="http://www.w3.org/2000/svg">
<g clip-path="url(#clip0_193_90)">
<g clip-path="url(#clip1_193_90)">
<path d="M28.0265 57.8945C15.3738 57.8945 4.18981 49.9408 0.193464 38.1027C-0.461533 36.1634 0.600312 34.0675 2.56819 33.4211C4.53318 32.7746 6.65687 33.8226 7.31186 35.7647C10.2868 44.5756 18.6113 50.4932 28.0265 50.4932C40.0617 50.4932 49.8549 40.828 49.8549 28.9501C49.8549 17.0722 40.0617 7.40412 28.0265 7.40412C22.4633 7.40412 17.1686 9.46873 13.1087 13.2192C11.5968 14.6174 9.22203 14.5406 7.80816 13.0483C6.3914 11.5561 6.46931 9.21243 7.98129 7.81419C13.4348 2.77654 20.5532 0 28.0265 0C44.1994 0 57.3571 12.9857 57.3571 28.9473C57.3571 44.9088 44.1994 57.8945 28.0265 57.8945Z" fill="#FFFBEA"/>
<path d="M6.36639 70.7403C5.016 70.7403 3.71178 70.0198 3.04235 68.7554C2.0815 66.9443 2.78843 64.706 4.62358 63.7577C8.05149 61.9835 9.97031 59.9189 10.3252 57.6179C10.9081 53.839 7.4542 49.4848 6.07496 48.1264C4.61204 46.6855 4.6005 44.3446 6.05476 42.8951C7.50903 41.4456 9.87221 41.4285 11.3467 42.8581C12.1315 43.6213 18.9758 50.5356 17.7495 58.6858C17.031 63.4643 13.7878 67.3771 8.10631 70.316C7.54942 70.6036 6.95502 70.7403 6.36927 70.7403H6.36639Z" fill="#FFFBEA"/>
<path d="M50.2566 68.2606C49.391 68.2606 48.5224 67.9673 47.8155 67.3665L33.948 55.6167C32.3755 54.2839 32.1966 51.9488 33.547 50.3968C34.8974 48.8448 37.2634 48.6682 38.836 50.0009L52.7035 61.7507C54.276 63.0835 54.4549 65.4186 53.1045 66.9706C52.363 67.8221 51.3127 68.2606 50.2566 68.2606Z" fill="#FFFBEA"/>
<path d="M2.5695 65.3668C4.44504 62.8664 9.49169 62.1574 12.2646 65.4351C16.5235 70.4699 14.3219 73.7761 12.1001 76.0743C11.0585 77.1507 9.37339 77.3045 8.15284 76.4302C7.46033 75.9347 0.693959 67.8671 2.5695 65.3639V65.3668Z" fill="#FFFBEA"/>
<path d="M49.9888 68.0922C47.112 66.8192 45.3316 62.1062 47.9805 58.7317C52.0518 53.5488 55.7972 54.9641 58.547 56.613C59.8368 57.3847 60.3475 58.9766 59.7444 60.3406C59.4011 61.1152 52.8655 69.3651 49.9888 68.0922Z" fill="#FFFBEA"/>
<path d="M20.1062 20.2477C21.4161 20.2477 22.4781 18.7866 22.4781 16.9842C22.4781 15.1818 21.4161 13.7207 20.1062 13.7207C18.7963 13.7207 17.7344 15.1818 17.7344 16.9842C17.7344 18.7866 18.7963 20.2477 20.1062 20.2477Z" fill="#FFFBEA"/>
<path d="M29.4773 16.984C30.7872 16.984 31.8491 15.5229 31.8491 13.7205C31.8491 11.9182 30.7872 10.457 29.4773 10.457C28.1674 10.457 27.1055 11.9182 27.1055 13.7205C27.1055 15.5229 28.1674 16.984 29.4773 16.984Z" fill="#FFFBEA"/>
<path d="M28.0263 30.539C27.7724 30.539 27.5156 30.4963 27.2675 30.4023L15.9305 26.2162C14.811 25.8032 14.2426 24.573 14.661 23.4681C15.0793 22.3632 16.3259 21.8022 17.4454 22.2151L27.3021 25.8545L34.6888 16.6107C35.4275 15.6852 36.7894 15.5257 37.7272 16.2576C38.665 16.9866 38.8266 18.3308 38.085 19.2563L29.7201 29.7246C29.3017 30.2486 28.6698 30.539 28.0206 30.539H28.0263Z" fill="#FFFBEA"/>
</g>
</g>
<defs>
<clipPath id="clip0_193_90">
<rect width="60" height="77" fill="white"/>
</clipPath>
<clipPath id="clip1_193_90">
<rect width="60" height="77" fill="white"/>
</clipPath>
</defs>
</svg>
