<svg width="30" height="30" viewBox="0 0 30 30" fill="none" xmlns="http://www.w3.org/2000/svg">
<g clip-path="url(#clip0_281_2)">
<path d="M22.9688 0H7.03125C3.148 0 0 3.148 0 7.03125V22.9688C0 26.852 3.148 30 7.03125 30H22.9688C26.852 30 30 26.852 30 22.9688V7.03125C30 3.148 26.852 0 22.9688 0Z" fill="#330000"/>
<path d="M14.4998 17.8523H9.84983L8.89979 20.7898C8.87483 20.9023 8.77487 20.9773 8.66237 20.9648H6.31229C6.17483 20.9648 6.13733 20.8898 6.17483 20.7398L10.1999 9.15231C10.2374 9.02738 10.2749 8.8898 10.3248 8.7398C10.3748 8.4773 10.3998 8.20238 10.3998 7.92734C10.3874 7.86488 10.4373 7.80231 10.4999 7.78988H13.7373C13.8374 7.78988 13.8873 7.82738 13.8998 7.88984L18.4623 20.7649C18.4998 20.9023 18.4623 20.9648 18.3374 20.9648H15.7248C15.6374 20.9773 15.5498 20.9149 15.5249 20.8273L14.4998 17.8523ZM10.5749 15.3148H13.7498C13.6748 15.0523 13.5749 14.7398 13.4624 14.4148C13.3499 14.0773 13.2374 13.7149 13.1249 13.3399C12.9998 12.9523 12.8873 12.5773 12.7623 12.1898C12.6374 11.8024 12.5249 11.4398 12.4248 11.0773C12.3248 10.7274 12.2373 10.4023 12.1499 10.1023H12.1248C12.0123 10.6399 11.8748 11.1774 11.6999 11.7148C11.5124 12.3148 11.3249 12.9398 11.1248 13.5649C10.9634 14.1549 10.7799 14.7386 10.5749 15.3148ZM21.2498 9.97731C20.8373 9.98984 20.4374 9.8273 20.1374 9.53984C19.8499 9.2273 19.6999 8.8148 19.7123 8.38988C19.6999 7.96484 19.8623 7.56488 20.1623 7.2773C20.4623 6.98984 20.8624 6.83984 21.2749 6.83984C21.7624 6.83984 22.1374 6.98984 22.4123 7.2773C22.6894 7.58036 22.8373 7.97948 22.8248 8.38988C22.8374 8.8148 22.6874 9.2273 22.3874 9.53984C22.0999 9.83984 21.6749 10.0024 21.2498 9.97731ZM19.8499 20.8273V11.2024C19.8499 11.0773 19.8998 11.0273 20.0123 11.0273H22.4873C22.5998 11.0273 22.6499 11.0899 22.6499 11.2024V20.8273C22.6499 20.9648 22.5998 21.0274 22.4873 21.0274H20.0374C19.9124 21.0274 19.8499 20.9524 19.8499 20.8273Z" fill="#FF9A00"/>
</g>
<defs>
<clipPath id="clip0_281_2">
<rect width="30" height="30" fill="white"/>
</clipPath>
</defs>
</svg>
