<svg width="30" height="30" viewBox="0 0 30 30" fill="none" xmlns="http://www.w3.org/2000/svg">
<g clip-path="url(#clip0_254_8)">
<g clip-path="url(#clip1_254_8)">
<path d="M22.9688 0H7.03125C3.148 0 0 3.148 0 7.03125V22.9688C0 26.852 3.148 30 7.03125 30H22.9688C26.852 30 30 26.852 30 22.9688V7.03125C30 3.148 26.852 0 22.9688 0Z" fill="#242938"/>
<mask id="mask0_254_8" style="mask-type:luminance" maskUnits="userSpaceOnUse" x="7" y="3" width="16" height="24">
<path d="M7.14844 3.28125H22.7766V26.7188H7.14844V3.28125Z" fill="white"/>
</mask>
<g mask="url(#mask0_254_8)">
<path d="M11.0562 26.7188C13.2125 26.7188 14.9624 24.9688 14.9624 22.8126V18.9062H11.0562C8.89998 18.9062 7.1499 20.6563 7.1499 22.8126C7.1499 24.9688 8.89998 26.7188 11.0562 26.7188Z" fill="#0ACF83"/>
<path d="M7.1499 15C7.1499 12.8437 8.89998 11.0938 11.0562 11.0938H14.9624V18.9062H11.0562C8.89998 18.9062 7.1499 17.1562 7.1499 15Z" fill="#A259FF"/>
<path d="M7.1499 7.18746C7.1499 5.03121 8.89998 3.28125 11.0562 3.28125H14.9624V11.0938H11.0562C8.89998 11.0938 7.1499 9.34371 7.1499 7.18746Z" fill="#F24E1E"/>
<path d="M14.9624 3.28125H18.8686C21.0249 3.28125 22.7749 5.03121 22.7749 7.18746C22.7749 9.34371 21.0249 11.0938 18.8686 11.0938H14.9624V3.28125Z" fill="#FF7262"/>
<path d="M22.7749 15C22.7749 17.1562 21.0249 18.9062 18.8686 18.9062C16.7124 18.9062 14.9624 17.1562 14.9624 15C14.9624 12.8437 16.7124 11.0938 18.8686 11.0938C21.0249 11.0938 22.7749 12.8437 22.7749 15Z" fill="#1ABCFE"/>
</g>
</g>
</g>
<defs>
<clipPath id="clip0_254_8">
<rect width="30" height="30" fill="white"/>
</clipPath>
<clipPath id="clip1_254_8">
<rect width="30" height="30" fill="white"/>
</clipPath>
</defs>
</svg>
